SplineFontDB: 3.2
FontName: XBFWINDECTerminal18BoldBold
FullName: XBF WIN DEC Terminal 18 Bold
FamilyName: XBF WIN DEC Terminal 18
Weight: Bold
Copyright: Copyright (c) 1991 Digital Equipment Corporation. All Rights Reserved.
UComments: "2021-12-21: Created with FontForge (http://fontforge.org)"
Version: 001.000
ItalicAngle: 0
UnderlinePosition: -100
UnderlineWidth: 50
Ascent: 833
Descent: 278
InvalidEm: 0
LayerCount: 2
Layer: 0 0 "Back" 1
Layer: 1 0 "Fore" 0
XUID: [1021 825 -329027470 6401015]
StyleMap: 0x0020
FSType: 0
OS2Version: 0
OS2_WeightWidthSlopeOnly: 0
OS2_UseTypoMetrics: 1
CreationTime: 1640107857
ModificationTime: 1640107857
PfmFamily: 48
TTFWeight: 700
TTFWidth: 5
LineGap: 0
VLineGap: 100
Panose: 2 0 8 9 0 0 0 0 0 0
OS2TypoAscent: 833
OS2TypoAOffset: 0
OS2TypoDescent: -278
OS2TypoDOffset: 0
OS2TypoLinegap: 0
OS2WinAscent: 833
OS2WinAOffset: 0
OS2WinDescent: 278
OS2WinDOffset: 0
HheadAscent: 833
HheadAOffset: 0
HheadDescent: -278
HheadDOffset: 0
OS2SubXSize: 722
OS2SubYSize: 777
OS2SubXOff: 0
OS2SubYOff: 155
OS2SupXSize: 722
OS2SupYSize: 777
OS2SupXOff: 0
OS2SupYOff: 533
OS2StrikeYSize: 55
OS2StrikeYPos: 287
OS2Vendor: 'PfEd'
DEI: 91125
Encoding: UnicodeBmp
UnicodeInterp: none
NameList: AGL For New Fonts
DisplaySize: 18
AntiAlias: 1
FitToEm: 0
BeginChars: 65536 202

StartChar: exclam
Encoding: 33 33 1
Width: 679
Flags: HW
LayerCount: 2
Back
Fore
SplineSet
247 617 m 1
 247 679 l 1
 432 679 l 1
 432 617 l 1
 247 617 l 1
247 556 m 1
 247 617 l 1
 432 617 l 1
 432 556 l 1
 247 556 l 1
247 494 m 1
 247 556 l 1
 432 556 l 1
 432 494 l 1
 247 494 l 1
247 432 m 1
 247 494 l 1
 432 494 l 1
 432 432 l 1
 247 432 l 1
247 370 m 1
 247 432 l 1
 432 432 l 1
 432 370 l 1
 247 370 l 1
247 309 m 1
 247 370 l 1
 432 370 l 1
 432 309 l 1
 247 309 l 1
247 247 m 1
 247 309 l 1
 432 309 l 1
 432 247 l 1
 247 247 l 1
247 123 m 1
 247 185 l 1
 432 185 l 1
 432 123 l 1
 247 123 l 1
185 62 m 1
 185 123 l 1
 494 123 l 1
 494 62 l 1
 185 62 l 1
247 0 m 1
 247 62 l 1
 432 62 l 1
 432 0 l 1
 247 0 l 1
EndSplineSet
EndChar

StartChar: quotedbl
Encoding: 34 34 2
Width: 679
Flags: HW
LayerCount: 2
Back
Fore
SplineSet
185 741 m 1
 185 802 l 1
 309 802 l 1
 309 741 l 1
 185 741 l 1
432 741 m 1
 432 802 l 1
 556 802 l 1
 556 741 l 1
 432 741 l 1
185 679 m 1
 185 741 l 1
 309 741 l 1
 309 679 l 1
 185 679 l 1
432 679 m 1
 432 741 l 1
 556 741 l 1
 556 679 l 1
 432 679 l 1
185 617 m 1
 185 679 l 1
 309 679 l 1
 309 617 l 1
 185 617 l 1
432 617 m 1
 432 679 l 1
 556 679 l 1
 556 617 l 1
 432 617 l 1
185 556 m 1
 185 617 l 1
 309 617 l 1
 309 556 l 1
 185 556 l 1
432 556 m 1
 432 617 l 1
 556 617 l 1
 556 556 l 1
 432 556 l 1
185 494 m 1
 185 556 l 1
 309 556 l 1
 309 494 l 1
 185 494 l 1
432 494 m 1
 432 556 l 1
 556 556 l 1
 556 494 l 1
 432 494 l 1
EndSplineSet
EndChar

StartChar: numbersign
Encoding: 35 35 3
Width: 679
Flags: HW
LayerCount: 2
Back
Fore
SplineSet
123 617 m 1
 123 679 l 1
 309 679 l 1
 309 617 l 1
 123 617 l 1
432 617 m 1
 432 679 l 1
 617 679 l 1
 617 617 l 1
 432 617 l 1
123 556 m 1
 123 617 l 1
 309 617 l 1
 309 556 l 1
 123 556 l 1
432 556 m 1
 432 617 l 1
 617 617 l 1
 617 556 l 1
 432 556 l 1
123 494 m 1
 123 556 l 1
 309 556 l 1
 309 494 l 1
 123 494 l 1
432 494 m 1
 432 556 l 1
 617 556 l 1
 617 494 l 1
 432 494 l 1
123 432 m 1
 123 494 l 1
 309 494 l 1
 309 432 l 1
 123 432 l 1
432 432 m 1
 432 494 l 1
 617 494 l 1
 617 432 l 1
 432 432 l 1
0 370 m 1
 0 432 l 1
 679 432 l 1
 679 370 l 1
 0 370 l 1
0 309 m 1
 0 370 l 1
 679 370 l 1
 679 309 l 1
 0 309 l 1
123 247 m 1
 123 309 l 1
 309 309 l 1
 309 247 l 1
 123 247 l 1
432 247 m 1
 432 309 l 1
 617 309 l 1
 617 247 l 1
 432 247 l 1
123 185 m 1
 123 247 l 1
 309 247 l 1
 309 185 l 1
 123 185 l 1
432 185 m 1
 432 247 l 1
 617 247 l 1
 617 185 l 1
 432 185 l 1
0 123 m 1
 0 185 l 1
 679 185 l 1
 679 123 l 1
 0 123 l 1
0 62 m 1
 0 123 l 1
 679 123 l 1
 679 62 l 1
 0 62 l 1
123 0 m 1
 123 62 l 1
 309 62 l 1
 309 0 l 1
 123 0 l 1
432 0 m 1
 432 62 l 1
 617 62 l 1
 617 0 l 1
 432 0 l 1
123 -62 m 1
 123 0 l 1
 309 0 l 1
 309 -62 l 1
 123 -62 l 1
432 -62 m 1
 432 0 l 1
 617 0 l 1
 617 -62 l 1
 432 -62 l 1
123 -123 m 1
 123 -62 l 1
 309 -62 l 1
 309 -123 l 1
 123 -123 l 1
432 -123 m 1
 432 -62 l 1
 617 -62 l 1
 617 -123 l 1
 432 -123 l 1
123 -185 m 1
 123 -123 l 1
 309 -123 l 1
 309 -185 l 1
 123 -185 l 1
432 -185 m 1
 432 -123 l 1
 617 -123 l 1
 617 -185 l 1
 432 -185 l 1
EndSplineSet
EndChar

StartChar: dollar
Encoding: 36 36 4
Width: 679
Flags: HW
LayerCount: 2
Back
Fore
SplineSet
309 741 m 1
 309 802 l 1
 432 802 l 1
 432 741 l 1
 309 741 l 1
309 679 m 1
 309 741 l 1
 432 741 l 1
 432 679 l 1
 309 679 l 1
185 617 m 1
 185 679 l 1
 432 679 l 1
 432 617 l 1
 185 617 l 1
494 617 m 1
 494 679 l 1
 617 679 l 1
 617 617 l 1
 494 617 l 1
123 556 m 1
 123 617 l 1
 617 617 l 1
 617 556 l 1
 123 556 l 1
62 494 m 1
 62 556 l 1
 247 556 l 1
 247 494 l 1
 62 494 l 1
432 494 m 1
 432 556 l 1
 617 556 l 1
 617 494 l 1
 432 494 l 1
62 432 m 1
 62 494 l 1
 247 494 l 1
 247 432 l 1
 62 432 l 1
494 432 m 1
 494 494 l 1
 617 494 l 1
 617 432 l 1
 494 432 l 1
62 370 m 1
 62 432 l 1
 370 432 l 1
 370 370 l 1
 62 370 l 1
123 309 m 1
 123 370 l 1
 494 370 l 1
 494 309 l 1
 123 309 l 1
309 247 m 1
 309 309 l 1
 617 309 l 1
 617 247 l 1
 309 247 l 1
62 185 m 1
 62 247 l 1
 185 247 l 1
 185 185 l 1
 62 185 l 1
432 185 m 1
 432 247 l 1
 617 247 l 1
 617 185 l 1
 432 185 l 1
62 123 m 1
 62 185 l 1
 247 185 l 1
 247 123 l 1
 62 123 l 1
432 123 m 1
 432 185 l 1
 617 185 l 1
 617 123 l 1
 432 123 l 1
62 62 m 1
 62 123 l 1
 617 123 l 1
 617 62 l 1
 62 62 l 1
62 0 m 1
 62 62 l 1
 185 62 l 1
 185 0 l 1
 62 0 l 1
247 0 m 1
 247 62 l 1
 556 62 l 1
 556 0 l 1
 247 0 l 1
247 -62 m 1
 247 0 l 1
 370 0 l 1
 370 -62 l 1
 247 -62 l 1
247 -123 m 1
 247 -62 l 1
 370 -62 l 1
 370 -123 l 1
 247 -123 l 1
247 -185 m 1
 247 -123 l 1
 370 -123 l 1
 370 -185 l 1
 247 -185 l 1
EndSplineSet
EndChar

StartChar: percent
Encoding: 37 37 5
Width: 679
Flags: HW
LayerCount: 2
Back
Fore
SplineSet
123 617 m 1
 123 679 l 1
 370 679 l 1
 370 617 l 1
 123 617 l 1
62 556 m 1
 62 617 l 1
 432 617 l 1
 432 556 l 1
 62 556 l 1
62 494 m 1
 62 556 l 1
 185 556 l 1
 185 494 l 1
 62 494 l 1
309 494 m 1
 309 556 l 1
 432 556 l 1
 432 494 l 1
 309 494 l 1
62 432 m 1
 62 494 l 1
 432 494 l 1
 432 432 l 1
 62 432 l 1
556 432 m 1
 556 494 l 1
 679 494 l 1
 679 432 l 1
 556 432 l 1
123 370 m 1
 123 432 l 1
 370 432 l 1
 370 370 l 1
 123 370 l 1
432 370 m 1
 432 432 l 1
 617 432 l 1
 617 370 l 1
 432 370 l 1
309 309 m 1
 309 370 l 1
 432 370 l 1
 432 309 l 1
 309 309 l 1
123 247 m 1
 123 309 l 1
 309 309 l 1
 309 247 l 1
 123 247 l 1
370 247 m 1
 370 309 l 1
 617 309 l 1
 617 247 l 1
 370 247 l 1
62 185 m 1
 62 247 l 1
 185 247 l 1
 185 185 l 1
 62 185 l 1
309 185 m 1
 309 247 l 1
 679 247 l 1
 679 185 l 1
 309 185 l 1
309 123 m 1
 309 185 l 1
 432 185 l 1
 432 123 l 1
 309 123 l 1
556 123 m 1
 556 185 l 1
 679 185 l 1
 679 123 l 1
 556 123 l 1
309 62 m 1
 309 123 l 1
 679 123 l 1
 679 62 l 1
 309 62 l 1
370 0 m 1
 370 62 l 1
 617 62 l 1
 617 0 l 1
 370 0 l 1
EndSplineSet
EndChar

StartChar: ampersand
Encoding: 38 38 6
Width: 679
Flags: HW
LayerCount: 2
Back
Fore
SplineSet
185 617 m 1
 185 679 l 1
 432 679 l 1
 432 617 l 1
 185 617 l 1
494 617 m 1
 494 679 l 1
 556 679 l 1
 556 617 l 1
 494 617 l 1
123 556 m 1
 123 617 l 1
 556 617 l 1
 556 556 l 1
 123 556 l 1
123 494 m 1
 123 556 l 1
 309 556 l 1
 309 494 l 1
 123 494 l 1
432 494 m 1
 432 556 l 1
 556 556 l 1
 556 494 l 1
 432 494 l 1
123 432 m 1
 123 494 l 1
 309 494 l 1
 309 432 l 1
 123 432 l 1
185 370 m 1
 185 432 l 1
 370 432 l 1
 370 370 l 1
 185 370 l 1
494 370 m 1
 494 432 l 1
 617 432 l 1
 617 370 l 1
 494 370 l 1
123 309 m 1
 123 370 l 1
 432 370 l 1
 432 309 l 1
 123 309 l 1
494 309 m 1
 494 370 l 1
 617 370 l 1
 617 309 l 1
 494 309 l 1
62 247 m 1
 62 309 l 1
 247 309 l 1
 247 247 l 1
 62 247 l 1
309 247 m 1
 309 309 l 1
 556 309 l 1
 556 247 l 1
 309 247 l 1
62 185 m 1
 62 247 l 1
 247 247 l 1
 247 185 l 1
 62 185 l 1
309 185 m 1
 309 247 l 1
 556 247 l 1
 556 185 l 1
 309 185 l 1
62 123 m 1
 62 185 l 1
 247 185 l 1
 247 123 l 1
 62 123 l 1
370 123 m 1
 370 185 l 1
 556 185 l 1
 556 123 l 1
 370 123 l 1
62 62 m 1
 62 123 l 1
 617 123 l 1
 617 62 l 1
 62 62 l 1
123 0 m 1
 123 62 l 1
 432 62 l 1
 432 0 l 1
 123 0 l 1
494 0 m 1
 494 62 l 1
 617 62 l 1
 617 0 l 1
 494 0 l 1
EndSplineSet
EndChar

StartChar: parenleft
Encoding: 40 40 8
Width: 679
Flags: HW
LayerCount: 2
Back
Fore
SplineSet
432 679 m 1
 432 741 l 1
 556 741 l 1
 556 679 l 1
 432 679 l 1
370 617 m 1
 370 679 l 1
 494 679 l 1
 494 617 l 1
 370 617 l 1
309 556 m 1
 309 617 l 1
 494 617 l 1
 494 556 l 1
 309 556 l 1
247 494 m 1
 247 556 l 1
 432 556 l 1
 432 494 l 1
 247 494 l 1
247 432 m 1
 247 494 l 1
 432 494 l 1
 432 432 l 1
 247 432 l 1
185 370 m 1
 185 432 l 1
 370 432 l 1
 370 370 l 1
 185 370 l 1
185 309 m 1
 185 370 l 1
 370 370 l 1
 370 309 l 1
 185 309 l 1
185 247 m 1
 185 309 l 1
 370 309 l 1
 370 247 l 1
 185 247 l 1
185 185 m 1
 185 247 l 1
 370 247 l 1
 370 185 l 1
 185 185 l 1
185 123 m 1
 185 185 l 1
 370 185 l 1
 370 123 l 1
 185 123 l 1
185 62 m 1
 185 123 l 1
 370 123 l 1
 370 62 l 1
 185 62 l 1
247 0 m 1
 247 62 l 1
 432 62 l 1
 432 0 l 1
 247 0 l 1
247 -62 m 1
 247 0 l 1
 432 0 l 1
 432 -62 l 1
 247 -62 l 1
309 -123 m 1
 309 -62 l 1
 494 -62 l 1
 494 -123 l 1
 309 -123 l 1
370 -185 m 1
 370 -123 l 1
 494 -123 l 1
 494 -185 l 1
 370 -185 l 1
432 -247 m 1
 432 -185 l 1
 556 -185 l 1
 556 -247 l 1
 432 -247 l 1
EndSplineSet
EndChar

StartChar: parenright
Encoding: 41 41 9
Width: 679
Flags: HW
LayerCount: 2
Back
Fore
SplineSet
185 679 m 1
 185 741 l 1
 309 741 l 1
 309 679 l 1
 185 679 l 1
247 617 m 1
 247 679 l 1
 370 679 l 1
 370 617 l 1
 247 617 l 1
247 556 m 1
 247 617 l 1
 432 617 l 1
 432 556 l 1
 247 556 l 1
309 494 m 1
 309 556 l 1
 494 556 l 1
 494 494 l 1
 309 494 l 1
309 432 m 1
 309 494 l 1
 494 494 l 1
 494 432 l 1
 309 432 l 1
370 370 m 1
 370 432 l 1
 556 432 l 1
 556 370 l 1
 370 370 l 1
370 309 m 1
 370 370 l 1
 556 370 l 1
 556 309 l 1
 370 309 l 1
370 247 m 1
 370 309 l 1
 556 309 l 1
 556 247 l 1
 370 247 l 1
370 185 m 1
 370 247 l 1
 556 247 l 1
 556 185 l 1
 370 185 l 1
370 123 m 1
 370 185 l 1
 556 185 l 1
 556 123 l 1
 370 123 l 1
370 62 m 1
 370 123 l 1
 556 123 l 1
 556 62 l 1
 370 62 l 1
309 0 m 1
 309 62 l 1
 494 62 l 1
 494 0 l 1
 309 0 l 1
309 -62 m 1
 309 0 l 1
 494 0 l 1
 494 -62 l 1
 309 -62 l 1
247 -123 m 1
 247 -62 l 1
 432 -62 l 1
 432 -123 l 1
 247 -123 l 1
247 -185 m 1
 247 -123 l 1
 370 -123 l 1
 370 -185 l 1
 247 -185 l 1
185 -247 m 1
 185 -185 l 1
 309 -185 l 1
 309 -247 l 1
 185 -247 l 1
EndSplineSet
EndChar

StartChar: asterisk
Encoding: 42 42 10
Width: 679
Flags: HW
LayerCount: 2
Back
Fore
SplineSet
309 494 m 1
 309 556 l 1
 370 556 l 1
 370 494 l 1
 309 494 l 1
247 432 m 1
 247 494 l 1
 432 494 l 1
 432 432 l 1
 247 432 l 1
62 370 m 1
 62 432 l 1
 185 432 l 1
 185 370 l 1
 62 370 l 1
247 370 m 1
 247 432 l 1
 432 432 l 1
 432 370 l 1
 247 370 l 1
494 370 m 1
 494 432 l 1
 617 432 l 1
 617 370 l 1
 494 370 l 1
62 309 m 1
 62 370 l 1
 617 370 l 1
 617 309 l 1
 62 309 l 1
185 247 m 1
 185 309 l 1
 494 309 l 1
 494 247 l 1
 185 247 l 1
123 185 m 1
 123 247 l 1
 309 247 l 1
 309 185 l 1
 123 185 l 1
370 185 m 1
 370 247 l 1
 556 247 l 1
 556 185 l 1
 370 185 l 1
123 123 m 1
 123 185 l 1
 247 185 l 1
 247 123 l 1
 123 123 l 1
432 123 m 1
 432 185 l 1
 556 185 l 1
 556 123 l 1
 432 123 l 1
EndSplineSet
EndChar

StartChar: plus
Encoding: 43 43 11
Width: 679
Flags: HW
LayerCount: 2
Back
Fore
SplineSet
247 556 m 1
 247 617 l 1
 432 617 l 1
 432 556 l 1
 247 556 l 1
247 494 m 1
 247 556 l 1
 432 556 l 1
 432 494 l 1
 247 494 l 1
247 432 m 1
 247 494 l 1
 432 494 l 1
 432 432 l 1
 247 432 l 1
247 370 m 1
 247 432 l 1
 432 432 l 1
 432 370 l 1
 247 370 l 1
62 309 m 1
 62 370 l 1
 617 370 l 1
 617 309 l 1
 62 309 l 1
62 247 m 1
 62 309 l 1
 617 309 l 1
 617 247 l 1
 62 247 l 1
247 185 m 1
 247 247 l 1
 432 247 l 1
 432 185 l 1
 247 185 l 1
247 123 m 1
 247 185 l 1
 432 185 l 1
 432 123 l 1
 247 123 l 1
247 62 m 1
 247 123 l 1
 432 123 l 1
 432 62 l 1
 247 62 l 1
247 0 m 1
 247 62 l 1
 432 62 l 1
 432 0 l 1
 247 0 l 1
EndSplineSet
EndChar

StartChar: comma
Encoding: 44 44 12
Width: 679
Flags: HW
LayerCount: 2
Back
Fore
SplineSet
247 123 m 1
 247 185 l 1
 494 185 l 1
 494 123 l 1
 247 123 l 1
247 62 m 1
 247 123 l 1
 432 123 l 1
 432 62 l 1
 247 62 l 1
247 0 m 1
 247 62 l 1
 432 62 l 1
 432 0 l 1
 247 0 l 1
185 -62 m 1
 185 0 l 1
 370 0 l 1
 370 -62 l 1
 185 -62 l 1
185 -123 m 1
 185 -62 l 1
 370 -62 l 1
 370 -123 l 1
 185 -123 l 1
185 -185 m 1
 185 -123 l 1
 309 -123 l 1
 309 -185 l 1
 185 -185 l 1
EndSplineSet
EndChar

StartChar: period
Encoding: 46 46 14
Width: 679
Flags: HW
LayerCount: 2
Back
Fore
SplineSet
309 185 m 1
 309 247 l 1
 432 247 l 1
 432 185 l 1
 309 185 l 1
247 123 m 1
 247 185 l 1
 494 185 l 1
 494 123 l 1
 247 123 l 1
247 62 m 1
 247 123 l 1
 494 123 l 1
 494 62 l 1
 247 62 l 1
309 0 m 1
 309 62 l 1
 432 62 l 1
 432 0 l 1
 309 0 l 1
EndSplineSet
EndChar

StartChar: slash
Encoding: 47 47 15
Width: 679
Flags: HW
LayerCount: 2
Back
Fore
SplineSet
494 679 m 1
 494 741 l 1
 617 741 l 1
 617 679 l 1
 494 679 l 1
432 617 m 1
 432 679 l 1
 617 679 l 1
 617 617 l 1
 432 617 l 1
432 556 m 1
 432 617 l 1
 556 617 l 1
 556 556 l 1
 432 556 l 1
370 494 m 1
 370 556 l 1
 556 556 l 1
 556 494 l 1
 370 494 l 1
370 432 m 1
 370 494 l 1
 494 494 l 1
 494 432 l 1
 370 432 l 1
309 370 m 1
 309 432 l 1
 494 432 l 1
 494 370 l 1
 309 370 l 1
309 309 m 1
 309 370 l 1
 432 370 l 1
 432 309 l 1
 309 309 l 1
309 247 m 1
 309 309 l 1
 432 309 l 1
 432 247 l 1
 309 247 l 1
247 185 m 1
 247 247 l 1
 432 247 l 1
 432 185 l 1
 247 185 l 1
247 123 m 1
 247 185 l 1
 370 185 l 1
 370 123 l 1
 247 123 l 1
185 62 m 1
 185 123 l 1
 370 123 l 1
 370 62 l 1
 185 62 l 1
185 0 m 1
 185 62 l 1
 309 62 l 1
 309 0 l 1
 185 0 l 1
123 -62 m 1
 123 0 l 1
 309 0 l 1
 309 -62 l 1
 123 -62 l 1
123 -123 m 1
 123 -62 l 1
 247 -62 l 1
 247 -123 l 1
 123 -123 l 1
EndSplineSet
EndChar

StartChar: zero
Encoding: 48 48 16
Width: 679
Flags: HW
LayerCount: 2
Back
Fore
SplineSet
247 617 m 1
 247 679 l 1
 432 679 l 1
 432 617 l 1
 247 617 l 1
185 556 m 1
 185 617 l 1
 494 617 l 1
 494 556 l 1
 185 556 l 1
123 494 m 1
 123 556 l 1
 309 556 l 1
 309 494 l 1
 123 494 l 1
370 494 m 1
 370 556 l 1
 556 556 l 1
 556 494 l 1
 370 494 l 1
62 432 m 1
 62 494 l 1
 247 494 l 1
 247 432 l 1
 62 432 l 1
432 432 m 1
 432 494 l 1
 617 494 l 1
 617 432 l 1
 432 432 l 1
62 370 m 1
 62 432 l 1
 247 432 l 1
 247 370 l 1
 62 370 l 1
432 370 m 1
 432 432 l 1
 617 432 l 1
 617 370 l 1
 432 370 l 1
62 309 m 1
 62 370 l 1
 247 370 l 1
 247 309 l 1
 62 309 l 1
432 309 m 1
 432 370 l 1
 617 370 l 1
 617 309 l 1
 432 309 l 1
62 247 m 1
 62 309 l 1
 247 309 l 1
 247 247 l 1
 62 247 l 1
432 247 m 1
 432 309 l 1
 617 309 l 1
 617 247 l 1
 432 247 l 1
62 185 m 1
 62 247 l 1
 247 247 l 1
 247 185 l 1
 62 185 l 1
432 185 m 1
 432 247 l 1
 617 247 l 1
 617 185 l 1
 432 185 l 1
123 123 m 1
 123 185 l 1
 309 185 l 1
 309 123 l 1
 123 123 l 1
370 123 m 1
 370 185 l 1
 556 185 l 1
 556 123 l 1
 370 123 l 1
185 62 m 1
 185 123 l 1
 494 123 l 1
 494 62 l 1
 185 62 l 1
247 0 m 1
 247 62 l 1
 432 62 l 1
 432 0 l 1
 247 0 l 1
EndSplineSet
EndChar

StartChar: one
Encoding: 49 49 17
Width: 679
Flags: HW
LayerCount: 2
Back
Fore
SplineSet
247 617 m 1
 247 679 l 1
 432 679 l 1
 432 617 l 1
 247 617 l 1
185 556 m 1
 185 617 l 1
 432 617 l 1
 432 556 l 1
 185 556 l 1
123 494 m 1
 123 556 l 1
 432 556 l 1
 432 494 l 1
 123 494 l 1
123 432 m 1
 123 494 l 1
 185 494 l 1
 185 432 l 1
 123 432 l 1
247 432 m 1
 247 494 l 1
 432 494 l 1
 432 432 l 1
 247 432 l 1
247 370 m 1
 247 432 l 1
 432 432 l 1
 432 370 l 1
 247 370 l 1
247 309 m 1
 247 370 l 1
 432 370 l 1
 432 309 l 1
 247 309 l 1
247 247 m 1
 247 309 l 1
 432 309 l 1
 432 247 l 1
 247 247 l 1
247 185 m 1
 247 247 l 1
 432 247 l 1
 432 185 l 1
 247 185 l 1
247 123 m 1
 247 185 l 1
 432 185 l 1
 432 123 l 1
 247 123 l 1
123 62 m 1
 123 123 l 1
 556 123 l 1
 556 62 l 1
 123 62 l 1
123 0 m 1
 123 62 l 1
 556 62 l 1
 556 0 l 1
 123 0 l 1
EndSplineSet
EndChar

StartChar: two
Encoding: 50 50 18
Width: 679
Flags: HW
LayerCount: 2
Back
Fore
SplineSet
185 617 m 1
 185 679 l 1
 432 679 l 1
 432 617 l 1
 185 617 l 1
62 556 m 1
 62 617 l 1
 556 617 l 1
 556 556 l 1
 62 556 l 1
62 494 m 1
 62 556 l 1
 247 556 l 1
 247 494 l 1
 62 494 l 1
370 494 m 1
 370 556 l 1
 556 556 l 1
 556 494 l 1
 370 494 l 1
62 432 m 1
 62 494 l 1
 185 494 l 1
 185 432 l 1
 62 432 l 1
370 432 m 1
 370 494 l 1
 556 494 l 1
 556 432 l 1
 370 432 l 1
370 370 m 1
 370 432 l 1
 556 432 l 1
 556 370 l 1
 370 370 l 1
309 309 m 1
 309 370 l 1
 494 370 l 1
 494 309 l 1
 309 309 l 1
247 247 m 1
 247 309 l 1
 432 309 l 1
 432 247 l 1
 247 247 l 1
185 185 m 1
 185 247 l 1
 370 247 l 1
 370 185 l 1
 185 185 l 1
123 123 m 1
 123 185 l 1
 309 185 l 1
 309 123 l 1
 123 123 l 1
432 123 m 1
 432 185 l 1
 556 185 l 1
 556 123 l 1
 432 123 l 1
62 62 m 1
 62 123 l 1
 556 123 l 1
 556 62 l 1
 62 62 l 1
62 0 m 1
 62 62 l 1
 556 62 l 1
 556 0 l 1
 62 0 l 1
EndSplineSet
EndChar

StartChar: three
Encoding: 51 51 19
Width: 679
Flags: HW
LayerCount: 2
Back
Fore
SplineSet
185 617 m 1
 185 679 l 1
 432 679 l 1
 432 617 l 1
 185 617 l 1
62 556 m 1
 62 617 l 1
 556 617 l 1
 556 556 l 1
 62 556 l 1
62 494 m 1
 62 556 l 1
 185 556 l 1
 185 494 l 1
 62 494 l 1
370 494 m 1
 370 556 l 1
 556 556 l 1
 556 494 l 1
 370 494 l 1
370 432 m 1
 370 494 l 1
 556 494 l 1
 556 432 l 1
 370 432 l 1
247 370 m 1
 247 432 l 1
 494 432 l 1
 494 370 l 1
 247 370 l 1
247 309 m 1
 247 370 l 1
 494 370 l 1
 494 309 l 1
 247 309 l 1
370 247 m 1
 370 309 l 1
 556 309 l 1
 556 247 l 1
 370 247 l 1
370 185 m 1
 370 247 l 1
 556 247 l 1
 556 185 l 1
 370 185 l 1
62 123 m 1
 62 185 l 1
 185 185 l 1
 185 123 l 1
 62 123 l 1
370 123 m 1
 370 185 l 1
 556 185 l 1
 556 123 l 1
 370 123 l 1
62 62 m 1
 62 123 l 1
 556 123 l 1
 556 62 l 1
 62 62 l 1
123 0 m 1
 123 62 l 1
 432 62 l 1
 432 0 l 1
 123 0 l 1
EndSplineSet
EndChar

StartChar: four
Encoding: 52 52 20
Width: 679
Flags: HW
LayerCount: 2
Back
Fore
SplineSet
309 617 m 1
 309 679 l 1
 556 679 l 1
 556 617 l 1
 309 617 l 1
247 556 m 1
 247 617 l 1
 556 617 l 1
 556 556 l 1
 247 556 l 1
185 494 m 1
 185 556 l 1
 556 556 l 1
 556 494 l 1
 185 494 l 1
185 432 m 1
 185 494 l 1
 309 494 l 1
 309 432 l 1
 185 432 l 1
370 432 m 1
 370 494 l 1
 556 494 l 1
 556 432 l 1
 370 432 l 1
123 370 m 1
 123 432 l 1
 247 432 l 1
 247 370 l 1
 123 370 l 1
370 370 m 1
 370 432 l 1
 556 432 l 1
 556 370 l 1
 370 370 l 1
62 309 m 1
 62 370 l 1
 247 370 l 1
 247 309 l 1
 62 309 l 1
370 309 m 1
 370 370 l 1
 556 370 l 1
 556 309 l 1
 370 309 l 1
62 247 m 1
 62 309 l 1
 617 309 l 1
 617 247 l 1
 62 247 l 1
62 185 m 1
 62 247 l 1
 617 247 l 1
 617 185 l 1
 62 185 l 1
370 123 m 1
 370 185 l 1
 556 185 l 1
 556 123 l 1
 370 123 l 1
370 62 m 1
 370 123 l 1
 556 123 l 1
 556 62 l 1
 370 62 l 1
370 0 m 1
 370 62 l 1
 556 62 l 1
 556 0 l 1
 370 0 l 1
EndSplineSet
EndChar

StartChar: five
Encoding: 53 53 21
Width: 679
Flags: HW
LayerCount: 2
Back
Fore
SplineSet
123 617 m 1
 123 679 l 1
 617 679 l 1
 617 617 l 1
 123 617 l 1
123 556 m 1
 123 617 l 1
 617 617 l 1
 617 556 l 1
 123 556 l 1
123 494 m 1
 123 556 l 1
 309 556 l 1
 309 494 l 1
 123 494 l 1
123 432 m 1
 123 494 l 1
 309 494 l 1
 309 432 l 1
 123 432 l 1
123 370 m 1
 123 432 l 1
 556 432 l 1
 556 370 l 1
 123 370 l 1
123 309 m 1
 123 370 l 1
 617 370 l 1
 617 309 l 1
 123 309 l 1
123 247 m 1
 123 309 l 1
 247 309 l 1
 247 247 l 1
 123 247 l 1
432 247 m 1
 432 309 l 1
 617 309 l 1
 617 247 l 1
 432 247 l 1
432 185 m 1
 432 247 l 1
 617 247 l 1
 617 185 l 1
 432 185 l 1
123 123 m 1
 123 185 l 1
 247 185 l 1
 247 123 l 1
 123 123 l 1
432 123 m 1
 432 185 l 1
 617 185 l 1
 617 123 l 1
 432 123 l 1
123 62 m 1
 123 123 l 1
 617 123 l 1
 617 62 l 1
 123 62 l 1
185 0 m 1
 185 62 l 1
 556 62 l 1
 556 0 l 1
 185 0 l 1
EndSplineSet
EndChar

StartChar: six
Encoding: 54 54 22
Width: 679
Flags: HW
LayerCount: 2
Back
Fore
SplineSet
247 617 m 1
 247 679 l 1
 556 679 l 1
 556 617 l 1
 247 617 l 1
123 556 m 1
 123 617 l 1
 556 617 l 1
 556 556 l 1
 123 556 l 1
123 494 m 1
 123 556 l 1
 309 556 l 1
 309 494 l 1
 123 494 l 1
62 432 m 1
 62 494 l 1
 247 494 l 1
 247 432 l 1
 62 432 l 1
62 370 m 1
 62 432 l 1
 247 432 l 1
 247 370 l 1
 62 370 l 1
309 370 m 1
 309 432 l 1
 494 432 l 1
 494 370 l 1
 309 370 l 1
62 309 m 1
 62 370 l 1
 556 370 l 1
 556 309 l 1
 62 309 l 1
62 247 m 1
 62 309 l 1
 247 309 l 1
 247 247 l 1
 62 247 l 1
432 247 m 1
 432 309 l 1
 617 309 l 1
 617 247 l 1
 432 247 l 1
62 185 m 1
 62 247 l 1
 247 247 l 1
 247 185 l 1
 62 185 l 1
432 185 m 1
 432 247 l 1
 617 247 l 1
 617 185 l 1
 432 185 l 1
62 123 m 1
 62 185 l 1
 247 185 l 1
 247 123 l 1
 62 123 l 1
432 123 m 1
 432 185 l 1
 617 185 l 1
 617 123 l 1
 432 123 l 1
123 62 m 1
 123 123 l 1
 556 123 l 1
 556 62 l 1
 123 62 l 1
185 0 m 1
 185 62 l 1
 494 62 l 1
 494 0 l 1
 185 0 l 1
EndSplineSet
EndChar

StartChar: seven
Encoding: 55 55 23
Width: 679
Flags: HW
LayerCount: 2
Back
Fore
SplineSet
62 617 m 1
 62 679 l 1
 617 679 l 1
 617 617 l 1
 62 617 l 1
62 556 m 1
 62 617 l 1
 617 617 l 1
 617 556 l 1
 62 556 l 1
62 494 m 1
 62 556 l 1
 185 556 l 1
 185 494 l 1
 62 494 l 1
432 494 m 1
 432 556 l 1
 617 556 l 1
 617 494 l 1
 432 494 l 1
370 432 m 1
 370 494 l 1
 556 494 l 1
 556 432 l 1
 370 432 l 1
370 370 m 1
 370 432 l 1
 556 432 l 1
 556 370 l 1
 370 370 l 1
309 309 m 1
 309 370 l 1
 494 370 l 1
 494 309 l 1
 309 309 l 1
309 247 m 1
 309 309 l 1
 494 309 l 1
 494 247 l 1
 309 247 l 1
247 185 m 1
 247 247 l 1
 432 247 l 1
 432 185 l 1
 247 185 l 1
247 123 m 1
 247 185 l 1
 432 185 l 1
 432 123 l 1
 247 123 l 1
185 62 m 1
 185 123 l 1
 370 123 l 1
 370 62 l 1
 185 62 l 1
185 0 m 1
 185 62 l 1
 370 62 l 1
 370 0 l 1
 185 0 l 1
EndSplineSet
EndChar

StartChar: eight
Encoding: 56 56 24
Width: 679
Flags: HW
LayerCount: 2
Back
Fore
SplineSet
185 617 m 1
 185 679 l 1
 494 679 l 1
 494 617 l 1
 185 617 l 1
123 556 m 1
 123 617 l 1
 556 617 l 1
 556 556 l 1
 123 556 l 1
62 494 m 1
 62 556 l 1
 247 556 l 1
 247 494 l 1
 62 494 l 1
432 494 m 1
 432 556 l 1
 617 556 l 1
 617 494 l 1
 432 494 l 1
62 432 m 1
 62 494 l 1
 247 494 l 1
 247 432 l 1
 62 432 l 1
432 432 m 1
 432 494 l 1
 617 494 l 1
 617 432 l 1
 432 432 l 1
123 370 m 1
 123 432 l 1
 556 432 l 1
 556 370 l 1
 123 370 l 1
123 309 m 1
 123 370 l 1
 556 370 l 1
 556 309 l 1
 123 309 l 1
62 247 m 1
 62 309 l 1
 247 309 l 1
 247 247 l 1
 62 247 l 1
432 247 m 1
 432 309 l 1
 617 309 l 1
 617 247 l 1
 432 247 l 1
62 185 m 1
 62 247 l 1
 247 247 l 1
 247 185 l 1
 62 185 l 1
432 185 m 1
 432 247 l 1
 617 247 l 1
 617 185 l 1
 432 185 l 1
62 123 m 1
 62 185 l 1
 247 185 l 1
 247 123 l 1
 62 123 l 1
432 123 m 1
 432 185 l 1
 617 185 l 1
 617 123 l 1
 432 123 l 1
123 62 m 1
 123 123 l 1
 556 123 l 1
 556 62 l 1
 123 62 l 1
185 0 m 1
 185 62 l 1
 494 62 l 1
 494 0 l 1
 185 0 l 1
EndSplineSet
EndChar

StartChar: nine
Encoding: 57 57 25
Width: 679
Flags: HW
LayerCount: 2
Back
Fore
SplineSet
185 617 m 1
 185 679 l 1
 494 679 l 1
 494 617 l 1
 185 617 l 1
123 556 m 1
 123 617 l 1
 556 617 l 1
 556 556 l 1
 123 556 l 1
62 494 m 1
 62 556 l 1
 247 556 l 1
 247 494 l 1
 62 494 l 1
432 494 m 1
 432 556 l 1
 617 556 l 1
 617 494 l 1
 432 494 l 1
62 432 m 1
 62 494 l 1
 247 494 l 1
 247 432 l 1
 62 432 l 1
432 432 m 1
 432 494 l 1
 617 494 l 1
 617 432 l 1
 432 432 l 1
62 370 m 1
 62 432 l 1
 247 432 l 1
 247 370 l 1
 62 370 l 1
432 370 m 1
 432 432 l 1
 617 432 l 1
 617 370 l 1
 432 370 l 1
123 309 m 1
 123 370 l 1
 617 370 l 1
 617 309 l 1
 123 309 l 1
185 247 m 1
 185 309 l 1
 370 309 l 1
 370 247 l 1
 185 247 l 1
432 247 m 1
 432 309 l 1
 617 309 l 1
 617 247 l 1
 432 247 l 1
432 185 m 1
 432 247 l 1
 617 247 l 1
 617 185 l 1
 432 185 l 1
370 123 m 1
 370 185 l 1
 556 185 l 1
 556 123 l 1
 370 123 l 1
123 62 m 1
 123 123 l 1
 556 123 l 1
 556 62 l 1
 123 62 l 1
123 0 m 1
 123 62 l 1
 432 62 l 1
 432 0 l 1
 123 0 l 1
EndSplineSet
EndChar

StartChar: colon
Encoding: 58 58 26
Width: 679
Flags: HW
LayerCount: 2
Back
Fore
SplineSet
309 494 m 1
 309 556 l 1
 432 556 l 1
 432 494 l 1
 309 494 l 1
247 432 m 1
 247 494 l 1
 494 494 l 1
 494 432 l 1
 247 432 l 1
247 370 m 1
 247 432 l 1
 494 432 l 1
 494 370 l 1
 247 370 l 1
309 309 m 1
 309 370 l 1
 432 370 l 1
 432 309 l 1
 309 309 l 1
309 185 m 1
 309 247 l 1
 432 247 l 1
 432 185 l 1
 309 185 l 1
247 123 m 1
 247 185 l 1
 494 185 l 1
 494 123 l 1
 247 123 l 1
247 62 m 1
 247 123 l 1
 494 123 l 1
 494 62 l 1
 247 62 l 1
309 0 m 1
 309 62 l 1
 432 62 l 1
 432 0 l 1
 309 0 l 1
EndSplineSet
EndChar

StartChar: semicolon
Encoding: 59 59 27
Width: 679
Flags: HW
LayerCount: 2
Back
Fore
SplineSet
309 494 m 1
 309 556 l 1
 432 556 l 1
 432 494 l 1
 309 494 l 1
247 432 m 1
 247 494 l 1
 494 494 l 1
 494 432 l 1
 247 432 l 1
247 370 m 1
 247 432 l 1
 494 432 l 1
 494 370 l 1
 247 370 l 1
309 309 m 1
 309 370 l 1
 432 370 l 1
 432 309 l 1
 309 309 l 1
247 123 m 1
 247 185 l 1
 494 185 l 1
 494 123 l 1
 247 123 l 1
247 62 m 1
 247 123 l 1
 432 123 l 1
 432 62 l 1
 247 62 l 1
247 0 m 1
 247 62 l 1
 432 62 l 1
 432 0 l 1
 247 0 l 1
185 -62 m 1
 185 0 l 1
 370 0 l 1
 370 -62 l 1
 185 -62 l 1
185 -123 m 1
 185 -62 l 1
 370 -62 l 1
 370 -123 l 1
 185 -123 l 1
185 -185 m 1
 185 -123 l 1
 309 -123 l 1
 309 -185 l 1
 185 -185 l 1
EndSplineSet
EndChar

StartChar: less
Encoding: 60 60 28
Width: 679
Flags: HW
LayerCount: 2
Back
Fore
SplineSet
494 556 m 1
 494 617 l 1
 617 617 l 1
 617 556 l 1
 494 556 l 1
370 494 m 1
 370 556 l 1
 617 556 l 1
 617 494 l 1
 370 494 l 1
247 432 m 1
 247 494 l 1
 556 494 l 1
 556 432 l 1
 247 432 l 1
123 370 m 1
 123 432 l 1
 432 432 l 1
 432 370 l 1
 123 370 l 1
62 309 m 1
 62 370 l 1
 309 370 l 1
 309 309 l 1
 62 309 l 1
123 247 m 1
 123 309 l 1
 432 309 l 1
 432 247 l 1
 123 247 l 1
247 185 m 1
 247 247 l 1
 556 247 l 1
 556 185 l 1
 247 185 l 1
370 123 m 1
 370 185 l 1
 617 185 l 1
 617 123 l 1
 370 123 l 1
494 62 m 1
 494 123 l 1
 617 123 l 1
 617 62 l 1
 494 62 l 1
EndSplineSet
EndChar

StartChar: equal
Encoding: 61 61 29
Width: 679
Flags: HW
LayerCount: 2
Back
Fore
SplineSet
62 432 m 1
 62 494 l 1
 617 494 l 1
 617 432 l 1
 62 432 l 1
62 370 m 1
 62 432 l 1
 617 432 l 1
 617 370 l 1
 62 370 l 1
62 185 m 1
 62 247 l 1
 617 247 l 1
 617 185 l 1
 62 185 l 1
62 123 m 1
 62 185 l 1
 617 185 l 1
 617 123 l 1
 62 123 l 1
EndSplineSet
EndChar

StartChar: greater
Encoding: 62 62 30
Width: 679
Flags: HW
LayerCount: 2
Back
Fore
SplineSet
62 556 m 1
 62 617 l 1
 185 617 l 1
 185 556 l 1
 62 556 l 1
62 494 m 1
 62 556 l 1
 309 556 l 1
 309 494 l 1
 62 494 l 1
123 432 m 1
 123 494 l 1
 432 494 l 1
 432 432 l 1
 123 432 l 1
247 370 m 1
 247 432 l 1
 556 432 l 1
 556 370 l 1
 247 370 l 1
370 309 m 1
 370 370 l 1
 617 370 l 1
 617 309 l 1
 370 309 l 1
247 247 m 1
 247 309 l 1
 556 309 l 1
 556 247 l 1
 247 247 l 1
123 185 m 1
 123 247 l 1
 432 247 l 1
 432 185 l 1
 123 185 l 1
62 123 m 1
 62 185 l 1
 309 185 l 1
 309 123 l 1
 62 123 l 1
62 62 m 1
 62 123 l 1
 185 123 l 1
 185 62 l 1
 62 62 l 1
EndSplineSet
EndChar

StartChar: question
Encoding: 63 63 31
Width: 679
Flags: HW
LayerCount: 2
Back
Fore
SplineSet
185 617 m 1
 185 679 l 1
 556 679 l 1
 556 617 l 1
 185 617 l 1
123 556 m 1
 123 617 l 1
 617 617 l 1
 617 556 l 1
 123 556 l 1
123 494 m 1
 123 556 l 1
 309 556 l 1
 309 494 l 1
 123 494 l 1
432 494 m 1
 432 556 l 1
 617 556 l 1
 617 494 l 1
 432 494 l 1
432 432 m 1
 432 494 l 1
 617 494 l 1
 617 432 l 1
 432 432 l 1
309 370 m 1
 309 432 l 1
 556 432 l 1
 556 370 l 1
 309 370 l 1
247 309 m 1
 247 370 l 1
 494 370 l 1
 494 309 l 1
 247 309 l 1
247 247 m 1
 247 309 l 1
 432 309 l 1
 432 247 l 1
 247 247 l 1
247 123 m 1
 247 185 l 1
 432 185 l 1
 432 123 l 1
 247 123 l 1
185 62 m 1
 185 123 l 1
 494 123 l 1
 494 62 l 1
 185 62 l 1
247 0 m 1
 247 62 l 1
 432 62 l 1
 432 0 l 1
 247 0 l 1
EndSplineSet
EndChar

StartChar: at
Encoding: 64 64 32
Width: 679
Flags: HW
LayerCount: 2
Back
Fore
SplineSet
247 679 m 1
 247 741 l 1
 494 741 l 1
 494 679 l 1
 247 679 l 1
123 617 m 1
 123 679 l 1
 556 679 l 1
 556 617 l 1
 123 617 l 1
123 556 m 1
 123 617 l 1
 247 617 l 1
 247 556 l 1
 123 556 l 1
432 556 m 1
 432 617 l 1
 617 617 l 1
 617 556 l 1
 432 556 l 1
62 494 m 1
 62 556 l 1
 247 556 l 1
 247 494 l 1
 62 494 l 1
494 494 m 1
 494 556 l 1
 617 556 l 1
 617 494 l 1
 494 494 l 1
62 432 m 1
 62 494 l 1
 185 494 l 1
 185 432 l 1
 62 432 l 1
309 432 m 1
 309 494 l 1
 617 494 l 1
 617 432 l 1
 309 432 l 1
62 370 m 1
 62 432 l 1
 185 432 l 1
 185 370 l 1
 62 370 l 1
247 370 m 1
 247 432 l 1
 617 432 l 1
 617 370 l 1
 247 370 l 1
62 309 m 1
 62 370 l 1
 185 370 l 1
 185 309 l 1
 62 309 l 1
247 309 m 1
 247 370 l 1
 370 370 l 1
 370 309 l 1
 247 309 l 1
494 309 m 1
 494 370 l 1
 617 370 l 1
 617 309 l 1
 494 309 l 1
62 247 m 1
 62 309 l 1
 185 309 l 1
 185 247 l 1
 62 247 l 1
247 247 m 1
 247 309 l 1
 370 309 l 1
 370 247 l 1
 247 247 l 1
494 247 m 1
 494 309 l 1
 617 309 l 1
 617 247 l 1
 494 247 l 1
62 185 m 1
 62 247 l 1
 185 247 l 1
 185 185 l 1
 62 185 l 1
247 185 m 1
 247 247 l 1
 679 247 l 1
 679 185 l 1
 247 185 l 1
62 123 m 1
 62 185 l 1
 185 185 l 1
 185 123 l 1
 62 123 l 1
309 123 m 1
 309 185 l 1
 494 185 l 1
 494 123 l 1
 309 123 l 1
556 123 m 1
 556 185 l 1
 679 185 l 1
 679 123 l 1
 556 123 l 1
62 62 m 1
 62 123 l 1
 247 123 l 1
 247 62 l 1
 62 62 l 1
123 0 m 1
 123 62 l 1
 309 62 l 1
 309 0 l 1
 123 0 l 1
123 -62 m 1
 123 0 l 1
 556 0 l 1
 556 -62 l 1
 123 -62 l 1
247 -123 m 1
 247 -62 l 1
 556 -62 l 1
 556 -123 l 1
 247 -123 l 1
EndSplineSet
EndChar

StartChar: A
Encoding: 65 65 33
Width: 679
Flags: HW
LayerCount: 2
Back
Fore
SplineSet
247 617 m 1
 247 679 l 1
 494 679 l 1
 494 617 l 1
 247 617 l 1
247 556 m 1
 247 617 l 1
 494 617 l 1
 494 556 l 1
 247 556 l 1
247 494 m 1
 247 556 l 1
 494 556 l 1
 494 494 l 1
 247 494 l 1
185 432 m 1
 185 494 l 1
 556 494 l 1
 556 432 l 1
 185 432 l 1
185 370 m 1
 185 432 l 1
 309 432 l 1
 309 370 l 1
 185 370 l 1
432 370 m 1
 432 432 l 1
 556 432 l 1
 556 370 l 1
 432 370 l 1
185 309 m 1
 185 370 l 1
 309 370 l 1
 309 309 l 1
 185 309 l 1
432 309 m 1
 432 370 l 1
 556 370 l 1
 556 309 l 1
 432 309 l 1
123 247 m 1
 123 309 l 1
 617 309 l 1
 617 247 l 1
 123 247 l 1
123 185 m 1
 123 247 l 1
 617 247 l 1
 617 185 l 1
 123 185 l 1
123 123 m 1
 123 185 l 1
 247 185 l 1
 247 123 l 1
 123 123 l 1
494 123 m 1
 494 185 l 1
 617 185 l 1
 617 123 l 1
 494 123 l 1
62 62 m 1
 62 123 l 1
 309 123 l 1
 309 62 l 1
 62 62 l 1
432 62 m 1
 432 123 l 1
 679 123 l 1
 679 62 l 1
 432 62 l 1
62 0 m 1
 62 62 l 1
 309 62 l 1
 309 0 l 1
 62 0 l 1
432 0 m 1
 432 62 l 1
 679 62 l 1
 679 0 l 1
 432 0 l 1
EndSplineSet
EndChar

StartChar: B
Encoding: 66 66 34
Width: 679
Flags: HW
LayerCount: 2
Back
Fore
SplineSet
62 617 m 1
 62 679 l 1
 556 679 l 1
 556 617 l 1
 62 617 l 1
62 556 m 1
 62 617 l 1
 617 617 l 1
 617 556 l 1
 62 556 l 1
123 494 m 1
 123 556 l 1
 309 556 l 1
 309 494 l 1
 123 494 l 1
432 494 m 1
 432 556 l 1
 617 556 l 1
 617 494 l 1
 432 494 l 1
123 432 m 1
 123 494 l 1
 309 494 l 1
 309 432 l 1
 123 432 l 1
432 432 m 1
 432 494 l 1
 617 494 l 1
 617 432 l 1
 432 432 l 1
123 370 m 1
 123 432 l 1
 556 432 l 1
 556 370 l 1
 123 370 l 1
123 309 m 1
 123 370 l 1
 617 370 l 1
 617 309 l 1
 123 309 l 1
123 247 m 1
 123 309 l 1
 309 309 l 1
 309 247 l 1
 123 247 l 1
494 247 m 1
 494 309 l 1
 679 309 l 1
 679 247 l 1
 494 247 l 1
123 185 m 1
 123 247 l 1
 309 247 l 1
 309 185 l 1
 123 185 l 1
494 185 m 1
 494 247 l 1
 679 247 l 1
 679 185 l 1
 494 185 l 1
123 123 m 1
 123 185 l 1
 309 185 l 1
 309 123 l 1
 123 123 l 1
494 123 m 1
 494 185 l 1
 679 185 l 1
 679 123 l 1
 494 123 l 1
62 62 m 1
 62 123 l 1
 617 123 l 1
 617 62 l 1
 62 62 l 1
62 0 m 1
 62 62 l 1
 556 62 l 1
 556 0 l 1
 62 0 l 1
EndSplineSet
EndChar

StartChar: C
Encoding: 67 67 35
Width: 679
Flags: HW
LayerCount: 2
Back
Fore
SplineSet
247 617 m 1
 247 679 l 1
 494 679 l 1
 494 617 l 1
 247 617 l 1
556 617 m 1
 556 679 l 1
 679 679 l 1
 679 617 l 1
 556 617 l 1
123 556 m 1
 123 617 l 1
 679 617 l 1
 679 556 l 1
 123 556 l 1
123 494 m 1
 123 556 l 1
 309 556 l 1
 309 494 l 1
 123 494 l 1
494 494 m 1
 494 556 l 1
 679 556 l 1
 679 494 l 1
 494 494 l 1
62 432 m 1
 62 494 l 1
 247 494 l 1
 247 432 l 1
 62 432 l 1
556 432 m 1
 556 494 l 1
 679 494 l 1
 679 432 l 1
 556 432 l 1
62 370 m 1
 62 432 l 1
 247 432 l 1
 247 370 l 1
 62 370 l 1
62 309 m 1
 62 370 l 1
 247 370 l 1
 247 309 l 1
 62 309 l 1
62 247 m 1
 62 309 l 1
 247 309 l 1
 247 247 l 1
 62 247 l 1
62 185 m 1
 62 247 l 1
 247 247 l 1
 247 185 l 1
 62 185 l 1
123 123 m 1
 123 185 l 1
 309 185 l 1
 309 123 l 1
 123 123 l 1
494 123 m 1
 494 185 l 1
 679 185 l 1
 679 123 l 1
 494 123 l 1
123 62 m 1
 123 123 l 1
 679 123 l 1
 679 62 l 1
 123 62 l 1
247 0 m 1
 247 62 l 1
 556 62 l 1
 556 0 l 1
 247 0 l 1
EndSplineSet
EndChar

StartChar: D
Encoding: 68 68 36
Width: 679
Flags: HW
LayerCount: 2
Back
Fore
SplineSet
62 617 m 1
 62 679 l 1
 494 679 l 1
 494 617 l 1
 62 617 l 1
62 556 m 1
 62 617 l 1
 617 617 l 1
 617 556 l 1
 62 556 l 1
123 494 m 1
 123 556 l 1
 309 556 l 1
 309 494 l 1
 123 494 l 1
432 494 m 1
 432 556 l 1
 617 556 l 1
 617 494 l 1
 432 494 l 1
123 432 m 1
 123 494 l 1
 309 494 l 1
 309 432 l 1
 123 432 l 1
494 432 m 1
 494 494 l 1
 679 494 l 1
 679 432 l 1
 494 432 l 1
123 370 m 1
 123 432 l 1
 309 432 l 1
 309 370 l 1
 123 370 l 1
494 370 m 1
 494 432 l 1
 679 432 l 1
 679 370 l 1
 494 370 l 1
123 309 m 1
 123 370 l 1
 309 370 l 1
 309 309 l 1
 123 309 l 1
494 309 m 1
 494 370 l 1
 679 370 l 1
 679 309 l 1
 494 309 l 1
123 247 m 1
 123 309 l 1
 309 309 l 1
 309 247 l 1
 123 247 l 1
494 247 m 1
 494 309 l 1
 679 309 l 1
 679 247 l 1
 494 247 l 1
123 185 m 1
 123 247 l 1
 309 247 l 1
 309 185 l 1
 123 185 l 1
494 185 m 1
 494 247 l 1
 679 247 l 1
 679 185 l 1
 494 185 l 1
123 123 m 1
 123 185 l 1
 309 185 l 1
 309 123 l 1
 123 123 l 1
432 123 m 1
 432 185 l 1
 617 185 l 1
 617 123 l 1
 432 123 l 1
62 62 m 1
 62 123 l 1
 617 123 l 1
 617 62 l 1
 62 62 l 1
62 0 m 1
 62 62 l 1
 494 62 l 1
 494 0 l 1
 62 0 l 1
EndSplineSet
EndChar

StartChar: E
Encoding: 69 69 37
Width: 679
Flags: HW
LayerCount: 2
Back
Fore
SplineSet
62 617 m 1
 62 679 l 1
 679 679 l 1
 679 617 l 1
 62 617 l 1
62 556 m 1
 62 617 l 1
 679 617 l 1
 679 556 l 1
 62 556 l 1
123 494 m 1
 123 556 l 1
 309 556 l 1
 309 494 l 1
 123 494 l 1
556 494 m 1
 556 556 l 1
 679 556 l 1
 679 494 l 1
 556 494 l 1
123 432 m 1
 123 494 l 1
 309 494 l 1
 309 432 l 1
 123 432 l 1
370 432 m 1
 370 494 l 1
 494 494 l 1
 494 432 l 1
 370 432 l 1
556 432 m 1
 556 494 l 1
 679 494 l 1
 679 432 l 1
 556 432 l 1
123 370 m 1
 123 432 l 1
 494 432 l 1
 494 370 l 1
 123 370 l 1
123 309 m 1
 123 370 l 1
 494 370 l 1
 494 309 l 1
 123 309 l 1
123 247 m 1
 123 309 l 1
 309 309 l 1
 309 247 l 1
 123 247 l 1
370 247 m 1
 370 309 l 1
 494 309 l 1
 494 247 l 1
 370 247 l 1
123 185 m 1
 123 247 l 1
 309 247 l 1
 309 185 l 1
 123 185 l 1
556 185 m 1
 556 247 l 1
 679 247 l 1
 679 185 l 1
 556 185 l 1
123 123 m 1
 123 185 l 1
 309 185 l 1
 309 123 l 1
 123 123 l 1
556 123 m 1
 556 185 l 1
 679 185 l 1
 679 123 l 1
 556 123 l 1
62 62 m 1
 62 123 l 1
 679 123 l 1
 679 62 l 1
 62 62 l 1
62 0 m 1
 62 62 l 1
 679 62 l 1
 679 0 l 1
 62 0 l 1
EndSplineSet
EndChar

StartChar: F
Encoding: 70 70 38
Width: 679
Flags: HW
LayerCount: 2
Back
Fore
SplineSet
62 617 m 1
 62 679 l 1
 679 679 l 1
 679 617 l 1
 62 617 l 1
62 556 m 1
 62 617 l 1
 679 617 l 1
 679 556 l 1
 62 556 l 1
123 494 m 1
 123 556 l 1
 309 556 l 1
 309 494 l 1
 123 494 l 1
556 494 m 1
 556 556 l 1
 679 556 l 1
 679 494 l 1
 556 494 l 1
123 432 m 1
 123 494 l 1
 309 494 l 1
 309 432 l 1
 123 432 l 1
370 432 m 1
 370 494 l 1
 494 494 l 1
 494 432 l 1
 370 432 l 1
556 432 m 1
 556 494 l 1
 679 494 l 1
 679 432 l 1
 556 432 l 1
123 370 m 1
 123 432 l 1
 494 432 l 1
 494 370 l 1
 123 370 l 1
123 309 m 1
 123 370 l 1
 494 370 l 1
 494 309 l 1
 123 309 l 1
123 247 m 1
 123 309 l 1
 309 309 l 1
 309 247 l 1
 123 247 l 1
370 247 m 1
 370 309 l 1
 494 309 l 1
 494 247 l 1
 370 247 l 1
123 185 m 1
 123 247 l 1
 309 247 l 1
 309 185 l 1
 123 185 l 1
123 123 m 1
 123 185 l 1
 309 185 l 1
 309 123 l 1
 123 123 l 1
62 62 m 1
 62 123 l 1
 370 123 l 1
 370 62 l 1
 62 62 l 1
62 0 m 1
 62 62 l 1
 370 62 l 1
 370 0 l 1
 62 0 l 1
EndSplineSet
EndChar

StartChar: G
Encoding: 71 71 39
Width: 679
Flags: HW
LayerCount: 2
Back
Fore
SplineSet
247 617 m 1
 247 679 l 1
 494 679 l 1
 494 617 l 1
 247 617 l 1
556 617 m 1
 556 679 l 1
 679 679 l 1
 679 617 l 1
 556 617 l 1
123 556 m 1
 123 617 l 1
 679 617 l 1
 679 556 l 1
 123 556 l 1
123 494 m 1
 123 556 l 1
 309 556 l 1
 309 494 l 1
 123 494 l 1
494 494 m 1
 494 556 l 1
 679 556 l 1
 679 494 l 1
 494 494 l 1
62 432 m 1
 62 494 l 1
 247 494 l 1
 247 432 l 1
 62 432 l 1
556 432 m 1
 556 494 l 1
 679 494 l 1
 679 432 l 1
 556 432 l 1
62 370 m 1
 62 432 l 1
 247 432 l 1
 247 370 l 1
 62 370 l 1
62 309 m 1
 62 370 l 1
 247 370 l 1
 247 309 l 1
 62 309 l 1
370 309 m 1
 370 370 l 1
 679 370 l 1
 679 309 l 1
 370 309 l 1
62 247 m 1
 62 309 l 1
 247 309 l 1
 247 247 l 1
 62 247 l 1
370 247 m 1
 370 309 l 1
 679 309 l 1
 679 247 l 1
 370 247 l 1
62 185 m 1
 62 247 l 1
 247 247 l 1
 247 185 l 1
 62 185 l 1
494 185 m 1
 494 247 l 1
 679 247 l 1
 679 185 l 1
 494 185 l 1
123 123 m 1
 123 185 l 1
 309 185 l 1
 309 123 l 1
 123 123 l 1
494 123 m 1
 494 185 l 1
 679 185 l 1
 679 123 l 1
 494 123 l 1
123 62 m 1
 123 123 l 1
 679 123 l 1
 679 62 l 1
 123 62 l 1
247 0 m 1
 247 62 l 1
 556 62 l 1
 556 0 l 1
 247 0 l 1
EndSplineSet
EndChar

StartChar: H
Encoding: 72 72 40
Width: 679
Flags: HW
LayerCount: 2
Back
Fore
SplineSet
62 617 m 1
 62 679 l 1
 309 679 l 1
 309 617 l 1
 62 617 l 1
432 617 m 1
 432 679 l 1
 679 679 l 1
 679 617 l 1
 432 617 l 1
62 556 m 1
 62 617 l 1
 309 617 l 1
 309 556 l 1
 62 556 l 1
432 556 m 1
 432 617 l 1
 679 617 l 1
 679 556 l 1
 432 556 l 1
123 494 m 1
 123 556 l 1
 309 556 l 1
 309 494 l 1
 123 494 l 1
432 494 m 1
 432 556 l 1
 617 556 l 1
 617 494 l 1
 432 494 l 1
123 432 m 1
 123 494 l 1
 309 494 l 1
 309 432 l 1
 123 432 l 1
432 432 m 1
 432 494 l 1
 617 494 l 1
 617 432 l 1
 432 432 l 1
123 370 m 1
 123 432 l 1
 617 432 l 1
 617 370 l 1
 123 370 l 1
123 309 m 1
 123 370 l 1
 617 370 l 1
 617 309 l 1
 123 309 l 1
123 247 m 1
 123 309 l 1
 309 309 l 1
 309 247 l 1
 123 247 l 1
432 247 m 1
 432 309 l 1
 617 309 l 1
 617 247 l 1
 432 247 l 1
123 185 m 1
 123 247 l 1
 309 247 l 1
 309 185 l 1
 123 185 l 1
432 185 m 1
 432 247 l 1
 617 247 l 1
 617 185 l 1
 432 185 l 1
123 123 m 1
 123 185 l 1
 309 185 l 1
 309 123 l 1
 123 123 l 1
432 123 m 1
 432 185 l 1
 617 185 l 1
 617 123 l 1
 432 123 l 1
62 62 m 1
 62 123 l 1
 309 123 l 1
 309 62 l 1
 62 62 l 1
432 62 m 1
 432 123 l 1
 679 123 l 1
 679 62 l 1
 432 62 l 1
62 0 m 1
 62 62 l 1
 309 62 l 1
 309 0 l 1
 62 0 l 1
432 0 m 1
 432 62 l 1
 679 62 l 1
 679 0 l 1
 432 0 l 1
EndSplineSet
EndChar

StartChar: I
Encoding: 73 73 41
Width: 679
Flags: HW
LayerCount: 2
Back
Fore
SplineSet
62 617 m 1
 62 679 l 1
 617 679 l 1
 617 617 l 1
 62 617 l 1
62 556 m 1
 62 617 l 1
 617 617 l 1
 617 556 l 1
 62 556 l 1
247 494 m 1
 247 556 l 1
 432 556 l 1
 432 494 l 1
 247 494 l 1
247 432 m 1
 247 494 l 1
 432 494 l 1
 432 432 l 1
 247 432 l 1
247 370 m 1
 247 432 l 1
 432 432 l 1
 432 370 l 1
 247 370 l 1
247 309 m 1
 247 370 l 1
 432 370 l 1
 432 309 l 1
 247 309 l 1
247 247 m 1
 247 309 l 1
 432 309 l 1
 432 247 l 1
 247 247 l 1
247 185 m 1
 247 247 l 1
 432 247 l 1
 432 185 l 1
 247 185 l 1
247 123 m 1
 247 185 l 1
 432 185 l 1
 432 123 l 1
 247 123 l 1
62 62 m 1
 62 123 l 1
 617 123 l 1
 617 62 l 1
 62 62 l 1
62 0 m 1
 62 62 l 1
 617 62 l 1
 617 0 l 1
 62 0 l 1
EndSplineSet
EndChar

StartChar: J
Encoding: 74 74 42
Width: 679
Flags: HW
LayerCount: 2
Back
Fore
SplineSet
247 617 m 1
 247 679 l 1
 679 679 l 1
 679 617 l 1
 247 617 l 1
247 556 m 1
 247 617 l 1
 679 617 l 1
 679 556 l 1
 247 556 l 1
370 494 m 1
 370 556 l 1
 556 556 l 1
 556 494 l 1
 370 494 l 1
370 432 m 1
 370 494 l 1
 556 494 l 1
 556 432 l 1
 370 432 l 1
370 370 m 1
 370 432 l 1
 556 432 l 1
 556 370 l 1
 370 370 l 1
370 309 m 1
 370 370 l 1
 556 370 l 1
 556 309 l 1
 370 309 l 1
62 247 m 1
 62 309 l 1
 185 309 l 1
 185 247 l 1
 62 247 l 1
370 247 m 1
 370 309 l 1
 556 309 l 1
 556 247 l 1
 370 247 l 1
62 185 m 1
 62 247 l 1
 185 247 l 1
 185 185 l 1
 62 185 l 1
370 185 m 1
 370 247 l 1
 556 247 l 1
 556 185 l 1
 370 185 l 1
62 123 m 1
 62 185 l 1
 247 185 l 1
 247 123 l 1
 62 123 l 1
370 123 m 1
 370 185 l 1
 556 185 l 1
 556 123 l 1
 370 123 l 1
62 62 m 1
 62 123 l 1
 556 123 l 1
 556 62 l 1
 62 62 l 1
123 0 m 1
 123 62 l 1
 494 62 l 1
 494 0 l 1
 123 0 l 1
EndSplineSet
EndChar

StartChar: K
Encoding: 75 75 43
Width: 679
Flags: HW
LayerCount: 2
Back
Fore
SplineSet
62 617 m 1
 62 679 l 1
 309 679 l 1
 309 617 l 1
 62 617 l 1
432 617 m 1
 432 679 l 1
 679 679 l 1
 679 617 l 1
 432 617 l 1
62 556 m 1
 62 617 l 1
 309 617 l 1
 309 556 l 1
 62 556 l 1
432 556 m 1
 432 617 l 1
 679 617 l 1
 679 556 l 1
 432 556 l 1
123 494 m 1
 123 556 l 1
 309 556 l 1
 309 494 l 1
 123 494 l 1
370 494 m 1
 370 556 l 1
 556 556 l 1
 556 494 l 1
 370 494 l 1
123 432 m 1
 123 494 l 1
 309 494 l 1
 309 432 l 1
 123 432 l 1
370 432 m 1
 370 494 l 1
 494 494 l 1
 494 432 l 1
 370 432 l 1
123 370 m 1
 123 432 l 1
 432 432 l 1
 432 370 l 1
 123 370 l 1
123 309 m 1
 123 370 l 1
 494 370 l 1
 494 309 l 1
 123 309 l 1
123 247 m 1
 123 309 l 1
 494 309 l 1
 494 247 l 1
 123 247 l 1
123 185 m 1
 123 247 l 1
 309 247 l 1
 309 185 l 1
 123 185 l 1
370 185 m 1
 370 247 l 1
 556 247 l 1
 556 185 l 1
 370 185 l 1
123 123 m 1
 123 185 l 1
 309 185 l 1
 309 123 l 1
 123 123 l 1
370 123 m 1
 370 185 l 1
 556 185 l 1
 556 123 l 1
 370 123 l 1
62 62 m 1
 62 123 l 1
 309 123 l 1
 309 62 l 1
 62 62 l 1
432 62 m 1
 432 123 l 1
 679 123 l 1
 679 62 l 1
 432 62 l 1
62 0 m 1
 62 62 l 1
 309 62 l 1
 309 0 l 1
 62 0 l 1
432 0 m 1
 432 62 l 1
 679 62 l 1
 679 0 l 1
 432 0 l 1
EndSplineSet
EndChar

StartChar: L
Encoding: 76 76 44
Width: 679
Flags: HW
LayerCount: 2
Back
Fore
SplineSet
62 617 m 1
 62 679 l 1
 370 679 l 1
 370 617 l 1
 62 617 l 1
62 556 m 1
 62 617 l 1
 370 617 l 1
 370 556 l 1
 62 556 l 1
123 494 m 1
 123 556 l 1
 309 556 l 1
 309 494 l 1
 123 494 l 1
123 432 m 1
 123 494 l 1
 309 494 l 1
 309 432 l 1
 123 432 l 1
123 370 m 1
 123 432 l 1
 309 432 l 1
 309 370 l 1
 123 370 l 1
123 309 m 1
 123 370 l 1
 309 370 l 1
 309 309 l 1
 123 309 l 1
123 247 m 1
 123 309 l 1
 309 309 l 1
 309 247 l 1
 123 247 l 1
494 247 m 1
 494 309 l 1
 617 309 l 1
 617 247 l 1
 494 247 l 1
123 185 m 1
 123 247 l 1
 309 247 l 1
 309 185 l 1
 123 185 l 1
494 185 m 1
 494 247 l 1
 617 247 l 1
 617 185 l 1
 494 185 l 1
123 123 m 1
 123 185 l 1
 309 185 l 1
 309 123 l 1
 123 123 l 1
494 123 m 1
 494 185 l 1
 617 185 l 1
 617 123 l 1
 494 123 l 1
62 62 m 1
 62 123 l 1
 617 123 l 1
 617 62 l 1
 62 62 l 1
62 0 m 1
 62 62 l 1
 617 62 l 1
 617 0 l 1
 62 0 l 1
EndSplineSet
EndChar

StartChar: M
Encoding: 77 77 45
Width: 679
Flags: HW
LayerCount: 2
Back
Fore
SplineSet
62 617 m 1
 62 679 l 1
 247 679 l 1
 247 617 l 1
 62 617 l 1
494 617 m 1
 494 679 l 1
 679 679 l 1
 679 617 l 1
 494 617 l 1
62 556 m 1
 62 617 l 1
 247 617 l 1
 247 556 l 1
 62 556 l 1
494 556 m 1
 494 617 l 1
 679 617 l 1
 679 556 l 1
 494 556 l 1
123 494 m 1
 123 556 l 1
 309 556 l 1
 309 494 l 1
 123 494 l 1
432 494 m 1
 432 556 l 1
 617 556 l 1
 617 494 l 1
 432 494 l 1
123 432 m 1
 123 494 l 1
 309 494 l 1
 309 432 l 1
 123 432 l 1
432 432 m 1
 432 494 l 1
 617 494 l 1
 617 432 l 1
 432 432 l 1
123 370 m 1
 123 432 l 1
 617 432 l 1
 617 370 l 1
 123 370 l 1
123 309 m 1
 123 370 l 1
 617 370 l 1
 617 309 l 1
 123 309 l 1
123 247 m 1
 123 309 l 1
 247 309 l 1
 247 247 l 1
 123 247 l 1
309 247 m 1
 309 309 l 1
 432 309 l 1
 432 247 l 1
 309 247 l 1
494 247 m 1
 494 309 l 1
 617 309 l 1
 617 247 l 1
 494 247 l 1
123 185 m 1
 123 247 l 1
 247 247 l 1
 247 185 l 1
 123 185 l 1
309 185 m 1
 309 247 l 1
 432 247 l 1
 432 185 l 1
 309 185 l 1
494 185 m 1
 494 247 l 1
 617 247 l 1
 617 185 l 1
 494 185 l 1
123 123 m 1
 123 185 l 1
 247 185 l 1
 247 123 l 1
 123 123 l 1
494 123 m 1
 494 185 l 1
 617 185 l 1
 617 123 l 1
 494 123 l 1
62 62 m 1
 62 123 l 1
 247 123 l 1
 247 62 l 1
 62 62 l 1
494 62 m 1
 494 123 l 1
 679 123 l 1
 679 62 l 1
 494 62 l 1
62 0 m 1
 62 62 l 1
 247 62 l 1
 247 0 l 1
 62 0 l 1
494 0 m 1
 494 62 l 1
 679 62 l 1
 679 0 l 1
 494 0 l 1
EndSplineSet
EndChar

StartChar: N
Encoding: 78 78 46
Width: 679
Flags: HW
LayerCount: 2
Back
Fore
SplineSet
62 617 m 1
 62 679 l 1
 309 679 l 1
 309 617 l 1
 62 617 l 1
432 617 m 1
 432 679 l 1
 679 679 l 1
 679 617 l 1
 432 617 l 1
62 556 m 1
 62 617 l 1
 309 617 l 1
 309 556 l 1
 62 556 l 1
432 556 m 1
 432 617 l 1
 679 617 l 1
 679 556 l 1
 432 556 l 1
123 494 m 1
 123 556 l 1
 309 556 l 1
 309 494 l 1
 123 494 l 1
432 494 m 1
 432 556 l 1
 617 556 l 1
 617 494 l 1
 432 494 l 1
123 432 m 1
 123 494 l 1
 370 494 l 1
 370 432 l 1
 123 432 l 1
432 432 m 1
 432 494 l 1
 617 494 l 1
 617 432 l 1
 432 432 l 1
123 370 m 1
 123 432 l 1
 370 432 l 1
 370 370 l 1
 123 370 l 1
432 370 m 1
 432 432 l 1
 617 432 l 1
 617 370 l 1
 432 370 l 1
123 309 m 1
 123 370 l 1
 617 370 l 1
 617 309 l 1
 123 309 l 1
123 247 m 1
 123 309 l 1
 309 309 l 1
 309 247 l 1
 123 247 l 1
370 247 m 1
 370 309 l 1
 617 309 l 1
 617 247 l 1
 370 247 l 1
123 185 m 1
 123 247 l 1
 309 247 l 1
 309 185 l 1
 123 185 l 1
370 185 m 1
 370 247 l 1
 617 247 l 1
 617 185 l 1
 370 185 l 1
123 123 m 1
 123 185 l 1
 309 185 l 1
 309 123 l 1
 123 123 l 1
432 123 m 1
 432 185 l 1
 617 185 l 1
 617 123 l 1
 432 123 l 1
62 62 m 1
 62 123 l 1
 309 123 l 1
 309 62 l 1
 62 62 l 1
432 62 m 1
 432 123 l 1
 617 123 l 1
 617 62 l 1
 432 62 l 1
62 0 m 1
 62 62 l 1
 309 62 l 1
 309 0 l 1
 62 0 l 1
432 0 m 1
 432 62 l 1
 617 62 l 1
 617 0 l 1
 432 0 l 1
EndSplineSet
EndChar

StartChar: O
Encoding: 79 79 47
Width: 679
Flags: HW
LayerCount: 2
Back
Fore
SplineSet
185 617 m 1
 185 679 l 1
 556 679 l 1
 556 617 l 1
 185 617 l 1
123 556 m 1
 123 617 l 1
 617 617 l 1
 617 556 l 1
 123 556 l 1
123 494 m 1
 123 556 l 1
 309 556 l 1
 309 494 l 1
 123 494 l 1
432 494 m 1
 432 556 l 1
 617 556 l 1
 617 494 l 1
 432 494 l 1
62 432 m 1
 62 494 l 1
 247 494 l 1
 247 432 l 1
 62 432 l 1
494 432 m 1
 494 494 l 1
 679 494 l 1
 679 432 l 1
 494 432 l 1
62 370 m 1
 62 432 l 1
 247 432 l 1
 247 370 l 1
 62 370 l 1
494 370 m 1
 494 432 l 1
 679 432 l 1
 679 370 l 1
 494 370 l 1
62 309 m 1
 62 370 l 1
 247 370 l 1
 247 309 l 1
 62 309 l 1
494 309 m 1
 494 370 l 1
 679 370 l 1
 679 309 l 1
 494 309 l 1
62 247 m 1
 62 309 l 1
 247 309 l 1
 247 247 l 1
 62 247 l 1
494 247 m 1
 494 309 l 1
 679 309 l 1
 679 247 l 1
 494 247 l 1
62 185 m 1
 62 247 l 1
 247 247 l 1
 247 185 l 1
 62 185 l 1
494 185 m 1
 494 247 l 1
 679 247 l 1
 679 185 l 1
 494 185 l 1
123 123 m 1
 123 185 l 1
 309 185 l 1
 309 123 l 1
 123 123 l 1
432 123 m 1
 432 185 l 1
 617 185 l 1
 617 123 l 1
 432 123 l 1
123 62 m 1
 123 123 l 1
 617 123 l 1
 617 62 l 1
 123 62 l 1
185 0 m 1
 185 62 l 1
 556 62 l 1
 556 0 l 1
 185 0 l 1
EndSplineSet
EndChar

StartChar: P
Encoding: 80 80 48
Width: 679
Flags: HW
LayerCount: 2
Back
Fore
SplineSet
62 617 m 1
 62 679 l 1
 556 679 l 1
 556 617 l 1
 62 617 l 1
62 556 m 1
 62 617 l 1
 617 617 l 1
 617 556 l 1
 62 556 l 1
123 494 m 1
 123 556 l 1
 309 556 l 1
 309 494 l 1
 123 494 l 1
432 494 m 1
 432 556 l 1
 617 556 l 1
 617 494 l 1
 432 494 l 1
123 432 m 1
 123 494 l 1
 309 494 l 1
 309 432 l 1
 123 432 l 1
432 432 m 1
 432 494 l 1
 617 494 l 1
 617 432 l 1
 432 432 l 1
123 370 m 1
 123 432 l 1
 309 432 l 1
 309 370 l 1
 123 370 l 1
432 370 m 1
 432 432 l 1
 617 432 l 1
 617 370 l 1
 432 370 l 1
123 309 m 1
 123 370 l 1
 617 370 l 1
 617 309 l 1
 123 309 l 1
123 247 m 1
 123 309 l 1
 556 309 l 1
 556 247 l 1
 123 247 l 1
123 185 m 1
 123 247 l 1
 309 247 l 1
 309 185 l 1
 123 185 l 1
123 123 m 1
 123 185 l 1
 309 185 l 1
 309 123 l 1
 123 123 l 1
62 62 m 1
 62 123 l 1
 370 123 l 1
 370 62 l 1
 62 62 l 1
62 0 m 1
 62 62 l 1
 370 62 l 1
 370 0 l 1
 62 0 l 1
EndSplineSet
EndChar

StartChar: Q
Encoding: 81 81 49
Width: 679
Flags: HW
LayerCount: 2
Back
Fore
SplineSet
247 617 m 1
 247 679 l 1
 494 679 l 1
 494 617 l 1
 247 617 l 1
123 556 m 1
 123 617 l 1
 617 617 l 1
 617 556 l 1
 123 556 l 1
123 494 m 1
 123 556 l 1
 309 556 l 1
 309 494 l 1
 123 494 l 1
432 494 m 1
 432 556 l 1
 617 556 l 1
 617 494 l 1
 432 494 l 1
62 432 m 1
 62 494 l 1
 247 494 l 1
 247 432 l 1
 62 432 l 1
494 432 m 1
 494 494 l 1
 679 494 l 1
 679 432 l 1
 494 432 l 1
62 370 m 1
 62 432 l 1
 247 432 l 1
 247 370 l 1
 62 370 l 1
494 370 m 1
 494 432 l 1
 679 432 l 1
 679 370 l 1
 494 370 l 1
62 309 m 1
 62 370 l 1
 247 370 l 1
 247 309 l 1
 62 309 l 1
494 309 m 1
 494 370 l 1
 679 370 l 1
 679 309 l 1
 494 309 l 1
62 247 m 1
 62 309 l 1
 247 309 l 1
 247 247 l 1
 62 247 l 1
494 247 m 1
 494 309 l 1
 679 309 l 1
 679 247 l 1
 494 247 l 1
62 185 m 1
 62 247 l 1
 247 247 l 1
 247 185 l 1
 62 185 l 1
494 185 m 1
 494 247 l 1
 679 247 l 1
 679 185 l 1
 494 185 l 1
123 123 m 1
 123 185 l 1
 309 185 l 1
 309 123 l 1
 123 123 l 1
432 123 m 1
 432 185 l 1
 617 185 l 1
 617 123 l 1
 432 123 l 1
123 62 m 1
 123 123 l 1
 617 123 l 1
 617 62 l 1
 123 62 l 1
247 0 m 1
 247 62 l 1
 494 62 l 1
 494 0 l 1
 247 0 l 1
247 -62 m 1
 247 0 l 1
 370 0 l 1
 370 -62 l 1
 247 -62 l 1
185 -123 m 1
 185 -62 l 1
 679 -62 l 1
 679 -123 l 1
 185 -123 l 1
185 -185 m 1
 185 -123 l 1
 309 -123 l 1
 309 -185 l 1
 185 -185 l 1
370 -185 m 1
 370 -123 l 1
 617 -123 l 1
 617 -185 l 1
 370 -185 l 1
EndSplineSet
EndChar

StartChar: R
Encoding: 82 82 50
Width: 679
Flags: HW
LayerCount: 2
Back
Fore
SplineSet
62 617 m 1
 62 679 l 1
 556 679 l 1
 556 617 l 1
 62 617 l 1
62 556 m 1
 62 617 l 1
 617 617 l 1
 617 556 l 1
 62 556 l 1
123 494 m 1
 123 556 l 1
 309 556 l 1
 309 494 l 1
 123 494 l 1
432 494 m 1
 432 556 l 1
 617 556 l 1
 617 494 l 1
 432 494 l 1
123 432 m 1
 123 494 l 1
 309 494 l 1
 309 432 l 1
 123 432 l 1
432 432 m 1
 432 494 l 1
 617 494 l 1
 617 432 l 1
 432 432 l 1
123 370 m 1
 123 432 l 1
 556 432 l 1
 556 370 l 1
 123 370 l 1
123 309 m 1
 123 370 l 1
 494 370 l 1
 494 309 l 1
 123 309 l 1
123 247 m 1
 123 309 l 1
 309 309 l 1
 309 247 l 1
 123 247 l 1
370 247 m 1
 370 309 l 1
 556 309 l 1
 556 247 l 1
 370 247 l 1
123 185 m 1
 123 247 l 1
 309 247 l 1
 309 185 l 1
 123 185 l 1
370 185 m 1
 370 247 l 1
 556 247 l 1
 556 185 l 1
 370 185 l 1
123 123 m 1
 123 185 l 1
 309 185 l 1
 309 123 l 1
 123 123 l 1
432 123 m 1
 432 185 l 1
 556 185 l 1
 556 123 l 1
 432 123 l 1
62 62 m 1
 62 123 l 1
 309 123 l 1
 309 62 l 1
 62 62 l 1
432 62 m 1
 432 123 l 1
 679 123 l 1
 679 62 l 1
 432 62 l 1
62 0 m 1
 62 62 l 1
 309 62 l 1
 309 0 l 1
 62 0 l 1
432 0 m 1
 432 62 l 1
 679 62 l 1
 679 0 l 1
 432 0 l 1
EndSplineSet
EndChar

StartChar: S
Encoding: 83 83 51
Width: 679
Flags: HW
LayerCount: 2
Back
Fore
SplineSet
247 617 m 1
 247 679 l 1
 432 679 l 1
 432 617 l 1
 247 617 l 1
494 617 m 1
 494 679 l 1
 617 679 l 1
 617 617 l 1
 494 617 l 1
123 556 m 1
 123 617 l 1
 617 617 l 1
 617 556 l 1
 123 556 l 1
123 494 m 1
 123 556 l 1
 309 556 l 1
 309 494 l 1
 123 494 l 1
432 494 m 1
 432 556 l 1
 617 556 l 1
 617 494 l 1
 432 494 l 1
123 432 m 1
 123 494 l 1
 309 494 l 1
 309 432 l 1
 123 432 l 1
494 432 m 1
 494 494 l 1
 617 494 l 1
 617 432 l 1
 494 432 l 1
123 370 m 1
 123 432 l 1
 432 432 l 1
 432 370 l 1
 123 370 l 1
185 309 m 1
 185 370 l 1
 556 370 l 1
 556 309 l 1
 185 309 l 1
370 247 m 1
 370 309 l 1
 617 309 l 1
 617 247 l 1
 370 247 l 1
123 185 m 1
 123 247 l 1
 247 247 l 1
 247 185 l 1
 123 185 l 1
432 185 m 1
 432 247 l 1
 617 247 l 1
 617 185 l 1
 432 185 l 1
123 123 m 1
 123 185 l 1
 309 185 l 1
 309 123 l 1
 123 123 l 1
432 123 m 1
 432 185 l 1
 617 185 l 1
 617 123 l 1
 432 123 l 1
123 62 m 1
 123 123 l 1
 617 123 l 1
 617 62 l 1
 123 62 l 1
123 0 m 1
 123 62 l 1
 247 62 l 1
 247 0 l 1
 123 0 l 1
309 0 m 1
 309 62 l 1
 556 62 l 1
 556 0 l 1
 309 0 l 1
EndSplineSet
EndChar

StartChar: T
Encoding: 84 84 52
Width: 679
Flags: HW
LayerCount: 2
Back
Fore
SplineSet
0 617 m 1
 0 679 l 1
 679 679 l 1
 679 617 l 1
 0 617 l 1
0 556 m 1
 0 617 l 1
 679 617 l 1
 679 556 l 1
 0 556 l 1
0 494 m 1
 0 556 l 1
 123 556 l 1
 123 494 l 1
 0 494 l 1
247 494 m 1
 247 556 l 1
 432 556 l 1
 432 494 l 1
 247 494 l 1
556 494 m 1
 556 556 l 1
 679 556 l 1
 679 494 l 1
 556 494 l 1
0 432 m 1
 0 494 l 1
 123 494 l 1
 123 432 l 1
 0 432 l 1
247 432 m 1
 247 494 l 1
 432 494 l 1
 432 432 l 1
 247 432 l 1
556 432 m 1
 556 494 l 1
 679 494 l 1
 679 432 l 1
 556 432 l 1
0 370 m 1
 0 432 l 1
 123 432 l 1
 123 370 l 1
 0 370 l 1
247 370 m 1
 247 432 l 1
 432 432 l 1
 432 370 l 1
 247 370 l 1
556 370 m 1
 556 432 l 1
 679 432 l 1
 679 370 l 1
 556 370 l 1
247 309 m 1
 247 370 l 1
 432 370 l 1
 432 309 l 1
 247 309 l 1
247 247 m 1
 247 309 l 1
 432 309 l 1
 432 247 l 1
 247 247 l 1
247 185 m 1
 247 247 l 1
 432 247 l 1
 432 185 l 1
 247 185 l 1
247 123 m 1
 247 185 l 1
 432 185 l 1
 432 123 l 1
 247 123 l 1
123 62 m 1
 123 123 l 1
 556 123 l 1
 556 62 l 1
 123 62 l 1
123 0 m 1
 123 62 l 1
 556 62 l 1
 556 0 l 1
 123 0 l 1
EndSplineSet
EndChar

StartChar: U
Encoding: 85 85 53
Width: 679
Flags: HW
LayerCount: 2
Back
Fore
SplineSet
62 617 m 1
 62 679 l 1
 309 679 l 1
 309 617 l 1
 62 617 l 1
432 617 m 1
 432 679 l 1
 679 679 l 1
 679 617 l 1
 432 617 l 1
62 556 m 1
 62 617 l 1
 309 617 l 1
 309 556 l 1
 62 556 l 1
432 556 m 1
 432 617 l 1
 679 617 l 1
 679 556 l 1
 432 556 l 1
123 494 m 1
 123 556 l 1
 309 556 l 1
 309 494 l 1
 123 494 l 1
432 494 m 1
 432 556 l 1
 617 556 l 1
 617 494 l 1
 432 494 l 1
123 432 m 1
 123 494 l 1
 309 494 l 1
 309 432 l 1
 123 432 l 1
432 432 m 1
 432 494 l 1
 617 494 l 1
 617 432 l 1
 432 432 l 1
123 370 m 1
 123 432 l 1
 309 432 l 1
 309 370 l 1
 123 370 l 1
432 370 m 1
 432 432 l 1
 617 432 l 1
 617 370 l 1
 432 370 l 1
123 309 m 1
 123 370 l 1
 309 370 l 1
 309 309 l 1
 123 309 l 1
432 309 m 1
 432 370 l 1
 617 370 l 1
 617 309 l 1
 432 309 l 1
123 247 m 1
 123 309 l 1
 309 309 l 1
 309 247 l 1
 123 247 l 1
432 247 m 1
 432 309 l 1
 617 309 l 1
 617 247 l 1
 432 247 l 1
123 185 m 1
 123 247 l 1
 309 247 l 1
 309 185 l 1
 123 185 l 1
432 185 m 1
 432 247 l 1
 617 247 l 1
 617 185 l 1
 432 185 l 1
123 123 m 1
 123 185 l 1
 309 185 l 1
 309 123 l 1
 123 123 l 1
432 123 m 1
 432 185 l 1
 617 185 l 1
 617 123 l 1
 432 123 l 1
123 62 m 1
 123 123 l 1
 617 123 l 1
 617 62 l 1
 123 62 l 1
185 0 m 1
 185 62 l 1
 556 62 l 1
 556 0 l 1
 185 0 l 1
EndSplineSet
EndChar

StartChar: V
Encoding: 86 86 54
Width: 679
Flags: HW
LayerCount: 2
Back
Fore
SplineSet
62 617 m 1
 62 679 l 1
 309 679 l 1
 309 617 l 1
 62 617 l 1
432 617 m 1
 432 679 l 1
 679 679 l 1
 679 617 l 1
 432 617 l 1
62 556 m 1
 62 617 l 1
 309 617 l 1
 309 556 l 1
 62 556 l 1
432 556 m 1
 432 617 l 1
 679 617 l 1
 679 556 l 1
 432 556 l 1
123 494 m 1
 123 556 l 1
 309 556 l 1
 309 494 l 1
 123 494 l 1
432 494 m 1
 432 556 l 1
 617 556 l 1
 617 494 l 1
 432 494 l 1
123 432 m 1
 123 494 l 1
 309 494 l 1
 309 432 l 1
 123 432 l 1
432 432 m 1
 432 494 l 1
 617 494 l 1
 617 432 l 1
 432 432 l 1
123 370 m 1
 123 432 l 1
 309 432 l 1
 309 370 l 1
 123 370 l 1
432 370 m 1
 432 432 l 1
 617 432 l 1
 617 370 l 1
 432 370 l 1
185 309 m 1
 185 370 l 1
 309 370 l 1
 309 309 l 1
 185 309 l 1
432 309 m 1
 432 370 l 1
 556 370 l 1
 556 309 l 1
 432 309 l 1
185 247 m 1
 185 309 l 1
 309 309 l 1
 309 247 l 1
 185 247 l 1
432 247 m 1
 432 309 l 1
 556 309 l 1
 556 247 l 1
 432 247 l 1
185 185 m 1
 185 247 l 1
 556 247 l 1
 556 185 l 1
 185 185 l 1
247 123 m 1
 247 185 l 1
 494 185 l 1
 494 123 l 1
 247 123 l 1
247 62 m 1
 247 123 l 1
 494 123 l 1
 494 62 l 1
 247 62 l 1
309 0 m 1
 309 62 l 1
 432 62 l 1
 432 0 l 1
 309 0 l 1
EndSplineSet
EndChar

StartChar: W
Encoding: 87 87 55
Width: 679
Flags: HW
LayerCount: 2
Back
Fore
SplineSet
62 617 m 1
 62 679 l 1
 309 679 l 1
 309 617 l 1
 62 617 l 1
432 617 m 1
 432 679 l 1
 679 679 l 1
 679 617 l 1
 432 617 l 1
62 556 m 1
 62 617 l 1
 309 617 l 1
 309 556 l 1
 62 556 l 1
432 556 m 1
 432 617 l 1
 679 617 l 1
 679 556 l 1
 432 556 l 1
123 494 m 1
 123 556 l 1
 247 556 l 1
 247 494 l 1
 123 494 l 1
494 494 m 1
 494 556 l 1
 617 556 l 1
 617 494 l 1
 494 494 l 1
123 432 m 1
 123 494 l 1
 247 494 l 1
 247 432 l 1
 123 432 l 1
494 432 m 1
 494 494 l 1
 617 494 l 1
 617 432 l 1
 494 432 l 1
123 370 m 1
 123 432 l 1
 247 432 l 1
 247 370 l 1
 123 370 l 1
309 370 m 1
 309 432 l 1
 432 432 l 1
 432 370 l 1
 309 370 l 1
494 370 m 1
 494 432 l 1
 617 432 l 1
 617 370 l 1
 494 370 l 1
123 309 m 1
 123 370 l 1
 247 370 l 1
 247 309 l 1
 123 309 l 1
309 309 m 1
 309 370 l 1
 432 370 l 1
 432 309 l 1
 309 309 l 1
494 309 m 1
 494 370 l 1
 617 370 l 1
 617 309 l 1
 494 309 l 1
123 247 m 1
 123 309 l 1
 617 309 l 1
 617 247 l 1
 123 247 l 1
123 185 m 1
 123 247 l 1
 617 247 l 1
 617 185 l 1
 123 185 l 1
123 123 m 1
 123 185 l 1
 309 185 l 1
 309 123 l 1
 123 123 l 1
432 123 m 1
 432 185 l 1
 617 185 l 1
 617 123 l 1
 432 123 l 1
185 62 m 1
 185 123 l 1
 309 123 l 1
 309 62 l 1
 185 62 l 1
432 62 m 1
 432 123 l 1
 556 123 l 1
 556 62 l 1
 432 62 l 1
185 0 m 1
 185 62 l 1
 309 62 l 1
 309 0 l 1
 185 0 l 1
432 0 m 1
 432 62 l 1
 556 62 l 1
 556 0 l 1
 432 0 l 1
EndSplineSet
EndChar

StartChar: X
Encoding: 88 88 56
Width: 679
Flags: HW
LayerCount: 2
Back
Fore
SplineSet
62 617 m 1
 62 679 l 1
 309 679 l 1
 309 617 l 1
 62 617 l 1
432 617 m 1
 432 679 l 1
 679 679 l 1
 679 617 l 1
 432 617 l 1
62 556 m 1
 62 617 l 1
 309 617 l 1
 309 556 l 1
 62 556 l 1
432 556 m 1
 432 617 l 1
 679 617 l 1
 679 556 l 1
 432 556 l 1
123 494 m 1
 123 556 l 1
 309 556 l 1
 309 494 l 1
 123 494 l 1
432 494 m 1
 432 556 l 1
 617 556 l 1
 617 494 l 1
 432 494 l 1
185 432 m 1
 185 494 l 1
 556 494 l 1
 556 432 l 1
 185 432 l 1
247 370 m 1
 247 432 l 1
 494 432 l 1
 494 370 l 1
 247 370 l 1
247 309 m 1
 247 370 l 1
 494 370 l 1
 494 309 l 1
 247 309 l 1
247 247 m 1
 247 309 l 1
 494 309 l 1
 494 247 l 1
 247 247 l 1
185 185 m 1
 185 247 l 1
 556 247 l 1
 556 185 l 1
 185 185 l 1
123 123 m 1
 123 185 l 1
 309 185 l 1
 309 123 l 1
 123 123 l 1
432 123 m 1
 432 185 l 1
 617 185 l 1
 617 123 l 1
 432 123 l 1
62 62 m 1
 62 123 l 1
 309 123 l 1
 309 62 l 1
 62 62 l 1
432 62 m 1
 432 123 l 1
 679 123 l 1
 679 62 l 1
 432 62 l 1
62 0 m 1
 62 62 l 1
 309 62 l 1
 309 0 l 1
 62 0 l 1
432 0 m 1
 432 62 l 1
 679 62 l 1
 679 0 l 1
 432 0 l 1
EndSplineSet
EndChar

StartChar: Y
Encoding: 89 89 57
Width: 679
Flags: HW
LayerCount: 2
Back
Fore
SplineSet
62 617 m 1
 62 679 l 1
 247 679 l 1
 247 617 l 1
 62 617 l 1
432 617 m 1
 432 679 l 1
 617 679 l 1
 617 617 l 1
 432 617 l 1
62 556 m 1
 62 617 l 1
 247 617 l 1
 247 556 l 1
 62 556 l 1
432 556 m 1
 432 617 l 1
 617 617 l 1
 617 556 l 1
 432 556 l 1
123 494 m 1
 123 556 l 1
 309 556 l 1
 309 494 l 1
 123 494 l 1
370 494 m 1
 370 556 l 1
 556 556 l 1
 556 494 l 1
 370 494 l 1
123 432 m 1
 123 494 l 1
 309 494 l 1
 309 432 l 1
 123 432 l 1
370 432 m 1
 370 494 l 1
 556 494 l 1
 556 432 l 1
 370 432 l 1
185 370 m 1
 185 432 l 1
 494 432 l 1
 494 370 l 1
 185 370 l 1
185 309 m 1
 185 370 l 1
 494 370 l 1
 494 309 l 1
 185 309 l 1
247 247 m 1
 247 309 l 1
 432 309 l 1
 432 247 l 1
 247 247 l 1
247 185 m 1
 247 247 l 1
 432 247 l 1
 432 185 l 1
 247 185 l 1
247 123 m 1
 247 185 l 1
 432 185 l 1
 432 123 l 1
 247 123 l 1
185 62 m 1
 185 123 l 1
 494 123 l 1
 494 62 l 1
 185 62 l 1
185 0 m 1
 185 62 l 1
 494 62 l 1
 494 0 l 1
 185 0 l 1
EndSplineSet
EndChar

StartChar: Z
Encoding: 90 90 58
Width: 679
Flags: HW
LayerCount: 2
Back
Fore
SplineSet
123 617 m 1
 123 679 l 1
 617 679 l 1
 617 617 l 1
 123 617 l 1
123 556 m 1
 123 617 l 1
 617 617 l 1
 617 556 l 1
 123 556 l 1
123 494 m 1
 123 556 l 1
 247 556 l 1
 247 494 l 1
 123 494 l 1
370 494 m 1
 370 556 l 1
 556 556 l 1
 556 494 l 1
 370 494 l 1
123 432 m 1
 123 494 l 1
 247 494 l 1
 247 432 l 1
 123 432 l 1
370 432 m 1
 370 494 l 1
 556 494 l 1
 556 432 l 1
 370 432 l 1
309 370 m 1
 309 432 l 1
 494 432 l 1
 494 370 l 1
 309 370 l 1
309 309 m 1
 309 370 l 1
 494 370 l 1
 494 309 l 1
 309 309 l 1
247 247 m 1
 247 309 l 1
 432 309 l 1
 432 247 l 1
 247 247 l 1
247 185 m 1
 247 247 l 1
 432 247 l 1
 432 185 l 1
 247 185 l 1
494 185 m 1
 494 247 l 1
 617 247 l 1
 617 185 l 1
 494 185 l 1
185 123 m 1
 185 185 l 1
 370 185 l 1
 370 123 l 1
 185 123 l 1
494 123 m 1
 494 185 l 1
 617 185 l 1
 617 123 l 1
 494 123 l 1
185 62 m 1
 185 123 l 1
 617 123 l 1
 617 62 l 1
 185 62 l 1
123 0 m 1
 123 62 l 1
 617 62 l 1
 617 0 l 1
 123 0 l 1
EndSplineSet
EndChar

StartChar: bracketleft
Encoding: 91 91 59
Width: 679
Flags: HW
LayerCount: 2
Back
Fore
SplineSet
185 679 m 1
 185 741 l 1
 494 741 l 1
 494 679 l 1
 185 679 l 1
185 617 m 1
 185 679 l 1
 494 679 l 1
 494 617 l 1
 185 617 l 1
185 556 m 1
 185 617 l 1
 370 617 l 1
 370 556 l 1
 185 556 l 1
185 494 m 1
 185 556 l 1
 370 556 l 1
 370 494 l 1
 185 494 l 1
185 432 m 1
 185 494 l 1
 370 494 l 1
 370 432 l 1
 185 432 l 1
185 370 m 1
 185 432 l 1
 370 432 l 1
 370 370 l 1
 185 370 l 1
185 309 m 1
 185 370 l 1
 370 370 l 1
 370 309 l 1
 185 309 l 1
185 247 m 1
 185 309 l 1
 370 309 l 1
 370 247 l 1
 185 247 l 1
185 185 m 1
 185 247 l 1
 370 247 l 1
 370 185 l 1
 185 185 l 1
185 123 m 1
 185 185 l 1
 370 185 l 1
 370 123 l 1
 185 123 l 1
185 62 m 1
 185 123 l 1
 370 123 l 1
 370 62 l 1
 185 62 l 1
185 0 m 1
 185 62 l 1
 370 62 l 1
 370 0 l 1
 185 0 l 1
185 -62 m 1
 185 0 l 1
 370 0 l 1
 370 -62 l 1
 185 -62 l 1
185 -123 m 1
 185 -62 l 1
 494 -62 l 1
 494 -123 l 1
 185 -123 l 1
185 -185 m 1
 185 -123 l 1
 494 -123 l 1
 494 -185 l 1
 185 -185 l 1
EndSplineSet
EndChar

StartChar: backslash
Encoding: 92 92 60
Width: 679
Flags: HW
LayerCount: 2
Back
Fore
SplineSet
123 679 m 1
 123 741 l 1
 247 741 l 1
 247 679 l 1
 123 679 l 1
123 617 m 1
 123 679 l 1
 309 679 l 1
 309 617 l 1
 123 617 l 1
185 556 m 1
 185 617 l 1
 309 617 l 1
 309 556 l 1
 185 556 l 1
185 494 m 1
 185 556 l 1
 370 556 l 1
 370 494 l 1
 185 494 l 1
247 432 m 1
 247 494 l 1
 370 494 l 1
 370 432 l 1
 247 432 l 1
247 370 m 1
 247 432 l 1
 432 432 l 1
 432 370 l 1
 247 370 l 1
309 309 m 1
 309 370 l 1
 432 370 l 1
 432 309 l 1
 309 309 l 1
309 247 m 1
 309 309 l 1
 432 309 l 1
 432 247 l 1
 309 247 l 1
309 185 m 1
 309 247 l 1
 494 247 l 1
 494 185 l 1
 309 185 l 1
370 123 m 1
 370 185 l 1
 494 185 l 1
 494 123 l 1
 370 123 l 1
370 62 m 1
 370 123 l 1
 556 123 l 1
 556 62 l 1
 370 62 l 1
432 0 m 1
 432 62 l 1
 556 62 l 1
 556 0 l 1
 432 0 l 1
432 -62 m 1
 432 0 l 1
 617 0 l 1
 617 -62 l 1
 432 -62 l 1
494 -123 m 1
 494 -62 l 1
 617 -62 l 1
 617 -123 l 1
 494 -123 l 1
EndSplineSet
EndChar

StartChar: bracketright
Encoding: 93 93 61
Width: 679
Flags: HW
LayerCount: 2
Back
Fore
SplineSet
185 679 m 1
 185 741 l 1
 494 741 l 1
 494 679 l 1
 185 679 l 1
185 617 m 1
 185 679 l 1
 494 679 l 1
 494 617 l 1
 185 617 l 1
309 556 m 1
 309 617 l 1
 494 617 l 1
 494 556 l 1
 309 556 l 1
309 494 m 1
 309 556 l 1
 494 556 l 1
 494 494 l 1
 309 494 l 1
309 432 m 1
 309 494 l 1
 494 494 l 1
 494 432 l 1
 309 432 l 1
309 370 m 1
 309 432 l 1
 494 432 l 1
 494 370 l 1
 309 370 l 1
309 309 m 1
 309 370 l 1
 494 370 l 1
 494 309 l 1
 309 309 l 1
309 247 m 1
 309 309 l 1
 494 309 l 1
 494 247 l 1
 309 247 l 1
309 185 m 1
 309 247 l 1
 494 247 l 1
 494 185 l 1
 309 185 l 1
309 123 m 1
 309 185 l 1
 494 185 l 1
 494 123 l 1
 309 123 l 1
309 62 m 1
 309 123 l 1
 494 123 l 1
 494 62 l 1
 309 62 l 1
309 0 m 1
 309 62 l 1
 494 62 l 1
 494 0 l 1
 309 0 l 1
309 -62 m 1
 309 0 l 1
 494 0 l 1
 494 -62 l 1
 309 -62 l 1
185 -123 m 1
 185 -62 l 1
 494 -62 l 1
 494 -123 l 1
 185 -123 l 1
185 -185 m 1
 185 -123 l 1
 494 -123 l 1
 494 -185 l 1
 185 -185 l 1
EndSplineSet
EndChar

StartChar: asciicircum
Encoding: 94 94 62
Width: 679
Flags: HW
LayerCount: 2
Back
Fore
SplineSet
309 494 m 1
 309 556 l 1
 432 556 l 1
 432 494 l 1
 309 494 l 1
247 432 m 1
 247 494 l 1
 494 494 l 1
 494 432 l 1
 247 432 l 1
185 370 m 1
 185 432 l 1
 556 432 l 1
 556 370 l 1
 185 370 l 1
123 309 m 1
 123 370 l 1
 247 370 l 1
 247 309 l 1
 123 309 l 1
494 309 m 1
 494 370 l 1
 617 370 l 1
 617 309 l 1
 494 309 l 1
EndSplineSet
EndChar

StartChar: underscore
Encoding: 95 95 63
Width: 679
Flags: HW
LayerCount: 2
Back
Fore
SplineSet
62 62 m 1
 62 123 l 1
 679 123 l 1
 679 62 l 1
 62 62 l 1
62 0 m 1
 62 62 l 1
 679 62 l 1
 679 0 l 1
 62 0 l 1
EndSplineSet
EndChar

StartChar: a
Encoding: 97 97 65
Width: 679
Flags: HW
LayerCount: 2
Back
Fore
SplineSet
185 494 m 1
 185 556 l 1
 556 556 l 1
 556 494 l 1
 185 494 l 1
123 432 m 1
 123 494 l 1
 617 494 l 1
 617 432 l 1
 123 432 l 1
432 370 m 1
 432 432 l 1
 617 432 l 1
 617 370 l 1
 432 370 l 1
185 309 m 1
 185 370 l 1
 617 370 l 1
 617 309 l 1
 185 309 l 1
123 247 m 1
 123 309 l 1
 617 309 l 1
 617 247 l 1
 123 247 l 1
62 185 m 1
 62 247 l 1
 247 247 l 1
 247 185 l 1
 62 185 l 1
432 185 m 1
 432 247 l 1
 617 247 l 1
 617 185 l 1
 432 185 l 1
62 123 m 1
 62 185 l 1
 247 185 l 1
 247 123 l 1
 62 123 l 1
370 123 m 1
 370 185 l 1
 617 185 l 1
 617 123 l 1
 370 123 l 1
62 62 m 1
 62 123 l 1
 679 123 l 1
 679 62 l 1
 62 62 l 1
123 0 m 1
 123 62 l 1
 370 62 l 1
 370 0 l 1
 123 0 l 1
432 0 m 1
 432 62 l 1
 679 62 l 1
 679 0 l 1
 432 0 l 1
EndSplineSet
EndChar

StartChar: b
Encoding: 98 98 66
Width: 679
Flags: HW
LayerCount: 2
Back
Fore
SplineSet
62 679 m 1
 62 741 l 1
 309 741 l 1
 309 679 l 1
 62 679 l 1
62 617 m 1
 62 679 l 1
 309 679 l 1
 309 617 l 1
 62 617 l 1
123 556 m 1
 123 617 l 1
 309 617 l 1
 309 556 l 1
 123 556 l 1
123 494 m 1
 123 556 l 1
 309 556 l 1
 309 494 l 1
 123 494 l 1
370 494 m 1
 370 556 l 1
 556 556 l 1
 556 494 l 1
 370 494 l 1
123 432 m 1
 123 494 l 1
 617 494 l 1
 617 432 l 1
 123 432 l 1
123 370 m 1
 123 432 l 1
 370 432 l 1
 370 370 l 1
 123 370 l 1
432 370 m 1
 432 432 l 1
 679 432 l 1
 679 370 l 1
 432 370 l 1
123 309 m 1
 123 370 l 1
 309 370 l 1
 309 309 l 1
 123 309 l 1
494 309 m 1
 494 370 l 1
 679 370 l 1
 679 309 l 1
 494 309 l 1
123 247 m 1
 123 309 l 1
 309 309 l 1
 309 247 l 1
 123 247 l 1
494 247 m 1
 494 309 l 1
 679 309 l 1
 679 247 l 1
 494 247 l 1
123 185 m 1
 123 247 l 1
 309 247 l 1
 309 185 l 1
 123 185 l 1
494 185 m 1
 494 247 l 1
 679 247 l 1
 679 185 l 1
 494 185 l 1
123 123 m 1
 123 185 l 1
 370 185 l 1
 370 123 l 1
 123 123 l 1
432 123 m 1
 432 185 l 1
 679 185 l 1
 679 123 l 1
 432 123 l 1
62 62 m 1
 62 123 l 1
 617 123 l 1
 617 62 l 1
 62 62 l 1
62 0 m 1
 62 62 l 1
 309 62 l 1
 309 0 l 1
 62 0 l 1
370 0 m 1
 370 62 l 1
 556 62 l 1
 556 0 l 1
 370 0 l 1
EndSplineSet
EndChar

StartChar: c
Encoding: 99 99 67
Width: 679
Flags: HW
LayerCount: 2
Back
Fore
SplineSet
185 494 m 1
 185 556 l 1
 494 556 l 1
 494 494 l 1
 185 494 l 1
556 494 m 1
 556 556 l 1
 679 556 l 1
 679 494 l 1
 556 494 l 1
123 432 m 1
 123 494 l 1
 679 494 l 1
 679 432 l 1
 123 432 l 1
62 370 m 1
 62 432 l 1
 309 432 l 1
 309 370 l 1
 62 370 l 1
432 370 m 1
 432 432 l 1
 679 432 l 1
 679 370 l 1
 432 370 l 1
62 309 m 1
 62 370 l 1
 247 370 l 1
 247 309 l 1
 62 309 l 1
494 309 m 1
 494 370 l 1
 679 370 l 1
 679 309 l 1
 494 309 l 1
62 247 m 1
 62 309 l 1
 247 309 l 1
 247 247 l 1
 62 247 l 1
62 185 m 1
 62 247 l 1
 247 247 l 1
 247 185 l 1
 62 185 l 1
62 123 m 1
 62 185 l 1
 309 185 l 1
 309 123 l 1
 62 123 l 1
494 123 m 1
 494 185 l 1
 679 185 l 1
 679 123 l 1
 494 123 l 1
123 62 m 1
 123 123 l 1
 679 123 l 1
 679 62 l 1
 123 62 l 1
185 0 m 1
 185 62 l 1
 556 62 l 1
 556 0 l 1
 185 0 l 1
EndSplineSet
EndChar

StartChar: d
Encoding: 100 100 68
Width: 679
Flags: HW
LayerCount: 2
Back
Fore
SplineSet
309 679 m 1
 309 741 l 1
 617 741 l 1
 617 679 l 1
 309 679 l 1
309 617 m 1
 309 679 l 1
 617 679 l 1
 617 617 l 1
 309 617 l 1
432 556 m 1
 432 617 l 1
 617 617 l 1
 617 556 l 1
 432 556 l 1
185 494 m 1
 185 556 l 1
 370 556 l 1
 370 494 l 1
 185 494 l 1
432 494 m 1
 432 556 l 1
 617 556 l 1
 617 494 l 1
 432 494 l 1
123 432 m 1
 123 494 l 1
 617 494 l 1
 617 432 l 1
 123 432 l 1
62 370 m 1
 62 432 l 1
 309 432 l 1
 309 370 l 1
 62 370 l 1
370 370 m 1
 370 432 l 1
 617 432 l 1
 617 370 l 1
 370 370 l 1
62 309 m 1
 62 370 l 1
 247 370 l 1
 247 309 l 1
 62 309 l 1
432 309 m 1
 432 370 l 1
 617 370 l 1
 617 309 l 1
 432 309 l 1
62 247 m 1
 62 309 l 1
 247 309 l 1
 247 247 l 1
 62 247 l 1
432 247 m 1
 432 309 l 1
 617 309 l 1
 617 247 l 1
 432 247 l 1
62 185 m 1
 62 247 l 1
 247 247 l 1
 247 185 l 1
 62 185 l 1
432 185 m 1
 432 247 l 1
 617 247 l 1
 617 185 l 1
 432 185 l 1
62 123 m 1
 62 185 l 1
 309 185 l 1
 309 123 l 1
 62 123 l 1
370 123 m 1
 370 185 l 1
 617 185 l 1
 617 123 l 1
 370 123 l 1
123 62 m 1
 123 123 l 1
 679 123 l 1
 679 62 l 1
 123 62 l 1
185 0 m 1
 185 62 l 1
 370 62 l 1
 370 0 l 1
 185 0 l 1
432 0 m 1
 432 62 l 1
 679 62 l 1
 679 0 l 1
 432 0 l 1
EndSplineSet
EndChar

StartChar: e
Encoding: 101 101 69
Width: 679
Flags: HW
LayerCount: 2
Back
Fore
SplineSet
185 494 m 1
 185 556 l 1
 556 556 l 1
 556 494 l 1
 185 494 l 1
123 432 m 1
 123 494 l 1
 617 494 l 1
 617 432 l 1
 123 432 l 1
62 370 m 1
 62 432 l 1
 247 432 l 1
 247 370 l 1
 62 370 l 1
494 370 m 1
 494 432 l 1
 679 432 l 1
 679 370 l 1
 494 370 l 1
62 309 m 1
 62 370 l 1
 679 370 l 1
 679 309 l 1
 62 309 l 1
62 247 m 1
 62 309 l 1
 679 309 l 1
 679 247 l 1
 62 247 l 1
62 185 m 1
 62 247 l 1
 247 247 l 1
 247 185 l 1
 62 185 l 1
62 123 m 1
 62 185 l 1
 309 185 l 1
 309 123 l 1
 62 123 l 1
494 123 m 1
 494 185 l 1
 679 185 l 1
 679 123 l 1
 494 123 l 1
123 62 m 1
 123 123 l 1
 679 123 l 1
 679 62 l 1
 123 62 l 1
185 0 m 1
 185 62 l 1
 556 62 l 1
 556 0 l 1
 185 0 l 1
EndSplineSet
EndChar

StartChar: f
Encoding: 102 102 70
Width: 679
Flags: HW
LayerCount: 2
Back
Fore
SplineSet
247 679 m 1
 247 741 l 1
 617 741 l 1
 617 679 l 1
 247 679 l 1
185 617 m 1
 185 679 l 1
 617 679 l 1
 617 617 l 1
 185 617 l 1
185 556 m 1
 185 617 l 1
 370 617 l 1
 370 556 l 1
 185 556 l 1
62 494 m 1
 62 556 l 1
 556 556 l 1
 556 494 l 1
 62 494 l 1
62 432 m 1
 62 494 l 1
 556 494 l 1
 556 432 l 1
 62 432 l 1
185 370 m 1
 185 432 l 1
 370 432 l 1
 370 370 l 1
 185 370 l 1
185 309 m 1
 185 370 l 1
 370 370 l 1
 370 309 l 1
 185 309 l 1
185 247 m 1
 185 309 l 1
 370 309 l 1
 370 247 l 1
 185 247 l 1
185 185 m 1
 185 247 l 1
 370 247 l 1
 370 185 l 1
 185 185 l 1
185 123 m 1
 185 185 l 1
 370 185 l 1
 370 123 l 1
 185 123 l 1
62 62 m 1
 62 123 l 1
 556 123 l 1
 556 62 l 1
 62 62 l 1
62 0 m 1
 62 62 l 1
 556 62 l 1
 556 0 l 1
 62 0 l 1
EndSplineSet
EndChar

StartChar: g
Encoding: 103 103 71
Width: 679
Flags: HW
LayerCount: 2
Back
Fore
SplineSet
185 494 m 1
 185 556 l 1
 370 556 l 1
 370 494 l 1
 185 494 l 1
432 494 m 1
 432 556 l 1
 679 556 l 1
 679 494 l 1
 432 494 l 1
123 432 m 1
 123 494 l 1
 679 494 l 1
 679 432 l 1
 123 432 l 1
62 370 m 1
 62 432 l 1
 309 432 l 1
 309 370 l 1
 62 370 l 1
370 370 m 1
 370 432 l 1
 617 432 l 1
 617 370 l 1
 370 370 l 1
62 309 m 1
 62 370 l 1
 247 370 l 1
 247 309 l 1
 62 309 l 1
432 309 m 1
 432 370 l 1
 617 370 l 1
 617 309 l 1
 432 309 l 1
62 247 m 1
 62 309 l 1
 247 309 l 1
 247 247 l 1
 62 247 l 1
432 247 m 1
 432 309 l 1
 617 309 l 1
 617 247 l 1
 432 247 l 1
62 185 m 1
 62 247 l 1
 247 247 l 1
 247 185 l 1
 62 185 l 1
432 185 m 1
 432 247 l 1
 617 247 l 1
 617 185 l 1
 432 185 l 1
62 123 m 1
 62 185 l 1
 309 185 l 1
 309 123 l 1
 62 123 l 1
370 123 m 1
 370 185 l 1
 617 185 l 1
 617 123 l 1
 370 123 l 1
123 62 m 1
 123 123 l 1
 617 123 l 1
 617 62 l 1
 123 62 l 1
185 0 m 1
 185 62 l 1
 370 62 l 1
 370 0 l 1
 185 0 l 1
432 0 m 1
 432 62 l 1
 617 62 l 1
 617 0 l 1
 432 0 l 1
432 -62 m 1
 432 0 l 1
 617 0 l 1
 617 -62 l 1
 432 -62 l 1
432 -123 m 1
 432 -62 l 1
 617 -62 l 1
 617 -123 l 1
 432 -123 l 1
123 -185 m 1
 123 -123 l 1
 556 -123 l 1
 556 -185 l 1
 123 -185 l 1
123 -247 m 1
 123 -185 l 1
 494 -185 l 1
 494 -247 l 1
 123 -247 l 1
EndSplineSet
EndChar

StartChar: h
Encoding: 104 104 72
Width: 679
Flags: HW
LayerCount: 2
Back
Fore
SplineSet
62 679 m 1
 62 741 l 1
 309 741 l 1
 309 679 l 1
 62 679 l 1
62 617 m 1
 62 679 l 1
 309 679 l 1
 309 617 l 1
 62 617 l 1
123 556 m 1
 123 617 l 1
 309 617 l 1
 309 556 l 1
 123 556 l 1
123 494 m 1
 123 556 l 1
 309 556 l 1
 309 494 l 1
 123 494 l 1
370 494 m 1
 370 556 l 1
 556 556 l 1
 556 494 l 1
 370 494 l 1
123 432 m 1
 123 494 l 1
 617 494 l 1
 617 432 l 1
 123 432 l 1
123 370 m 1
 123 432 l 1
 370 432 l 1
 370 370 l 1
 123 370 l 1
432 370 m 1
 432 432 l 1
 617 432 l 1
 617 370 l 1
 432 370 l 1
123 309 m 1
 123 370 l 1
 309 370 l 1
 309 309 l 1
 123 309 l 1
432 309 m 1
 432 370 l 1
 617 370 l 1
 617 309 l 1
 432 309 l 1
123 247 m 1
 123 309 l 1
 309 309 l 1
 309 247 l 1
 123 247 l 1
432 247 m 1
 432 309 l 1
 617 309 l 1
 617 247 l 1
 432 247 l 1
123 185 m 1
 123 247 l 1
 309 247 l 1
 309 185 l 1
 123 185 l 1
432 185 m 1
 432 247 l 1
 617 247 l 1
 617 185 l 1
 432 185 l 1
123 123 m 1
 123 185 l 1
 309 185 l 1
 309 123 l 1
 123 123 l 1
432 123 m 1
 432 185 l 1
 617 185 l 1
 617 123 l 1
 432 123 l 1
62 62 m 1
 62 123 l 1
 309 123 l 1
 309 62 l 1
 62 62 l 1
432 62 m 1
 432 123 l 1
 679 123 l 1
 679 62 l 1
 432 62 l 1
62 0 m 1
 62 62 l 1
 309 62 l 1
 309 0 l 1
 62 0 l 1
432 0 m 1
 432 62 l 1
 679 62 l 1
 679 0 l 1
 432 0 l 1
EndSplineSet
EndChar

StartChar: i
Encoding: 105 105 73
Width: 679
Flags: HW
LayerCount: 2
Back
Fore
SplineSet
247 741 m 1
 247 802 l 1
 432 802 l 1
 432 741 l 1
 247 741 l 1
247 679 m 1
 247 741 l 1
 432 741 l 1
 432 679 l 1
 247 679 l 1
247 617 m 1
 247 679 l 1
 432 679 l 1
 432 617 l 1
 247 617 l 1
123 494 m 1
 123 556 l 1
 432 556 l 1
 432 494 l 1
 123 494 l 1
123 432 m 1
 123 494 l 1
 432 494 l 1
 432 432 l 1
 123 432 l 1
247 370 m 1
 247 432 l 1
 432 432 l 1
 432 370 l 1
 247 370 l 1
247 309 m 1
 247 370 l 1
 432 370 l 1
 432 309 l 1
 247 309 l 1
247 247 m 1
 247 309 l 1
 432 309 l 1
 432 247 l 1
 247 247 l 1
247 185 m 1
 247 247 l 1
 432 247 l 1
 432 185 l 1
 247 185 l 1
247 123 m 1
 247 185 l 1
 432 185 l 1
 432 123 l 1
 247 123 l 1
62 62 m 1
 62 123 l 1
 617 123 l 1
 617 62 l 1
 62 62 l 1
62 0 m 1
 62 62 l 1
 617 62 l 1
 617 0 l 1
 62 0 l 1
EndSplineSet
EndChar

StartChar: j
Encoding: 106 106 74
Width: 679
Flags: HW
LayerCount: 2
Back
Fore
SplineSet
370 741 m 1
 370 802 l 1
 556 802 l 1
 556 741 l 1
 370 741 l 1
370 679 m 1
 370 741 l 1
 556 741 l 1
 556 679 l 1
 370 679 l 1
370 617 m 1
 370 679 l 1
 556 679 l 1
 556 617 l 1
 370 617 l 1
185 494 m 1
 185 556 l 1
 556 556 l 1
 556 494 l 1
 185 494 l 1
185 432 m 1
 185 494 l 1
 556 494 l 1
 556 432 l 1
 185 432 l 1
370 370 m 1
 370 432 l 1
 556 432 l 1
 556 370 l 1
 370 370 l 1
370 309 m 1
 370 370 l 1
 556 370 l 1
 556 309 l 1
 370 309 l 1
370 247 m 1
 370 309 l 1
 556 309 l 1
 556 247 l 1
 370 247 l 1
370 185 m 1
 370 247 l 1
 556 247 l 1
 556 185 l 1
 370 185 l 1
370 123 m 1
 370 185 l 1
 556 185 l 1
 556 123 l 1
 370 123 l 1
370 62 m 1
 370 123 l 1
 556 123 l 1
 556 62 l 1
 370 62 l 1
370 0 m 1
 370 62 l 1
 556 62 l 1
 556 0 l 1
 370 0 l 1
370 -62 m 1
 370 0 l 1
 556 0 l 1
 556 -62 l 1
 370 -62 l 1
370 -123 m 1
 370 -62 l 1
 556 -62 l 1
 556 -123 l 1
 370 -123 l 1
123 -185 m 1
 123 -123 l 1
 494 -123 l 1
 494 -185 l 1
 123 -185 l 1
123 -247 m 1
 123 -185 l 1
 432 -185 l 1
 432 -247 l 1
 123 -247 l 1
EndSplineSet
EndChar

StartChar: k
Encoding: 107 107 75
Width: 679
Flags: HW
LayerCount: 2
Back
Fore
SplineSet
62 679 m 1
 62 741 l 1
 309 741 l 1
 309 679 l 1
 62 679 l 1
62 617 m 1
 62 679 l 1
 309 679 l 1
 309 617 l 1
 62 617 l 1
123 556 m 1
 123 617 l 1
 309 617 l 1
 309 556 l 1
 123 556 l 1
123 494 m 1
 123 556 l 1
 309 556 l 1
 309 494 l 1
 123 494 l 1
432 494 m 1
 432 556 l 1
 679 556 l 1
 679 494 l 1
 432 494 l 1
123 432 m 1
 123 494 l 1
 309 494 l 1
 309 432 l 1
 123 432 l 1
432 432 m 1
 432 494 l 1
 679 494 l 1
 679 432 l 1
 432 432 l 1
123 370 m 1
 123 432 l 1
 309 432 l 1
 309 370 l 1
 123 370 l 1
370 370 m 1
 370 432 l 1
 556 432 l 1
 556 370 l 1
 370 370 l 1
123 309 m 1
 123 370 l 1
 494 370 l 1
 494 309 l 1
 123 309 l 1
123 247 m 1
 123 309 l 1
 432 309 l 1
 432 247 l 1
 123 247 l 1
123 185 m 1
 123 247 l 1
 309 247 l 1
 309 185 l 1
 123 185 l 1
370 185 m 1
 370 247 l 1
 494 247 l 1
 494 185 l 1
 370 185 l 1
123 123 m 1
 123 185 l 1
 309 185 l 1
 309 123 l 1
 123 123 l 1
370 123 m 1
 370 185 l 1
 556 185 l 1
 556 123 l 1
 370 123 l 1
62 62 m 1
 62 123 l 1
 309 123 l 1
 309 62 l 1
 62 62 l 1
432 62 m 1
 432 123 l 1
 679 123 l 1
 679 62 l 1
 432 62 l 1
62 0 m 1
 62 62 l 1
 309 62 l 1
 309 0 l 1
 62 0 l 1
432 0 m 1
 432 62 l 1
 679 62 l 1
 679 0 l 1
 432 0 l 1
EndSplineSet
EndChar

StartChar: l
Encoding: 108 108 76
Width: 679
Flags: HW
LayerCount: 2
Back
Fore
SplineSet
123 679 m 1
 123 741 l 1
 432 741 l 1
 432 679 l 1
 123 679 l 1
123 617 m 1
 123 679 l 1
 432 679 l 1
 432 617 l 1
 123 617 l 1
247 556 m 1
 247 617 l 1
 432 617 l 1
 432 556 l 1
 247 556 l 1
247 494 m 1
 247 556 l 1
 432 556 l 1
 432 494 l 1
 247 494 l 1
247 432 m 1
 247 494 l 1
 432 494 l 1
 432 432 l 1
 247 432 l 1
247 370 m 1
 247 432 l 1
 432 432 l 1
 432 370 l 1
 247 370 l 1
247 309 m 1
 247 370 l 1
 432 370 l 1
 432 309 l 1
 247 309 l 1
247 247 m 1
 247 309 l 1
 432 309 l 1
 432 247 l 1
 247 247 l 1
247 185 m 1
 247 247 l 1
 432 247 l 1
 432 185 l 1
 247 185 l 1
247 123 m 1
 247 185 l 1
 432 185 l 1
 432 123 l 1
 247 123 l 1
62 62 m 1
 62 123 l 1
 617 123 l 1
 617 62 l 1
 62 62 l 1
62 0 m 1
 62 62 l 1
 617 62 l 1
 617 0 l 1
 62 0 l 1
EndSplineSet
EndChar

StartChar: m
Encoding: 109 109 77
Width: 679
Flags: HW
LayerCount: 2
Back
Fore
SplineSet
62 494 m 1
 62 556 l 1
 185 556 l 1
 185 494 l 1
 62 494 l 1
247 494 m 1
 247 556 l 1
 432 556 l 1
 432 494 l 1
 247 494 l 1
494 494 m 1
 494 556 l 1
 617 556 l 1
 617 494 l 1
 494 494 l 1
62 432 m 1
 62 494 l 1
 679 494 l 1
 679 432 l 1
 62 432 l 1
62 370 m 1
 62 432 l 1
 247 432 l 1
 247 370 l 1
 62 370 l 1
309 370 m 1
 309 432 l 1
 432 432 l 1
 432 370 l 1
 309 370 l 1
494 370 m 1
 494 432 l 1
 679 432 l 1
 679 370 l 1
 494 370 l 1
62 309 m 1
 62 370 l 1
 247 370 l 1
 247 309 l 1
 62 309 l 1
309 309 m 1
 309 370 l 1
 432 370 l 1
 432 309 l 1
 309 309 l 1
494 309 m 1
 494 370 l 1
 679 370 l 1
 679 309 l 1
 494 309 l 1
62 247 m 1
 62 309 l 1
 247 309 l 1
 247 247 l 1
 62 247 l 1
309 247 m 1
 309 309 l 1
 432 309 l 1
 432 247 l 1
 309 247 l 1
494 247 m 1
 494 309 l 1
 679 309 l 1
 679 247 l 1
 494 247 l 1
62 185 m 1
 62 247 l 1
 247 247 l 1
 247 185 l 1
 62 185 l 1
309 185 m 1
 309 247 l 1
 432 247 l 1
 432 185 l 1
 309 185 l 1
494 185 m 1
 494 247 l 1
 679 247 l 1
 679 185 l 1
 494 185 l 1
62 123 m 1
 62 185 l 1
 247 185 l 1
 247 123 l 1
 62 123 l 1
309 123 m 1
 309 185 l 1
 432 185 l 1
 432 123 l 1
 309 123 l 1
494 123 m 1
 494 185 l 1
 679 185 l 1
 679 123 l 1
 494 123 l 1
62 62 m 1
 62 123 l 1
 247 123 l 1
 247 62 l 1
 62 62 l 1
309 62 m 1
 309 123 l 1
 432 123 l 1
 432 62 l 1
 309 62 l 1
494 62 m 1
 494 123 l 1
 679 123 l 1
 679 62 l 1
 494 62 l 1
62 0 m 1
 62 62 l 1
 247 62 l 1
 247 0 l 1
 62 0 l 1
494 0 m 1
 494 62 l 1
 679 62 l 1
 679 0 l 1
 494 0 l 1
EndSplineSet
EndChar

StartChar: n
Encoding: 110 110 78
Width: 679
Flags: HW
LayerCount: 2
Back
Fore
SplineSet
62 494 m 1
 62 556 l 1
 309 556 l 1
 309 494 l 1
 62 494 l 1
370 494 m 1
 370 556 l 1
 556 556 l 1
 556 494 l 1
 370 494 l 1
62 432 m 1
 62 494 l 1
 617 494 l 1
 617 432 l 1
 62 432 l 1
123 370 m 1
 123 432 l 1
 370 432 l 1
 370 370 l 1
 123 370 l 1
432 370 m 1
 432 432 l 1
 617 432 l 1
 617 370 l 1
 432 370 l 1
123 309 m 1
 123 370 l 1
 309 370 l 1
 309 309 l 1
 123 309 l 1
432 309 m 1
 432 370 l 1
 617 370 l 1
 617 309 l 1
 432 309 l 1
123 247 m 1
 123 309 l 1
 309 309 l 1
 309 247 l 1
 123 247 l 1
432 247 m 1
 432 309 l 1
 617 309 l 1
 617 247 l 1
 432 247 l 1
123 185 m 1
 123 247 l 1
 309 247 l 1
 309 185 l 1
 123 185 l 1
432 185 m 1
 432 247 l 1
 617 247 l 1
 617 185 l 1
 432 185 l 1
123 123 m 1
 123 185 l 1
 309 185 l 1
 309 123 l 1
 123 123 l 1
432 123 m 1
 432 185 l 1
 617 185 l 1
 617 123 l 1
 432 123 l 1
62 62 m 1
 62 123 l 1
 309 123 l 1
 309 62 l 1
 62 62 l 1
432 62 m 1
 432 123 l 1
 679 123 l 1
 679 62 l 1
 432 62 l 1
62 0 m 1
 62 62 l 1
 309 62 l 1
 309 0 l 1
 62 0 l 1
432 0 m 1
 432 62 l 1
 679 62 l 1
 679 0 l 1
 432 0 l 1
EndSplineSet
EndChar

StartChar: o
Encoding: 111 111 79
Width: 679
Flags: HW
LayerCount: 2
Back
Fore
SplineSet
185 494 m 1
 185 556 l 1
 556 556 l 1
 556 494 l 1
 185 494 l 1
123 432 m 1
 123 494 l 1
 617 494 l 1
 617 432 l 1
 123 432 l 1
62 370 m 1
 62 432 l 1
 309 432 l 1
 309 370 l 1
 62 370 l 1
432 370 m 1
 432 432 l 1
 679 432 l 1
 679 370 l 1
 432 370 l 1
62 309 m 1
 62 370 l 1
 247 370 l 1
 247 309 l 1
 62 309 l 1
494 309 m 1
 494 370 l 1
 679 370 l 1
 679 309 l 1
 494 309 l 1
62 247 m 1
 62 309 l 1
 247 309 l 1
 247 247 l 1
 62 247 l 1
494 247 m 1
 494 309 l 1
 679 309 l 1
 679 247 l 1
 494 247 l 1
62 185 m 1
 62 247 l 1
 247 247 l 1
 247 185 l 1
 62 185 l 1
494 185 m 1
 494 247 l 1
 679 247 l 1
 679 185 l 1
 494 185 l 1
62 123 m 1
 62 185 l 1
 309 185 l 1
 309 123 l 1
 62 123 l 1
432 123 m 1
 432 185 l 1
 679 185 l 1
 679 123 l 1
 432 123 l 1
123 62 m 1
 123 123 l 1
 617 123 l 1
 617 62 l 1
 123 62 l 1
185 0 m 1
 185 62 l 1
 556 62 l 1
 556 0 l 1
 185 0 l 1
EndSplineSet
EndChar

StartChar: p
Encoding: 112 112 80
Width: 679
Flags: HW
LayerCount: 2
Back
Fore
SplineSet
62 494 m 1
 62 556 l 1
 309 556 l 1
 309 494 l 1
 62 494 l 1
370 494 m 1
 370 556 l 1
 556 556 l 1
 556 494 l 1
 370 494 l 1
62 432 m 1
 62 494 l 1
 617 494 l 1
 617 432 l 1
 62 432 l 1
123 370 m 1
 123 432 l 1
 370 432 l 1
 370 370 l 1
 123 370 l 1
432 370 m 1
 432 432 l 1
 679 432 l 1
 679 370 l 1
 432 370 l 1
123 309 m 1
 123 370 l 1
 309 370 l 1
 309 309 l 1
 123 309 l 1
494 309 m 1
 494 370 l 1
 679 370 l 1
 679 309 l 1
 494 309 l 1
123 247 m 1
 123 309 l 1
 309 309 l 1
 309 247 l 1
 123 247 l 1
494 247 m 1
 494 309 l 1
 679 309 l 1
 679 247 l 1
 494 247 l 1
123 185 m 1
 123 247 l 1
 309 247 l 1
 309 185 l 1
 123 185 l 1
494 185 m 1
 494 247 l 1
 679 247 l 1
 679 185 l 1
 494 185 l 1
123 123 m 1
 123 185 l 1
 370 185 l 1
 370 123 l 1
 123 123 l 1
432 123 m 1
 432 185 l 1
 679 185 l 1
 679 123 l 1
 432 123 l 1
123 62 m 1
 123 123 l 1
 617 123 l 1
 617 62 l 1
 123 62 l 1
123 0 m 1
 123 62 l 1
 309 62 l 1
 309 0 l 1
 123 0 l 1
370 0 m 1
 370 62 l 1
 556 62 l 1
 556 0 l 1
 370 0 l 1
123 -62 m 1
 123 0 l 1
 309 0 l 1
 309 -62 l 1
 123 -62 l 1
123 -123 m 1
 123 -62 l 1
 309 -62 l 1
 309 -123 l 1
 123 -123 l 1
62 -185 m 1
 62 -123 l 1
 432 -123 l 1
 432 -185 l 1
 62 -185 l 1
62 -247 m 1
 62 -185 l 1
 432 -185 l 1
 432 -247 l 1
 62 -247 l 1
EndSplineSet
EndChar

StartChar: q
Encoding: 113 113 81
Width: 679
Flags: HW
LayerCount: 2
Back
Fore
SplineSet
185 494 m 1
 185 556 l 1
 370 556 l 1
 370 494 l 1
 185 494 l 1
432 494 m 1
 432 556 l 1
 679 556 l 1
 679 494 l 1
 432 494 l 1
123 432 m 1
 123 494 l 1
 679 494 l 1
 679 432 l 1
 123 432 l 1
62 370 m 1
 62 432 l 1
 309 432 l 1
 309 370 l 1
 62 370 l 1
370 370 m 1
 370 432 l 1
 617 432 l 1
 617 370 l 1
 370 370 l 1
62 309 m 1
 62 370 l 1
 247 370 l 1
 247 309 l 1
 62 309 l 1
432 309 m 1
 432 370 l 1
 617 370 l 1
 617 309 l 1
 432 309 l 1
62 247 m 1
 62 309 l 1
 247 309 l 1
 247 247 l 1
 62 247 l 1
432 247 m 1
 432 309 l 1
 617 309 l 1
 617 247 l 1
 432 247 l 1
62 185 m 1
 62 247 l 1
 247 247 l 1
 247 185 l 1
 62 185 l 1
432 185 m 1
 432 247 l 1
 617 247 l 1
 617 185 l 1
 432 185 l 1
62 123 m 1
 62 185 l 1
 309 185 l 1
 309 123 l 1
 62 123 l 1
370 123 m 1
 370 185 l 1
 617 185 l 1
 617 123 l 1
 370 123 l 1
123 62 m 1
 123 123 l 1
 617 123 l 1
 617 62 l 1
 123 62 l 1
185 0 m 1
 185 62 l 1
 370 62 l 1
 370 0 l 1
 185 0 l 1
432 0 m 1
 432 62 l 1
 617 62 l 1
 617 0 l 1
 432 0 l 1
432 -62 m 1
 432 0 l 1
 617 0 l 1
 617 -62 l 1
 432 -62 l 1
432 -123 m 1
 432 -62 l 1
 617 -62 l 1
 617 -123 l 1
 432 -123 l 1
309 -185 m 1
 309 -123 l 1
 679 -123 l 1
 679 -185 l 1
 309 -185 l 1
309 -247 m 1
 309 -185 l 1
 679 -185 l 1
 679 -247 l 1
 309 -247 l 1
EndSplineSet
EndChar

StartChar: r
Encoding: 114 114 82
Width: 679
Flags: HW
LayerCount: 2
Back
Fore
SplineSet
62 494 m 1
 62 556 l 1
 309 556 l 1
 309 494 l 1
 62 494 l 1
370 494 m 1
 370 556 l 1
 617 556 l 1
 617 494 l 1
 370 494 l 1
62 432 m 1
 62 494 l 1
 679 494 l 1
 679 432 l 1
 62 432 l 1
185 370 m 1
 185 432 l 1
 370 432 l 1
 370 370 l 1
 185 370 l 1
494 370 m 1
 494 432 l 1
 617 432 l 1
 617 370 l 1
 494 370 l 1
185 309 m 1
 185 370 l 1
 370 370 l 1
 370 309 l 1
 185 309 l 1
185 247 m 1
 185 309 l 1
 370 309 l 1
 370 247 l 1
 185 247 l 1
185 185 m 1
 185 247 l 1
 370 247 l 1
 370 185 l 1
 185 185 l 1
185 123 m 1
 185 185 l 1
 370 185 l 1
 370 123 l 1
 185 123 l 1
62 62 m 1
 62 123 l 1
 556 123 l 1
 556 62 l 1
 62 62 l 1
62 0 m 1
 62 62 l 1
 556 62 l 1
 556 0 l 1
 62 0 l 1
EndSplineSet
EndChar

StartChar: s
Encoding: 115 115 83
Width: 679
Flags: HW
LayerCount: 2
Back
Fore
SplineSet
185 494 m 1
 185 556 l 1
 432 556 l 1
 432 494 l 1
 185 494 l 1
494 494 m 1
 494 556 l 1
 617 556 l 1
 617 494 l 1
 494 494 l 1
123 432 m 1
 123 494 l 1
 617 494 l 1
 617 432 l 1
 123 432 l 1
123 370 m 1
 123 432 l 1
 309 432 l 1
 309 370 l 1
 123 370 l 1
494 370 m 1
 494 432 l 1
 617 432 l 1
 617 370 l 1
 494 370 l 1
123 309 m 1
 123 370 l 1
 370 370 l 1
 370 309 l 1
 123 309 l 1
185 247 m 1
 185 309 l 1
 556 309 l 1
 556 247 l 1
 185 247 l 1
370 185 m 1
 370 247 l 1
 617 247 l 1
 617 185 l 1
 370 185 l 1
123 123 m 1
 123 185 l 1
 247 185 l 1
 247 123 l 1
 123 123 l 1
432 123 m 1
 432 185 l 1
 617 185 l 1
 617 123 l 1
 432 123 l 1
123 62 m 1
 123 123 l 1
 617 123 l 1
 617 62 l 1
 123 62 l 1
123 0 m 1
 123 62 l 1
 247 62 l 1
 247 0 l 1
 123 0 l 1
309 0 m 1
 309 62 l 1
 556 62 l 1
 556 0 l 1
 309 0 l 1
EndSplineSet
EndChar

StartChar: t
Encoding: 116 116 84
Width: 679
Flags: HW
LayerCount: 2
Back
Fore
SplineSet
185 679 m 1
 185 741 l 1
 370 741 l 1
 370 679 l 1
 185 679 l 1
185 617 m 1
 185 679 l 1
 370 679 l 1
 370 617 l 1
 185 617 l 1
185 556 m 1
 185 617 l 1
 370 617 l 1
 370 556 l 1
 185 556 l 1
62 494 m 1
 62 556 l 1
 617 556 l 1
 617 494 l 1
 62 494 l 1
62 432 m 1
 62 494 l 1
 617 494 l 1
 617 432 l 1
 62 432 l 1
185 370 m 1
 185 432 l 1
 370 432 l 1
 370 370 l 1
 185 370 l 1
185 309 m 1
 185 370 l 1
 370 370 l 1
 370 309 l 1
 185 309 l 1
185 247 m 1
 185 309 l 1
 370 309 l 1
 370 247 l 1
 185 247 l 1
185 185 m 1
 185 247 l 1
 370 247 l 1
 370 185 l 1
 185 185 l 1
185 123 m 1
 185 185 l 1
 370 185 l 1
 370 123 l 1
 185 123 l 1
556 123 m 1
 556 185 l 1
 679 185 l 1
 679 123 l 1
 556 123 l 1
185 62 m 1
 185 123 l 1
 679 123 l 1
 679 62 l 1
 185 62 l 1
247 0 m 1
 247 62 l 1
 556 62 l 1
 556 0 l 1
 247 0 l 1
EndSplineSet
EndChar

StartChar: u
Encoding: 117 117 85
Width: 679
Flags: HW
LayerCount: 2
Back
Fore
SplineSet
62 494 m 1
 62 556 l 1
 309 556 l 1
 309 494 l 1
 62 494 l 1
370 494 m 1
 370 556 l 1
 617 556 l 1
 617 494 l 1
 370 494 l 1
62 432 m 1
 62 494 l 1
 309 494 l 1
 309 432 l 1
 62 432 l 1
370 432 m 1
 370 494 l 1
 617 494 l 1
 617 432 l 1
 370 432 l 1
123 370 m 1
 123 432 l 1
 309 432 l 1
 309 370 l 1
 123 370 l 1
432 370 m 1
 432 432 l 1
 617 432 l 1
 617 370 l 1
 432 370 l 1
123 309 m 1
 123 370 l 1
 309 370 l 1
 309 309 l 1
 123 309 l 1
432 309 m 1
 432 370 l 1
 617 370 l 1
 617 309 l 1
 432 309 l 1
123 247 m 1
 123 309 l 1
 309 309 l 1
 309 247 l 1
 123 247 l 1
432 247 m 1
 432 309 l 1
 617 309 l 1
 617 247 l 1
 432 247 l 1
123 185 m 1
 123 247 l 1
 309 247 l 1
 309 185 l 1
 123 185 l 1
432 185 m 1
 432 247 l 1
 617 247 l 1
 617 185 l 1
 432 185 l 1
123 123 m 1
 123 185 l 1
 309 185 l 1
 309 123 l 1
 123 123 l 1
370 123 m 1
 370 185 l 1
 617 185 l 1
 617 123 l 1
 370 123 l 1
123 62 m 1
 123 123 l 1
 679 123 l 1
 679 62 l 1
 123 62 l 1
185 0 m 1
 185 62 l 1
 370 62 l 1
 370 0 l 1
 185 0 l 1
432 0 m 1
 432 62 l 1
 679 62 l 1
 679 0 l 1
 432 0 l 1
EndSplineSet
EndChar

StartChar: v
Encoding: 118 118 86
Width: 679
Flags: HW
LayerCount: 2
Back
Fore
SplineSet
62 494 m 1
 62 556 l 1
 309 556 l 1
 309 494 l 1
 62 494 l 1
432 494 m 1
 432 556 l 1
 679 556 l 1
 679 494 l 1
 432 494 l 1
62 432 m 1
 62 494 l 1
 309 494 l 1
 309 432 l 1
 62 432 l 1
432 432 m 1
 432 494 l 1
 679 494 l 1
 679 432 l 1
 432 432 l 1
123 370 m 1
 123 432 l 1
 309 432 l 1
 309 370 l 1
 123 370 l 1
432 370 m 1
 432 432 l 1
 617 432 l 1
 617 370 l 1
 432 370 l 1
123 309 m 1
 123 370 l 1
 309 370 l 1
 309 309 l 1
 123 309 l 1
432 309 m 1
 432 370 l 1
 617 370 l 1
 617 309 l 1
 432 309 l 1
185 247 m 1
 185 309 l 1
 309 309 l 1
 309 247 l 1
 185 247 l 1
432 247 m 1
 432 309 l 1
 556 309 l 1
 556 247 l 1
 432 247 l 1
185 185 m 1
 185 247 l 1
 556 247 l 1
 556 185 l 1
 185 185 l 1
247 123 m 1
 247 185 l 1
 494 185 l 1
 494 123 l 1
 247 123 l 1
247 62 m 1
 247 123 l 1
 494 123 l 1
 494 62 l 1
 247 62 l 1
309 0 m 1
 309 62 l 1
 432 62 l 1
 432 0 l 1
 309 0 l 1
EndSplineSet
EndChar

StartChar: w
Encoding: 119 119 87
Width: 679
Flags: HW
LayerCount: 2
Back
Fore
SplineSet
62 494 m 1
 62 556 l 1
 247 556 l 1
 247 494 l 1
 62 494 l 1
494 494 m 1
 494 556 l 1
 679 556 l 1
 679 494 l 1
 494 494 l 1
62 432 m 1
 62 494 l 1
 247 494 l 1
 247 432 l 1
 62 432 l 1
494 432 m 1
 494 494 l 1
 679 494 l 1
 679 432 l 1
 494 432 l 1
123 370 m 1
 123 432 l 1
 247 432 l 1
 247 370 l 1
 123 370 l 1
309 370 m 1
 309 432 l 1
 432 432 l 1
 432 370 l 1
 309 370 l 1
494 370 m 1
 494 432 l 1
 617 432 l 1
 617 370 l 1
 494 370 l 1
123 309 m 1
 123 370 l 1
 247 370 l 1
 247 309 l 1
 123 309 l 1
309 309 m 1
 309 370 l 1
 432 370 l 1
 432 309 l 1
 309 309 l 1
494 309 m 1
 494 370 l 1
 617 370 l 1
 617 309 l 1
 494 309 l 1
123 247 m 1
 123 309 l 1
 247 309 l 1
 247 247 l 1
 123 247 l 1
309 247 m 1
 309 309 l 1
 432 309 l 1
 432 247 l 1
 309 247 l 1
494 247 m 1
 494 309 l 1
 617 309 l 1
 617 247 l 1
 494 247 l 1
123 185 m 1
 123 247 l 1
 617 247 l 1
 617 185 l 1
 123 185 l 1
123 123 m 1
 123 185 l 1
 617 185 l 1
 617 123 l 1
 123 123 l 1
185 62 m 1
 185 123 l 1
 309 123 l 1
 309 62 l 1
 185 62 l 1
432 62 m 1
 432 123 l 1
 556 123 l 1
 556 62 l 1
 432 62 l 1
185 0 m 1
 185 62 l 1
 309 62 l 1
 309 0 l 1
 185 0 l 1
432 0 m 1
 432 62 l 1
 556 62 l 1
 556 0 l 1
 432 0 l 1
EndSplineSet
EndChar

StartChar: x
Encoding: 120 120 88
Width: 679
Flags: HW
LayerCount: 2
Back
Fore
SplineSet
62 494 m 1
 62 556 l 1
 309 556 l 1
 309 494 l 1
 62 494 l 1
432 494 m 1
 432 556 l 1
 679 556 l 1
 679 494 l 1
 432 494 l 1
62 432 m 1
 62 494 l 1
 309 494 l 1
 309 432 l 1
 62 432 l 1
432 432 m 1
 432 494 l 1
 679 494 l 1
 679 432 l 1
 432 432 l 1
185 370 m 1
 185 432 l 1
 309 432 l 1
 309 370 l 1
 185 370 l 1
432 370 m 1
 432 432 l 1
 556 432 l 1
 556 370 l 1
 432 370 l 1
185 309 m 1
 185 370 l 1
 556 370 l 1
 556 309 l 1
 185 309 l 1
247 247 m 1
 247 309 l 1
 494 309 l 1
 494 247 l 1
 247 247 l 1
247 185 m 1
 247 247 l 1
 494 247 l 1
 494 185 l 1
 247 185 l 1
185 123 m 1
 185 185 l 1
 309 185 l 1
 309 123 l 1
 185 123 l 1
432 123 m 1
 432 185 l 1
 556 185 l 1
 556 123 l 1
 432 123 l 1
62 62 m 1
 62 123 l 1
 309 123 l 1
 309 62 l 1
 62 62 l 1
432 62 m 1
 432 123 l 1
 679 123 l 1
 679 62 l 1
 432 62 l 1
62 0 m 1
 62 62 l 1
 309 62 l 1
 309 0 l 1
 62 0 l 1
432 0 m 1
 432 62 l 1
 679 62 l 1
 679 0 l 1
 432 0 l 1
EndSplineSet
EndChar

StartChar: y
Encoding: 121 121 89
Width: 679
Flags: HW
LayerCount: 2
Back
Fore
SplineSet
62 494 m 1
 62 556 l 1
 309 556 l 1
 309 494 l 1
 62 494 l 1
432 494 m 1
 432 556 l 1
 679 556 l 1
 679 494 l 1
 432 494 l 1
62 432 m 1
 62 494 l 1
 309 494 l 1
 309 432 l 1
 62 432 l 1
432 432 m 1
 432 494 l 1
 679 494 l 1
 679 432 l 1
 432 432 l 1
123 370 m 1
 123 432 l 1
 309 432 l 1
 309 370 l 1
 123 370 l 1
432 370 m 1
 432 432 l 1
 617 432 l 1
 617 370 l 1
 432 370 l 1
123 309 m 1
 123 370 l 1
 309 370 l 1
 309 309 l 1
 123 309 l 1
432 309 m 1
 432 370 l 1
 617 370 l 1
 617 309 l 1
 432 309 l 1
185 247 m 1
 185 309 l 1
 309 309 l 1
 309 247 l 1
 185 247 l 1
432 247 m 1
 432 309 l 1
 556 309 l 1
 556 247 l 1
 432 247 l 1
185 185 m 1
 185 247 l 1
 556 247 l 1
 556 185 l 1
 185 185 l 1
247 123 m 1
 247 185 l 1
 494 185 l 1
 494 123 l 1
 247 123 l 1
247 62 m 1
 247 123 l 1
 494 123 l 1
 494 62 l 1
 247 62 l 1
309 0 m 1
 309 62 l 1
 432 62 l 1
 432 0 l 1
 309 0 l 1
247 -62 m 1
 247 0 l 1
 432 0 l 1
 432 -62 l 1
 247 -62 l 1
247 -123 m 1
 247 -62 l 1
 370 -62 l 1
 370 -123 l 1
 247 -123 l 1
185 -185 m 1
 185 -123 l 1
 432 -123 l 1
 432 -185 l 1
 185 -185 l 1
185 -247 m 1
 185 -185 l 1
 432 -185 l 1
 432 -247 l 1
 185 -247 l 1
EndSplineSet
EndChar

StartChar: z
Encoding: 122 122 90
Width: 679
Flags: HW
LayerCount: 2
Back
Fore
SplineSet
123 494 m 1
 123 556 l 1
 617 556 l 1
 617 494 l 1
 123 494 l 1
123 432 m 1
 123 494 l 1
 617 494 l 1
 617 432 l 1
 123 432 l 1
123 370 m 1
 123 432 l 1
 247 432 l 1
 247 370 l 1
 123 370 l 1
370 370 m 1
 370 432 l 1
 556 432 l 1
 556 370 l 1
 370 370 l 1
123 309 m 1
 123 370 l 1
 247 370 l 1
 247 309 l 1
 123 309 l 1
309 309 m 1
 309 370 l 1
 494 370 l 1
 494 309 l 1
 309 309 l 1
309 247 m 1
 309 309 l 1
 432 309 l 1
 432 247 l 1
 309 247 l 1
247 185 m 1
 247 247 l 1
 432 247 l 1
 432 185 l 1
 247 185 l 1
494 185 m 1
 494 247 l 1
 617 247 l 1
 617 185 l 1
 494 185 l 1
185 123 m 1
 185 185 l 1
 370 185 l 1
 370 123 l 1
 185 123 l 1
494 123 m 1
 494 185 l 1
 617 185 l 1
 617 123 l 1
 494 123 l 1
123 62 m 1
 123 123 l 1
 617 123 l 1
 617 62 l 1
 123 62 l 1
123 0 m 1
 123 62 l 1
 617 62 l 1
 617 0 l 1
 123 0 l 1
EndSplineSet
EndChar

StartChar: braceleft
Encoding: 123 123 91
Width: 679
Flags: HW
LayerCount: 2
Back
Fore
SplineSet
309 679 m 1
 309 741 l 1
 556 741 l 1
 556 679 l 1
 309 679 l 1
247 617 m 1
 247 679 l 1
 556 679 l 1
 556 617 l 1
 247 617 l 1
247 556 m 1
 247 617 l 1
 432 617 l 1
 432 556 l 1
 247 556 l 1
247 494 m 1
 247 556 l 1
 432 556 l 1
 432 494 l 1
 247 494 l 1
247 432 m 1
 247 494 l 1
 432 494 l 1
 432 432 l 1
 247 432 l 1
247 370 m 1
 247 432 l 1
 432 432 l 1
 432 370 l 1
 247 370 l 1
185 309 m 1
 185 370 l 1
 370 370 l 1
 370 309 l 1
 185 309 l 1
123 247 m 1
 123 309 l 1
 309 309 l 1
 309 247 l 1
 123 247 l 1
185 185 m 1
 185 247 l 1
 370 247 l 1
 370 185 l 1
 185 185 l 1
247 123 m 1
 247 185 l 1
 432 185 l 1
 432 123 l 1
 247 123 l 1
247 62 m 1
 247 123 l 1
 432 123 l 1
 432 62 l 1
 247 62 l 1
247 0 m 1
 247 62 l 1
 432 62 l 1
 432 0 l 1
 247 0 l 1
247 -62 m 1
 247 0 l 1
 432 0 l 1
 432 -62 l 1
 247 -62 l 1
247 -123 m 1
 247 -62 l 1
 432 -62 l 1
 432 -123 l 1
 247 -123 l 1
247 -185 m 1
 247 -123 l 1
 556 -123 l 1
 556 -185 l 1
 247 -185 l 1
309 -247 m 1
 309 -185 l 1
 556 -185 l 1
 556 -247 l 1
 309 -247 l 1
EndSplineSet
EndChar

StartChar: bar
Encoding: 124 124 92
Width: 679
Flags: HW
LayerCount: 2
Back
Fore
SplineSet
247 741 m 1
 247 802 l 1
 432 802 l 1
 432 741 l 1
 247 741 l 1
247 679 m 1
 247 741 l 1
 432 741 l 1
 432 679 l 1
 247 679 l 1
247 617 m 1
 247 679 l 1
 432 679 l 1
 432 617 l 1
 247 617 l 1
247 556 m 1
 247 617 l 1
 432 617 l 1
 432 556 l 1
 247 556 l 1
247 494 m 1
 247 556 l 1
 432 556 l 1
 432 494 l 1
 247 494 l 1
247 432 m 1
 247 494 l 1
 432 494 l 1
 432 432 l 1
 247 432 l 1
247 370 m 1
 247 432 l 1
 432 432 l 1
 432 370 l 1
 247 370 l 1
247 309 m 1
 247 370 l 1
 432 370 l 1
 432 309 l 1
 247 309 l 1
247 247 m 1
 247 309 l 1
 432 309 l 1
 432 247 l 1
 247 247 l 1
247 185 m 1
 247 247 l 1
 432 247 l 1
 432 185 l 1
 247 185 l 1
247 123 m 1
 247 185 l 1
 432 185 l 1
 432 123 l 1
 247 123 l 1
247 62 m 1
 247 123 l 1
 432 123 l 1
 432 62 l 1
 247 62 l 1
247 0 m 1
 247 62 l 1
 432 62 l 1
 432 0 l 1
 247 0 l 1
247 -62 m 1
 247 0 l 1
 432 0 l 1
 432 -62 l 1
 247 -62 l 1
247 -123 m 1
 247 -62 l 1
 432 -62 l 1
 432 -123 l 1
 247 -123 l 1
247 -185 m 1
 247 -123 l 1
 432 -123 l 1
 432 -185 l 1
 247 -185 l 1
247 -247 m 1
 247 -185 l 1
 432 -185 l 1
 432 -247 l 1
 247 -247 l 1
EndSplineSet
EndChar

StartChar: braceright
Encoding: 125 125 93
Width: 679
Flags: HW
LayerCount: 2
Back
Fore
SplineSet
123 679 m 1
 123 741 l 1
 370 741 l 1
 370 679 l 1
 123 679 l 1
123 617 m 1
 123 679 l 1
 432 679 l 1
 432 617 l 1
 123 617 l 1
247 556 m 1
 247 617 l 1
 432 617 l 1
 432 556 l 1
 247 556 l 1
247 494 m 1
 247 556 l 1
 432 556 l 1
 432 494 l 1
 247 494 l 1
247 432 m 1
 247 494 l 1
 432 494 l 1
 432 432 l 1
 247 432 l 1
247 370 m 1
 247 432 l 1
 432 432 l 1
 432 370 l 1
 247 370 l 1
309 309 m 1
 309 370 l 1
 494 370 l 1
 494 309 l 1
 309 309 l 1
370 247 m 1
 370 309 l 1
 556 309 l 1
 556 247 l 1
 370 247 l 1
309 185 m 1
 309 247 l 1
 494 247 l 1
 494 185 l 1
 309 185 l 1
247 123 m 1
 247 185 l 1
 432 185 l 1
 432 123 l 1
 247 123 l 1
247 62 m 1
 247 123 l 1
 432 123 l 1
 432 62 l 1
 247 62 l 1
247 0 m 1
 247 62 l 1
 432 62 l 1
 432 0 l 1
 247 0 l 1
247 -62 m 1
 247 0 l 1
 432 0 l 1
 432 -62 l 1
 247 -62 l 1
247 -123 m 1
 247 -62 l 1
 432 -62 l 1
 432 -123 l 1
 247 -123 l 1
123 -185 m 1
 123 -123 l 1
 432 -123 l 1
 432 -185 l 1
 123 -185 l 1
123 -247 m 1
 123 -185 l 1
 370 -185 l 1
 370 -247 l 1
 123 -247 l 1
EndSplineSet
EndChar

StartChar: asciitilde
Encoding: 126 126 94
Width: 679
Flags: HW
LayerCount: 2
Back
Fore
SplineSet
123 494 m 1
 123 556 l 1
 370 556 l 1
 370 494 l 1
 123 494 l 1
556 494 m 1
 556 556 l 1
 617 556 l 1
 617 494 l 1
 556 494 l 1
62 432 m 1
 62 494 l 1
 617 494 l 1
 617 432 l 1
 62 432 l 1
62 370 m 1
 62 432 l 1
 123 432 l 1
 123 370 l 1
 62 370 l 1
309 370 m 1
 309 432 l 1
 556 432 l 1
 556 370 l 1
 309 370 l 1
EndSplineSet
EndChar

StartChar: Error
Encoding: 159 159 98
Width: 679
Flags: HW
LayerCount: 2
Back
Fore
SplineSet
123 864 m 1
 123 926 l 1
 556 926 l 1
 556 864 l 1
 123 864 l 1
62 802 m 1
 62 864 l 1
 617 864 l 1
 617 802 l 1
 62 802 l 1
0 741 m 1
 0 802 l 1
 679 802 l 1
 679 741 l 1
 0 741 l 1
0 679 m 1
 0 741 l 1
 247 741 l 1
 247 679 l 1
 0 679 l 1
432 679 m 1
 432 741 l 1
 679 741 l 1
 679 679 l 1
 432 679 l 1
0 617 m 1
 0 679 l 1
 247 679 l 1
 247 617 l 1
 0 617 l 1
432 617 m 1
 432 679 l 1
 679 679 l 1
 679 617 l 1
 432 617 l 1
0 556 m 1
 0 617 l 1
 247 617 l 1
 247 556 l 1
 0 556 l 1
432 556 m 1
 432 617 l 1
 679 617 l 1
 679 556 l 1
 432 556 l 1
0 494 m 1
 0 556 l 1
 309 556 l 1
 309 494 l 1
 0 494 l 1
62 432 m 1
 62 494 l 1
 370 494 l 1
 370 432 l 1
 62 432 l 1
123 370 m 1
 123 432 l 1
 432 432 l 1
 432 370 l 1
 123 370 l 1
185 309 m 1
 185 370 l 1
 494 370 l 1
 494 309 l 1
 185 309 l 1
247 247 m 1
 247 309 l 1
 494 309 l 1
 494 247 l 1
 247 247 l 1
247 185 m 1
 247 247 l 1
 494 247 l 1
 494 185 l 1
 247 185 l 1
247 0 m 1
 247 62 l 1
 494 62 l 1
 494 0 l 1
 247 0 l 1
185 -62 m 1
 185 0 l 1
 556 0 l 1
 556 -62 l 1
 185 -62 l 1
185 -123 m 1
 185 -62 l 1
 556 -62 l 1
 556 -123 l 1
 185 -123 l 1
247 -185 m 1
 247 -123 l 1
 494 -123 l 1
 494 -185 l 1
 247 -185 l 1
EndSplineSet
EndChar

StartChar: exclamdown
Encoding: 161 161 100
Width: 679
Flags: HW
LayerCount: 2
Back
Fore
SplineSet
247 617 m 1
 247 679 l 1
 432 679 l 1
 432 617 l 1
 247 617 l 1
185 556 m 1
 185 617 l 1
 494 617 l 1
 494 556 l 1
 185 556 l 1
247 494 m 1
 247 556 l 1
 432 556 l 1
 432 494 l 1
 247 494 l 1
247 370 m 1
 247 432 l 1
 432 432 l 1
 432 370 l 1
 247 370 l 1
247 309 m 1
 247 370 l 1
 432 370 l 1
 432 309 l 1
 247 309 l 1
247 247 m 1
 247 309 l 1
 432 309 l 1
 432 247 l 1
 247 247 l 1
247 185 m 1
 247 247 l 1
 432 247 l 1
 432 185 l 1
 247 185 l 1
247 123 m 1
 247 185 l 1
 432 185 l 1
 432 123 l 1
 247 123 l 1
247 62 m 1
 247 123 l 1
 432 123 l 1
 432 62 l 1
 247 62 l 1
247 0 m 1
 247 62 l 1
 432 62 l 1
 432 0 l 1
 247 0 l 1
247 -62 m 1
 247 0 l 1
 432 0 l 1
 432 -62 l 1
 247 -62 l 1
EndSplineSet
EndChar

StartChar: cent
Encoding: 162 162 101
Width: 679
Flags: HW
LayerCount: 2
Back
Fore
SplineSet
309 617 m 1
 309 679 l 1
 432 679 l 1
 432 617 l 1
 309 617 l 1
309 556 m 1
 309 617 l 1
 432 617 l 1
 432 556 l 1
 309 556 l 1
185 494 m 1
 185 556 l 1
 617 556 l 1
 617 494 l 1
 185 494 l 1
123 432 m 1
 123 494 l 1
 617 494 l 1
 617 432 l 1
 123 432 l 1
62 370 m 1
 62 432 l 1
 309 432 l 1
 309 370 l 1
 62 370 l 1
494 370 m 1
 494 432 l 1
 617 432 l 1
 617 370 l 1
 494 370 l 1
62 309 m 1
 62 370 l 1
 247 370 l 1
 247 309 l 1
 62 309 l 1
62 247 m 1
 62 309 l 1
 247 309 l 1
 247 247 l 1
 62 247 l 1
62 185 m 1
 62 247 l 1
 309 247 l 1
 309 185 l 1
 62 185 l 1
494 185 m 1
 494 247 l 1
 617 247 l 1
 617 185 l 1
 494 185 l 1
123 123 m 1
 123 185 l 1
 617 185 l 1
 617 123 l 1
 123 123 l 1
185 62 m 1
 185 123 l 1
 556 123 l 1
 556 62 l 1
 185 62 l 1
309 0 m 1
 309 62 l 1
 432 62 l 1
 432 0 l 1
 309 0 l 1
309 -62 m 1
 309 0 l 1
 432 0 l 1
 432 -62 l 1
 309 -62 l 1
EndSplineSet
EndChar

StartChar: sterling
Encoding: 163 163 102
Width: 679
Flags: HW
LayerCount: 2
Back
Fore
SplineSet
247 617 m 1
 247 679 l 1
 556 679 l 1
 556 617 l 1
 247 617 l 1
185 556 m 1
 185 617 l 1
 617 617 l 1
 617 556 l 1
 185 556 l 1
185 494 m 1
 185 556 l 1
 370 556 l 1
 370 494 l 1
 185 494 l 1
494 494 m 1
 494 556 l 1
 617 556 l 1
 617 494 l 1
 494 494 l 1
185 432 m 1
 185 494 l 1
 370 494 l 1
 370 432 l 1
 185 432 l 1
62 370 m 1
 62 432 l 1
 556 432 l 1
 556 370 l 1
 62 370 l 1
62 309 m 1
 62 370 l 1
 556 370 l 1
 556 309 l 1
 62 309 l 1
247 247 m 1
 247 309 l 1
 370 309 l 1
 370 247 l 1
 247 247 l 1
247 185 m 1
 247 247 l 1
 432 247 l 1
 432 185 l 1
 247 185 l 1
247 123 m 1
 247 185 l 1
 432 185 l 1
 432 123 l 1
 247 123 l 1
556 123 m 1
 556 185 l 1
 679 185 l 1
 679 123 l 1
 556 123 l 1
123 62 m 1
 123 123 l 1
 679 123 l 1
 679 62 l 1
 123 62 l 1
123 0 m 1
 123 62 l 1
 309 62 l 1
 309 0 l 1
 123 0 l 1
370 0 m 1
 370 62 l 1
 617 62 l 1
 617 0 l 1
 370 0 l 1
EndSplineSet
EndChar

StartChar: currency
Encoding: 164 164 103
Width: 679
Flags: HW
LayerCount: 2
Back
Fore
SplineSet
62 556 m 1
 62 617 l 1
 185 617 l 1
 185 556 l 1
 62 556 l 1
556 556 m 1
 556 617 l 1
 679 617 l 1
 679 556 l 1
 556 556 l 1
123 494 m 1
 123 556 l 1
 247 556 l 1
 247 494 l 1
 123 494 l 1
309 494 m 1
 309 556 l 1
 432 556 l 1
 432 494 l 1
 309 494 l 1
494 494 m 1
 494 556 l 1
 617 556 l 1
 617 494 l 1
 494 494 l 1
185 432 m 1
 185 494 l 1
 556 494 l 1
 556 432 l 1
 185 432 l 1
123 370 m 1
 123 432 l 1
 309 432 l 1
 309 370 l 1
 123 370 l 1
432 370 m 1
 432 432 l 1
 617 432 l 1
 617 370 l 1
 432 370 l 1
123 309 m 1
 123 370 l 1
 309 370 l 1
 309 309 l 1
 123 309 l 1
432 309 m 1
 432 370 l 1
 617 370 l 1
 617 309 l 1
 432 309 l 1
123 247 m 1
 123 309 l 1
 309 309 l 1
 309 247 l 1
 123 247 l 1
432 247 m 1
 432 309 l 1
 617 309 l 1
 617 247 l 1
 432 247 l 1
185 185 m 1
 185 247 l 1
 556 247 l 1
 556 185 l 1
 185 185 l 1
123 123 m 1
 123 185 l 1
 247 185 l 1
 247 123 l 1
 123 123 l 1
309 123 m 1
 309 185 l 1
 432 185 l 1
 432 123 l 1
 309 123 l 1
494 123 m 1
 494 185 l 1
 617 185 l 1
 617 123 l 1
 494 123 l 1
62 62 m 1
 62 123 l 1
 185 123 l 1
 185 62 l 1
 62 62 l 1
556 62 m 1
 556 123 l 1
 679 123 l 1
 679 62 l 1
 556 62 l 1
EndSplineSet
EndChar

StartChar: yen
Encoding: 165 165 104
Width: 679
Flags: HW
LayerCount: 2
Back
Fore
SplineSet
0 617 m 1
 0 679 l 1
 309 679 l 1
 309 617 l 1
 0 617 l 1
370 617 m 1
 370 679 l 1
 679 679 l 1
 679 617 l 1
 370 617 l 1
0 556 m 1
 0 617 l 1
 309 617 l 1
 309 556 l 1
 0 556 l 1
370 556 m 1
 370 617 l 1
 679 617 l 1
 679 556 l 1
 370 556 l 1
62 494 m 1
 62 556 l 1
 247 556 l 1
 247 494 l 1
 62 494 l 1
432 494 m 1
 432 556 l 1
 617 556 l 1
 617 494 l 1
 432 494 l 1
0 432 m 1
 0 494 l 1
 309 494 l 1
 309 432 l 1
 0 432 l 1
370 432 m 1
 370 494 l 1
 679 494 l 1
 679 432 l 1
 370 432 l 1
0 370 m 1
 0 432 l 1
 309 432 l 1
 309 370 l 1
 0 370 l 1
370 370 m 1
 370 432 l 1
 679 432 l 1
 679 370 l 1
 370 370 l 1
185 309 m 1
 185 370 l 1
 309 370 l 1
 309 309 l 1
 185 309 l 1
370 309 m 1
 370 370 l 1
 494 370 l 1
 494 309 l 1
 370 309 l 1
0 247 m 1
 0 309 l 1
 679 309 l 1
 679 247 l 1
 0 247 l 1
0 185 m 1
 0 247 l 1
 679 247 l 1
 679 185 l 1
 0 185 l 1
247 123 m 1
 247 185 l 1
 432 185 l 1
 432 123 l 1
 247 123 l 1
185 62 m 1
 185 123 l 1
 494 123 l 1
 494 62 l 1
 185 62 l 1
185 0 m 1
 185 62 l 1
 494 62 l 1
 494 0 l 1
 185 0 l 1
EndSplineSet
EndChar

StartChar: brokenbar
Encoding: 166 166 105
Width: 679
Flags: HW
LayerCount: 2
Back
Fore
SplineSet
247 741 m 1
 247 802 l 1
 432 802 l 1
 432 741 l 1
 247 741 l 1
247 679 m 1
 247 741 l 1
 432 741 l 1
 432 679 l 1
 247 679 l 1
247 617 m 1
 247 679 l 1
 432 679 l 1
 432 617 l 1
 247 617 l 1
247 556 m 1
 247 617 l 1
 432 617 l 1
 432 556 l 1
 247 556 l 1
247 494 m 1
 247 556 l 1
 432 556 l 1
 432 494 l 1
 247 494 l 1
247 432 m 1
 247 494 l 1
 432 494 l 1
 432 432 l 1
 247 432 l 1
247 370 m 1
 247 432 l 1
 432 432 l 1
 432 370 l 1
 247 370 l 1
247 123 m 1
 247 185 l 1
 432 185 l 1
 432 123 l 1
 247 123 l 1
247 62 m 1
 247 123 l 1
 432 123 l 1
 432 62 l 1
 247 62 l 1
247 0 m 1
 247 62 l 1
 432 62 l 1
 432 0 l 1
 247 0 l 1
247 -62 m 1
 247 0 l 1
 432 0 l 1
 432 -62 l 1
 247 -62 l 1
247 -123 m 1
 247 -62 l 1
 432 -62 l 1
 432 -123 l 1
 247 -123 l 1
247 -185 m 1
 247 -123 l 1
 432 -123 l 1
 432 -185 l 1
 247 -185 l 1
247 -247 m 1
 247 -185 l 1
 432 -185 l 1
 432 -247 l 1
 247 -247 l 1
EndSplineSet
EndChar

StartChar: section
Encoding: 167 167 106
Width: 679
Flags: HW
LayerCount: 2
Back
Fore
SplineSet
247 617 m 1
 247 679 l 1
 617 679 l 1
 617 617 l 1
 247 617 l 1
185 556 m 1
 185 617 l 1
 617 617 l 1
 617 556 l 1
 185 556 l 1
123 494 m 1
 123 556 l 1
 309 556 l 1
 309 494 l 1
 123 494 l 1
494 494 m 1
 494 556 l 1
 617 556 l 1
 617 494 l 1
 494 494 l 1
62 432 m 1
 62 494 l 1
 370 494 l 1
 370 432 l 1
 62 432 l 1
62 370 m 1
 62 432 l 1
 185 432 l 1
 185 370 l 1
 62 370 l 1
247 370 m 1
 247 432 l 1
 432 432 l 1
 432 370 l 1
 247 370 l 1
62 309 m 1
 62 370 l 1
 247 370 l 1
 247 309 l 1
 62 309 l 1
309 309 m 1
 309 370 l 1
 556 370 l 1
 556 309 l 1
 309 309 l 1
62 247 m 1
 62 309 l 1
 309 309 l 1
 309 247 l 1
 62 247 l 1
432 247 m 1
 432 309 l 1
 617 309 l 1
 617 247 l 1
 432 247 l 1
185 185 m 1
 185 247 l 1
 432 247 l 1
 432 185 l 1
 185 185 l 1
494 185 m 1
 494 247 l 1
 679 247 l 1
 679 185 l 1
 494 185 l 1
247 123 m 1
 247 185 l 1
 494 185 l 1
 494 123 l 1
 247 123 l 1
556 123 m 1
 556 185 l 1
 679 185 l 1
 679 123 l 1
 556 123 l 1
370 62 m 1
 370 123 l 1
 679 123 l 1
 679 62 l 1
 370 62 l 1
123 0 m 1
 123 62 l 1
 247 62 l 1
 247 0 l 1
 123 0 l 1
432 0 m 1
 432 62 l 1
 617 62 l 1
 617 0 l 1
 432 0 l 1
123 -62 m 1
 123 0 l 1
 617 0 l 1
 617 -62 l 1
 123 -62 l 1
123 -123 m 1
 123 -62 l 1
 494 -62 l 1
 494 -123 l 1
 123 -123 l 1
EndSplineSet
EndChar

StartChar: dieresis
Encoding: 168 168 107
Width: 679
Flags: HW
LayerCount: 2
Back
Fore
SplineSet
123 802 m 1
 123 864 l 1
 247 864 l 1
 247 802 l 1
 123 802 l 1
494 802 m 1
 494 864 l 1
 617 864 l 1
 617 802 l 1
 494 802 l 1
62 741 m 1
 62 802 l 1
 309 802 l 1
 309 741 l 1
 62 741 l 1
432 741 m 1
 432 802 l 1
 679 802 l 1
 679 741 l 1
 432 741 l 1
123 679 m 1
 123 741 l 1
 247 741 l 1
 247 679 l 1
 123 679 l 1
494 679 m 1
 494 741 l 1
 617 741 l 1
 617 679 l 1
 494 679 l 1
EndSplineSet
EndChar

StartChar: copyright
Encoding: 169 169 108
Width: 679
Flags: HW
LayerCount: 2
Back
Fore
SplineSet
185 679 m 1
 185 741 l 1
 494 741 l 1
 494 679 l 1
 185 679 l 1
62 617 m 1
 62 679 l 1
 617 679 l 1
 617 617 l 1
 62 617 l 1
62 556 m 1
 62 617 l 1
 185 617 l 1
 185 556 l 1
 62 556 l 1
494 556 m 1
 494 617 l 1
 617 617 l 1
 617 556 l 1
 494 556 l 1
0 494 m 1
 0 556 l 1
 123 556 l 1
 123 494 l 1
 0 494 l 1
247 494 m 1
 247 556 l 1
 432 556 l 1
 432 494 l 1
 247 494 l 1
556 494 m 1
 556 556 l 1
 679 556 l 1
 679 494 l 1
 556 494 l 1
0 432 m 1
 0 494 l 1
 123 494 l 1
 123 432 l 1
 0 432 l 1
185 432 m 1
 185 494 l 1
 432 494 l 1
 432 432 l 1
 185 432 l 1
556 432 m 1
 556 494 l 1
 679 494 l 1
 679 432 l 1
 556 432 l 1
0 370 m 1
 0 432 l 1
 123 432 l 1
 123 370 l 1
 0 370 l 1
185 370 m 1
 185 432 l 1
 309 432 l 1
 309 370 l 1
 185 370 l 1
556 370 m 1
 556 432 l 1
 679 432 l 1
 679 370 l 1
 556 370 l 1
0 309 m 1
 0 370 l 1
 123 370 l 1
 123 309 l 1
 0 309 l 1
185 309 m 1
 185 370 l 1
 309 370 l 1
 309 309 l 1
 185 309 l 1
556 309 m 1
 556 370 l 1
 679 370 l 1
 679 309 l 1
 556 309 l 1
0 247 m 1
 0 309 l 1
 123 309 l 1
 123 247 l 1
 0 247 l 1
185 247 m 1
 185 309 l 1
 432 309 l 1
 432 247 l 1
 185 247 l 1
556 247 m 1
 556 309 l 1
 679 309 l 1
 679 247 l 1
 556 247 l 1
0 185 m 1
 0 247 l 1
 123 247 l 1
 123 185 l 1
 0 185 l 1
247 185 m 1
 247 247 l 1
 432 247 l 1
 432 185 l 1
 247 185 l 1
556 185 m 1
 556 247 l 1
 679 247 l 1
 679 185 l 1
 556 185 l 1
62 123 m 1
 62 185 l 1
 185 185 l 1
 185 123 l 1
 62 123 l 1
494 123 m 1
 494 185 l 1
 617 185 l 1
 617 123 l 1
 494 123 l 1
62 62 m 1
 62 123 l 1
 617 123 l 1
 617 62 l 1
 62 62 l 1
185 0 m 1
 185 62 l 1
 494 62 l 1
 494 0 l 1
 185 0 l 1
EndSplineSet
EndChar

StartChar: ordfeminine
Encoding: 170 170 109
Width: 679
Flags: HW
LayerCount: 2
Back
Fore
SplineSet
185 741 m 1
 185 802 l 1
 494 802 l 1
 494 741 l 1
 185 741 l 1
123 679 m 1
 123 741 l 1
 556 741 l 1
 556 679 l 1
 123 679 l 1
370 617 m 1
 370 679 l 1
 556 679 l 1
 556 617 l 1
 370 617 l 1
185 556 m 1
 185 617 l 1
 556 617 l 1
 556 556 l 1
 185 556 l 1
123 494 m 1
 123 556 l 1
 556 556 l 1
 556 494 l 1
 123 494 l 1
123 432 m 1
 123 494 l 1
 309 494 l 1
 309 432 l 1
 123 432 l 1
370 432 m 1
 370 494 l 1
 556 494 l 1
 556 432 l 1
 370 432 l 1
123 370 m 1
 123 432 l 1
 617 432 l 1
 617 370 l 1
 123 370 l 1
185 309 m 1
 185 370 l 1
 432 370 l 1
 432 309 l 1
 185 309 l 1
494 309 m 1
 494 370 l 1
 617 370 l 1
 617 309 l 1
 494 309 l 1
123 185 m 1
 123 247 l 1
 617 247 l 1
 617 185 l 1
 123 185 l 1
123 123 m 1
 123 185 l 1
 617 185 l 1
 617 123 l 1
 123 123 l 1
EndSplineSet
EndChar

StartChar: guillemotleft
Encoding: 171 171 110
Width: 679
Flags: HW
LayerCount: 2
Back
Fore
SplineSet
247 370 m 1
 247 432 l 1
 309 432 l 1
 309 370 l 1
 247 370 l 1
494 370 m 1
 494 432 l 1
 556 432 l 1
 556 370 l 1
 494 370 l 1
185 309 m 1
 185 370 l 1
 309 370 l 1
 309 309 l 1
 185 309 l 1
432 309 m 1
 432 370 l 1
 556 370 l 1
 556 309 l 1
 432 309 l 1
123 247 m 1
 123 309 l 1
 309 309 l 1
 309 247 l 1
 123 247 l 1
370 247 m 1
 370 309 l 1
 556 309 l 1
 556 247 l 1
 370 247 l 1
123 185 m 1
 123 247 l 1
 247 247 l 1
 247 185 l 1
 123 185 l 1
370 185 m 1
 370 247 l 1
 494 247 l 1
 494 185 l 1
 370 185 l 1
123 123 m 1
 123 185 l 1
 309 185 l 1
 309 123 l 1
 123 123 l 1
370 123 m 1
 370 185 l 1
 556 185 l 1
 556 123 l 1
 370 123 l 1
185 62 m 1
 185 123 l 1
 309 123 l 1
 309 62 l 1
 185 62 l 1
432 62 m 1
 432 123 l 1
 556 123 l 1
 556 62 l 1
 432 62 l 1
247 0 m 1
 247 62 l 1
 309 62 l 1
 309 0 l 1
 247 0 l 1
494 0 m 1
 494 62 l 1
 556 62 l 1
 556 0 l 1
 494 0 l 1
EndSplineSet
EndChar

StartChar: logicalnot
Encoding: 172 172 111
Width: 679
Flags: HW
LayerCount: 2
Back
Fore
SplineSet
62 432 m 1
 62 494 l 1
 617 494 l 1
 617 432 l 1
 62 432 l 1
62 370 m 1
 62 432 l 1
 617 432 l 1
 617 370 l 1
 62 370 l 1
432 309 m 1
 432 370 l 1
 617 370 l 1
 617 309 l 1
 432 309 l 1
432 247 m 1
 432 309 l 1
 617 309 l 1
 617 247 l 1
 432 247 l 1
432 185 m 1
 432 247 l 1
 617 247 l 1
 617 185 l 1
 432 185 l 1
432 123 m 1
 432 185 l 1
 617 185 l 1
 617 123 l 1
 432 123 l 1
EndSplineSet
EndChar

StartChar: minus
Encoding: 45 45 112
Width: 679
Flags: HW
LayerCount: 2
Back
Fore
SplineSet
62 309 m 1
 62 370 l 1
 617 370 l 1
 617 309 l 1
 62 309 l 1
62 247 m 1
 62 309 l 1
 617 309 l 1
 617 247 l 1
 62 247 l 1
EndSplineSet
EndChar

StartChar: registered
Encoding: 174 174 113
Width: 679
Flags: HW
LayerCount: 2
Back
Fore
SplineSet
185 679 m 1
 185 741 l 1
 494 741 l 1
 494 679 l 1
 185 679 l 1
62 617 m 1
 62 679 l 1
 617 679 l 1
 617 617 l 1
 62 617 l 1
62 556 m 1
 62 617 l 1
 185 617 l 1
 185 556 l 1
 62 556 l 1
494 556 m 1
 494 617 l 1
 617 617 l 1
 617 556 l 1
 494 556 l 1
0 494 m 1
 0 556 l 1
 123 556 l 1
 123 494 l 1
 0 494 l 1
185 494 m 1
 185 556 l 1
 432 556 l 1
 432 494 l 1
 185 494 l 1
556 494 m 1
 556 556 l 1
 679 556 l 1
 679 494 l 1
 556 494 l 1
0 432 m 1
 0 494 l 1
 123 494 l 1
 123 432 l 1
 0 432 l 1
185 432 m 1
 185 494 l 1
 494 494 l 1
 494 432 l 1
 185 432 l 1
556 432 m 1
 556 494 l 1
 679 494 l 1
 679 432 l 1
 556 432 l 1
0 370 m 1
 0 432 l 1
 123 432 l 1
 123 370 l 1
 0 370 l 1
185 370 m 1
 185 432 l 1
 309 432 l 1
 309 370 l 1
 185 370 l 1
370 370 m 1
 370 432 l 1
 494 432 l 1
 494 370 l 1
 370 370 l 1
556 370 m 1
 556 432 l 1
 679 432 l 1
 679 370 l 1
 556 370 l 1
0 309 m 1
 0 370 l 1
 123 370 l 1
 123 309 l 1
 0 309 l 1
185 309 m 1
 185 370 l 1
 432 370 l 1
 432 309 l 1
 185 309 l 1
556 309 m 1
 556 370 l 1
 679 370 l 1
 679 309 l 1
 556 309 l 1
0 247 m 1
 0 309 l 1
 123 309 l 1
 123 247 l 1
 0 247 l 1
185 247 m 1
 185 309 l 1
 494 309 l 1
 494 247 l 1
 185 247 l 1
556 247 m 1
 556 309 l 1
 679 309 l 1
 679 247 l 1
 556 247 l 1
0 185 m 1
 0 247 l 1
 123 247 l 1
 123 185 l 1
 0 185 l 1
185 185 m 1
 185 247 l 1
 309 247 l 1
 309 185 l 1
 185 185 l 1
370 185 m 1
 370 247 l 1
 494 247 l 1
 494 185 l 1
 370 185 l 1
556 185 m 1
 556 247 l 1
 679 247 l 1
 679 185 l 1
 556 185 l 1
62 123 m 1
 62 185 l 1
 185 185 l 1
 185 123 l 1
 62 123 l 1
494 123 m 1
 494 185 l 1
 617 185 l 1
 617 123 l 1
 494 123 l 1
62 62 m 1
 62 123 l 1
 617 123 l 1
 617 62 l 1
 62 62 l 1
185 0 m 1
 185 62 l 1
 494 62 l 1
 494 0 l 1
 185 0 l 1
EndSplineSet
EndChar

StartChar: macron
Encoding: 175 175 114
Width: 679
Flags: HW
LayerCount: 2
Back
Fore
SplineSet
123 741 m 1
 123 802 l 1
 556 802 l 1
 556 741 l 1
 123 741 l 1
123 679 m 1
 123 741 l 1
 556 741 l 1
 556 679 l 1
 123 679 l 1
EndSplineSet
EndChar

StartChar: degree
Encoding: 176 176 115
Width: 679
Flags: HW
LayerCount: 2
Back
Fore
SplineSet
247 679 m 1
 247 741 l 1
 494 741 l 1
 494 679 l 1
 247 679 l 1
185 617 m 1
 185 679 l 1
 556 679 l 1
 556 617 l 1
 185 617 l 1
185 556 m 1
 185 617 l 1
 309 617 l 1
 309 556 l 1
 185 556 l 1
432 556 m 1
 432 617 l 1
 556 617 l 1
 556 556 l 1
 432 556 l 1
185 494 m 1
 185 556 l 1
 309 556 l 1
 309 494 l 1
 185 494 l 1
432 494 m 1
 432 556 l 1
 556 556 l 1
 556 494 l 1
 432 494 l 1
185 432 m 1
 185 494 l 1
 556 494 l 1
 556 432 l 1
 185 432 l 1
247 370 m 1
 247 432 l 1
 494 432 l 1
 494 370 l 1
 247 370 l 1
EndSplineSet
EndChar

StartChar: plusminus
Encoding: 177 177 116
Width: 679
Flags: HW
LayerCount: 2
Back
Fore
SplineSet
247 617 m 1
 247 679 l 1
 432 679 l 1
 432 617 l 1
 247 617 l 1
247 556 m 1
 247 617 l 1
 432 617 l 1
 432 556 l 1
 247 556 l 1
247 494 m 1
 247 556 l 1
 432 556 l 1
 432 494 l 1
 247 494 l 1
62 432 m 1
 62 494 l 1
 617 494 l 1
 617 432 l 1
 62 432 l 1
62 370 m 1
 62 432 l 1
 617 432 l 1
 617 370 l 1
 62 370 l 1
247 309 m 1
 247 370 l 1
 432 370 l 1
 432 309 l 1
 247 309 l 1
247 247 m 1
 247 309 l 1
 432 309 l 1
 432 247 l 1
 247 247 l 1
247 185 m 1
 247 247 l 1
 432 247 l 1
 432 185 l 1
 247 185 l 1
62 62 m 1
 62 123 l 1
 617 123 l 1
 617 62 l 1
 62 62 l 1
62 0 m 1
 62 62 l 1
 617 62 l 1
 617 0 l 1
 62 0 l 1
EndSplineSet
EndChar

StartChar: twosuperior
Encoding: 178 178 117
Width: 679
Flags: HW
LayerCount: 2
Back
Fore
SplineSet
247 741 m 1
 247 802 l 1
 494 802 l 1
 494 741 l 1
 247 741 l 1
185 679 m 1
 185 741 l 1
 556 741 l 1
 556 679 l 1
 185 679 l 1
370 617 m 1
 370 679 l 1
 556 679 l 1
 556 617 l 1
 370 617 l 1
309 556 m 1
 309 617 l 1
 494 617 l 1
 494 556 l 1
 309 556 l 1
247 494 m 1
 247 556 l 1
 432 556 l 1
 432 494 l 1
 247 494 l 1
185 432 m 1
 185 494 l 1
 556 494 l 1
 556 432 l 1
 185 432 l 1
185 370 m 1
 185 432 l 1
 556 432 l 1
 556 370 l 1
 185 370 l 1
EndSplineSet
EndChar

StartChar: threesuperior
Encoding: 179 179 118
Width: 679
Flags: HW
LayerCount: 2
Back
Fore
SplineSet
247 741 m 1
 247 802 l 1
 494 802 l 1
 494 741 l 1
 247 741 l 1
185 679 m 1
 185 741 l 1
 556 741 l 1
 556 679 l 1
 185 679 l 1
370 617 m 1
 370 679 l 1
 556 679 l 1
 556 617 l 1
 370 617 l 1
309 556 m 1
 309 617 l 1
 494 617 l 1
 494 556 l 1
 309 556 l 1
370 494 m 1
 370 556 l 1
 556 556 l 1
 556 494 l 1
 370 494 l 1
185 432 m 1
 185 494 l 1
 556 494 l 1
 556 432 l 1
 185 432 l 1
247 370 m 1
 247 432 l 1
 494 432 l 1
 494 370 l 1
 247 370 l 1
EndSplineSet
EndChar

StartChar: acute
Encoding: 180 180 119
Width: 679
Flags: HW
LayerCount: 2
Back
Fore
SplineSet
309 802 m 1
 309 864 l 1
 494 864 l 1
 494 802 l 1
 309 802 l 1
247 741 m 1
 247 802 l 1
 432 802 l 1
 432 741 l 1
 247 741 l 1
185 679 m 1
 185 741 l 1
 309 741 l 1
 309 679 l 1
 185 679 l 1
EndSplineSet
EndChar

StartChar: mu
Encoding: 181 181 120
Width: 679
Flags: HW
LayerCount: 2
Back
Fore
SplineSet
123 494 m 1
 123 556 l 1
 309 556 l 1
 309 494 l 1
 123 494 l 1
494 494 m 1
 494 556 l 1
 679 556 l 1
 679 494 l 1
 494 494 l 1
123 432 m 1
 123 494 l 1
 309 494 l 1
 309 432 l 1
 123 432 l 1
494 432 m 1
 494 494 l 1
 679 494 l 1
 679 432 l 1
 494 432 l 1
123 370 m 1
 123 432 l 1
 309 432 l 1
 309 370 l 1
 123 370 l 1
494 370 m 1
 494 432 l 1
 679 432 l 1
 679 370 l 1
 494 370 l 1
123 309 m 1
 123 370 l 1
 309 370 l 1
 309 309 l 1
 123 309 l 1
494 309 m 1
 494 370 l 1
 679 370 l 1
 679 309 l 1
 494 309 l 1
123 247 m 1
 123 309 l 1
 309 309 l 1
 309 247 l 1
 123 247 l 1
432 247 m 1
 432 309 l 1
 617 309 l 1
 617 247 l 1
 432 247 l 1
62 185 m 1
 62 247 l 1
 247 247 l 1
 247 185 l 1
 62 185 l 1
432 185 m 1
 432 247 l 1
 617 247 l 1
 617 185 l 1
 432 185 l 1
62 123 m 1
 62 185 l 1
 247 185 l 1
 247 123 l 1
 62 123 l 1
370 123 m 1
 370 185 l 1
 617 185 l 1
 617 123 l 1
 370 123 l 1
62 62 m 1
 62 123 l 1
 679 123 l 1
 679 62 l 1
 62 62 l 1
62 0 m 1
 62 62 l 1
 370 62 l 1
 370 0 l 1
 62 0 l 1
494 0 m 1
 494 62 l 1
 679 62 l 1
 679 0 l 1
 494 0 l 1
62 -62 m 1
 62 0 l 1
 247 0 l 1
 247 -62 l 1
 62 -62 l 1
62 -123 m 1
 62 -62 l 1
 247 -62 l 1
 247 -123 l 1
 62 -123 l 1
62 -185 m 1
 62 -123 l 1
 247 -123 l 1
 247 -185 l 1
 62 -185 l 1
62 -247 m 1
 62 -185 l 1
 247 -185 l 1
 247 -247 l 1
 62 -247 l 1
EndSplineSet
EndChar

StartChar: paragraph
Encoding: 182 182 121
Width: 679
Flags: HW
LayerCount: 2
Back
Fore
SplineSet
185 617 m 1
 185 679 l 1
 679 679 l 1
 679 617 l 1
 185 617 l 1
123 556 m 1
 123 617 l 1
 679 617 l 1
 679 556 l 1
 123 556 l 1
62 494 m 1
 62 556 l 1
 432 556 l 1
 432 494 l 1
 62 494 l 1
494 494 m 1
 494 556 l 1
 617 556 l 1
 617 494 l 1
 494 494 l 1
62 432 m 1
 62 494 l 1
 432 494 l 1
 432 432 l 1
 62 432 l 1
494 432 m 1
 494 494 l 1
 617 494 l 1
 617 432 l 1
 494 432 l 1
62 370 m 1
 62 432 l 1
 432 432 l 1
 432 370 l 1
 62 370 l 1
494 370 m 1
 494 432 l 1
 617 432 l 1
 617 370 l 1
 494 370 l 1
123 309 m 1
 123 370 l 1
 432 370 l 1
 432 309 l 1
 123 309 l 1
494 309 m 1
 494 370 l 1
 617 370 l 1
 617 309 l 1
 494 309 l 1
185 247 m 1
 185 309 l 1
 432 309 l 1
 432 247 l 1
 185 247 l 1
494 247 m 1
 494 309 l 1
 617 309 l 1
 617 247 l 1
 494 247 l 1
309 185 m 1
 309 247 l 1
 432 247 l 1
 432 185 l 1
 309 185 l 1
494 185 m 1
 494 247 l 1
 617 247 l 1
 617 185 l 1
 494 185 l 1
309 123 m 1
 309 185 l 1
 432 185 l 1
 432 123 l 1
 309 123 l 1
494 123 m 1
 494 185 l 1
 617 185 l 1
 617 123 l 1
 494 123 l 1
309 62 m 1
 309 123 l 1
 432 123 l 1
 432 62 l 1
 309 62 l 1
494 62 m 1
 494 123 l 1
 617 123 l 1
 617 62 l 1
 494 62 l 1
309 0 m 1
 309 62 l 1
 432 62 l 1
 432 0 l 1
 309 0 l 1
494 0 m 1
 494 62 l 1
 617 62 l 1
 617 0 l 1
 494 0 l 1
247 -62 m 1
 247 0 l 1
 432 0 l 1
 432 -62 l 1
 247 -62 l 1
494 -62 m 1
 494 0 l 1
 679 0 l 1
 679 -62 l 1
 494 -62 l 1
247 -123 m 1
 247 -62 l 1
 432 -62 l 1
 432 -123 l 1
 247 -123 l 1
494 -123 m 1
 494 -62 l 1
 679 -62 l 1
 679 -123 l 1
 494 -123 l 1
EndSplineSet
EndChar

StartChar: periodcentered
Encoding: 183 183 122
Width: 679
Flags: HW
LayerCount: 2
Back
Fore
SplineSet
309 370 m 1
 309 432 l 1
 432 432 l 1
 432 370 l 1
 309 370 l 1
247 309 m 1
 247 370 l 1
 494 370 l 1
 494 309 l 1
 247 309 l 1
247 247 m 1
 247 309 l 1
 494 309 l 1
 494 247 l 1
 247 247 l 1
309 185 m 1
 309 247 l 1
 432 247 l 1
 432 185 l 1
 309 185 l 1
EndSplineSet
EndChar

StartChar: cedilla
Encoding: 184 184 123
Width: 679
Flags: HW
LayerCount: 2
Back
Fore
SplineSet
309 -62 m 1
 309 0 l 1
 432 0 l 1
 432 -62 l 1
 309 -62 l 1
309 -123 m 1
 309 -62 l 1
 494 -62 l 1
 494 -123 l 1
 309 -123 l 1
432 -185 m 1
 432 -123 l 1
 556 -123 l 1
 556 -185 l 1
 432 -185 l 1
185 -247 m 1
 185 -185 l 1
 556 -185 l 1
 556 -247 l 1
 185 -247 l 1
247 -309 m 1
 247 -247 l 1
 494 -247 l 1
 494 -309 l 1
 247 -309 l 1
EndSplineSet
EndChar

StartChar: onesuperior
Encoding: 185 185 124
Width: 679
Flags: HW
LayerCount: 2
Back
Fore
SplineSet
247 741 m 1
 247 802 l 1
 432 802 l 1
 432 741 l 1
 247 741 l 1
247 679 m 1
 247 741 l 1
 432 741 l 1
 432 679 l 1
 247 679 l 1
309 617 m 1
 309 679 l 1
 432 679 l 1
 432 617 l 1
 309 617 l 1
309 556 m 1
 309 617 l 1
 432 617 l 1
 432 556 l 1
 309 556 l 1
309 494 m 1
 309 556 l 1
 432 556 l 1
 432 494 l 1
 309 494 l 1
247 432 m 1
 247 494 l 1
 494 494 l 1
 494 432 l 1
 247 432 l 1
247 370 m 1
 247 432 l 1
 494 432 l 1
 494 370 l 1
 247 370 l 1
EndSplineSet
EndChar

StartChar: ordmasculine
Encoding: 186 186 125
Width: 679
Flags: HW
LayerCount: 2
Back
Fore
SplineSet
247 741 m 1
 247 802 l 1
 494 802 l 1
 494 741 l 1
 247 741 l 1
185 679 m 1
 185 741 l 1
 556 741 l 1
 556 679 l 1
 185 679 l 1
123 617 m 1
 123 679 l 1
 309 679 l 1
 309 617 l 1
 123 617 l 1
432 617 m 1
 432 679 l 1
 617 679 l 1
 617 617 l 1
 432 617 l 1
123 556 m 1
 123 617 l 1
 309 617 l 1
 309 556 l 1
 123 556 l 1
432 556 m 1
 432 617 l 1
 617 617 l 1
 617 556 l 1
 432 556 l 1
123 494 m 1
 123 556 l 1
 309 556 l 1
 309 494 l 1
 123 494 l 1
432 494 m 1
 432 556 l 1
 617 556 l 1
 617 494 l 1
 432 494 l 1
123 432 m 1
 123 494 l 1
 309 494 l 1
 309 432 l 1
 123 432 l 1
432 432 m 1
 432 494 l 1
 617 494 l 1
 617 432 l 1
 432 432 l 1
185 370 m 1
 185 432 l 1
 556 432 l 1
 556 370 l 1
 185 370 l 1
247 309 m 1
 247 370 l 1
 494 370 l 1
 494 309 l 1
 247 309 l 1
123 185 m 1
 123 247 l 1
 617 247 l 1
 617 185 l 1
 123 185 l 1
123 123 m 1
 123 185 l 1
 617 185 l 1
 617 123 l 1
 123 123 l 1
EndSplineSet
EndChar

StartChar: guillemotright
Encoding: 187 187 126
Width: 679
Flags: HW
LayerCount: 2
Back
Fore
SplineSet
123 370 m 1
 123 432 l 1
 185 432 l 1
 185 370 l 1
 123 370 l 1
370 370 m 1
 370 432 l 1
 432 432 l 1
 432 370 l 1
 370 370 l 1
123 309 m 1
 123 370 l 1
 247 370 l 1
 247 309 l 1
 123 309 l 1
370 309 m 1
 370 370 l 1
 494 370 l 1
 494 309 l 1
 370 309 l 1
123 247 m 1
 123 309 l 1
 309 309 l 1
 309 247 l 1
 123 247 l 1
370 247 m 1
 370 309 l 1
 556 309 l 1
 556 247 l 1
 370 247 l 1
185 185 m 1
 185 247 l 1
 309 247 l 1
 309 185 l 1
 185 185 l 1
432 185 m 1
 432 247 l 1
 556 247 l 1
 556 185 l 1
 432 185 l 1
123 123 m 1
 123 185 l 1
 309 185 l 1
 309 123 l 1
 123 123 l 1
370 123 m 1
 370 185 l 1
 556 185 l 1
 556 123 l 1
 370 123 l 1
123 62 m 1
 123 123 l 1
 247 123 l 1
 247 62 l 1
 123 62 l 1
370 62 m 1
 370 123 l 1
 494 123 l 1
 494 62 l 1
 370 62 l 1
123 0 m 1
 123 62 l 1
 185 62 l 1
 185 0 l 1
 123 0 l 1
370 0 m 1
 370 62 l 1
 432 62 l 1
 432 0 l 1
 370 0 l 1
EndSplineSet
EndChar

StartChar: onequarter
Encoding: 188 188 127
Width: 679
Flags: HW
LayerCount: 2
Back
Fore
SplineSet
62 679 m 1
 62 741 l 1
 247 741 l 1
 247 679 l 1
 62 679 l 1
62 617 m 1
 62 679 l 1
 247 679 l 1
 247 617 l 1
 62 617 l 1
123 556 m 1
 123 617 l 1
 247 617 l 1
 247 556 l 1
 123 556 l 1
123 494 m 1
 123 556 l 1
 247 556 l 1
 247 494 l 1
 123 494 l 1
123 432 m 1
 123 494 l 1
 247 494 l 1
 247 432 l 1
 123 432 l 1
62 370 m 1
 62 432 l 1
 309 432 l 1
 309 370 l 1
 62 370 l 1
556 370 m 1
 556 432 l 1
 617 432 l 1
 617 370 l 1
 556 370 l 1
62 309 m 1
 62 370 l 1
 309 370 l 1
 309 309 l 1
 62 309 l 1
432 309 m 1
 432 370 l 1
 617 370 l 1
 617 309 l 1
 432 309 l 1
309 247 m 1
 309 309 l 1
 556 309 l 1
 556 247 l 1
 309 247 l 1
185 185 m 1
 185 247 l 1
 432 247 l 1
 432 185 l 1
 185 185 l 1
62 123 m 1
 62 185 l 1
 309 185 l 1
 309 123 l 1
 62 123 l 1
494 123 m 1
 494 185 l 1
 617 185 l 1
 617 123 l 1
 494 123 l 1
62 62 m 1
 62 123 l 1
 185 123 l 1
 185 62 l 1
 62 62 l 1
432 62 m 1
 432 123 l 1
 617 123 l 1
 617 62 l 1
 432 62 l 1
370 0 m 1
 370 62 l 1
 617 62 l 1
 617 0 l 1
 370 0 l 1
309 -62 m 1
 309 0 l 1
 432 0 l 1
 432 -62 l 1
 309 -62 l 1
494 -62 m 1
 494 0 l 1
 679 0 l 1
 679 -62 l 1
 494 -62 l 1
309 -123 m 1
 309 -62 l 1
 679 -62 l 1
 679 -123 l 1
 309 -123 l 1
494 -185 m 1
 494 -123 l 1
 617 -123 l 1
 617 -185 l 1
 494 -185 l 1
494 -247 m 1
 494 -185 l 1
 617 -185 l 1
 617 -247 l 1
 494 -247 l 1
EndSplineSet
EndChar

StartChar: onehalf
Encoding: 189 189 128
Width: 679
Flags: HW
LayerCount: 2
Back
Fore
SplineSet
62 679 m 1
 62 741 l 1
 247 741 l 1
 247 679 l 1
 62 679 l 1
62 617 m 1
 62 679 l 1
 247 679 l 1
 247 617 l 1
 62 617 l 1
123 556 m 1
 123 617 l 1
 247 617 l 1
 247 556 l 1
 123 556 l 1
123 494 m 1
 123 556 l 1
 247 556 l 1
 247 494 l 1
 123 494 l 1
123 432 m 1
 123 494 l 1
 247 494 l 1
 247 432 l 1
 123 432 l 1
62 370 m 1
 62 432 l 1
 309 432 l 1
 309 370 l 1
 62 370 l 1
556 370 m 1
 556 432 l 1
 617 432 l 1
 617 370 l 1
 556 370 l 1
62 309 m 1
 62 370 l 1
 309 370 l 1
 309 309 l 1
 62 309 l 1
432 309 m 1
 432 370 l 1
 617 370 l 1
 617 309 l 1
 432 309 l 1
309 247 m 1
 309 309 l 1
 556 309 l 1
 556 247 l 1
 309 247 l 1
185 185 m 1
 185 247 l 1
 432 247 l 1
 432 185 l 1
 185 185 l 1
62 123 m 1
 62 185 l 1
 309 185 l 1
 309 123 l 1
 62 123 l 1
432 123 m 1
 432 185 l 1
 617 185 l 1
 617 123 l 1
 432 123 l 1
62 62 m 1
 62 123 l 1
 185 123 l 1
 185 62 l 1
 62 62 l 1
370 62 m 1
 370 123 l 1
 679 123 l 1
 679 62 l 1
 370 62 l 1
556 0 m 1
 556 62 l 1
 679 62 l 1
 679 0 l 1
 556 0 l 1
494 -62 m 1
 494 0 l 1
 617 0 l 1
 617 -62 l 1
 494 -62 l 1
432 -123 m 1
 432 -62 l 1
 556 -62 l 1
 556 -123 l 1
 432 -123 l 1
370 -185 m 1
 370 -123 l 1
 679 -123 l 1
 679 -185 l 1
 370 -185 l 1
370 -247 m 1
 370 -185 l 1
 679 -185 l 1
 679 -247 l 1
 370 -247 l 1
EndSplineSet
EndChar

StartChar: threequarters
Encoding: 190 190 129
Width: 679
Flags: HW
LayerCount: 2
Back
Fore
SplineSet
123 679 m 1
 123 741 l 1
 309 741 l 1
 309 679 l 1
 123 679 l 1
62 617 m 1
 62 679 l 1
 370 679 l 1
 370 617 l 1
 62 617 l 1
247 556 m 1
 247 617 l 1
 370 617 l 1
 370 556 l 1
 247 556 l 1
185 494 m 1
 185 556 l 1
 309 556 l 1
 309 494 l 1
 185 494 l 1
247 432 m 1
 247 494 l 1
 370 494 l 1
 370 432 l 1
 247 432 l 1
62 370 m 1
 62 432 l 1
 370 432 l 1
 370 370 l 1
 62 370 l 1
556 370 m 1
 556 432 l 1
 617 432 l 1
 617 370 l 1
 556 370 l 1
123 309 m 1
 123 370 l 1
 309 370 l 1
 309 309 l 1
 123 309 l 1
432 309 m 1
 432 370 l 1
 617 370 l 1
 617 309 l 1
 432 309 l 1
309 247 m 1
 309 309 l 1
 556 309 l 1
 556 247 l 1
 309 247 l 1
185 185 m 1
 185 247 l 1
 432 247 l 1
 432 185 l 1
 185 185 l 1
62 123 m 1
 62 185 l 1
 309 185 l 1
 309 123 l 1
 62 123 l 1
494 123 m 1
 494 185 l 1
 617 185 l 1
 617 123 l 1
 494 123 l 1
62 62 m 1
 62 123 l 1
 185 123 l 1
 185 62 l 1
 62 62 l 1
432 62 m 1
 432 123 l 1
 617 123 l 1
 617 62 l 1
 432 62 l 1
370 0 m 1
 370 62 l 1
 617 62 l 1
 617 0 l 1
 370 0 l 1
309 -62 m 1
 309 0 l 1
 432 0 l 1
 432 -62 l 1
 309 -62 l 1
494 -62 m 1
 494 0 l 1
 679 0 l 1
 679 -62 l 1
 494 -62 l 1
309 -123 m 1
 309 -62 l 1
 679 -62 l 1
 679 -123 l 1
 309 -123 l 1
494 -185 m 1
 494 -123 l 1
 617 -123 l 1
 617 -185 l 1
 494 -185 l 1
494 -247 m 1
 494 -185 l 1
 617 -185 l 1
 617 -247 l 1
 494 -247 l 1
EndSplineSet
EndChar

StartChar: questiondown
Encoding: 191 191 130
Width: 679
Flags: HW
LayerCount: 2
Back
Fore
SplineSet
309 617 m 1
 309 679 l 1
 494 679 l 1
 494 617 l 1
 309 617 l 1
247 556 m 1
 247 617 l 1
 556 617 l 1
 556 556 l 1
 247 556 l 1
309 494 m 1
 309 556 l 1
 494 556 l 1
 494 494 l 1
 309 494 l 1
309 370 m 1
 309 432 l 1
 494 432 l 1
 494 370 l 1
 309 370 l 1
309 309 m 1
 309 370 l 1
 494 370 l 1
 494 309 l 1
 309 309 l 1
247 247 m 1
 247 309 l 1
 432 309 l 1
 432 247 l 1
 247 247 l 1
185 185 m 1
 185 247 l 1
 370 247 l 1
 370 185 l 1
 185 185 l 1
123 123 m 1
 123 185 l 1
 309 185 l 1
 309 123 l 1
 123 123 l 1
123 62 m 1
 123 123 l 1
 309 123 l 1
 309 62 l 1
 123 62 l 1
432 62 m 1
 432 123 l 1
 617 123 l 1
 617 62 l 1
 432 62 l 1
123 0 m 1
 123 62 l 1
 617 62 l 1
 617 0 l 1
 123 0 l 1
185 -62 m 1
 185 0 l 1
 556 0 l 1
 556 -62 l 1
 185 -62 l 1
EndSplineSet
EndChar

StartChar: Agrave
Encoding: 192 192 131
Width: 679
Flags: HW
LayerCount: 2
Back
Fore
SplineSet
185 864 m 1
 185 926 l 1
 370 926 l 1
 370 864 l 1
 185 864 l 1
247 802 m 1
 247 864 l 1
 432 864 l 1
 432 802 l 1
 247 802 l 1
370 741 m 1
 370 802 l 1
 494 802 l 1
 494 741 l 1
 370 741 l 1
247 617 m 1
 247 679 l 1
 494 679 l 1
 494 617 l 1
 247 617 l 1
247 556 m 1
 247 617 l 1
 494 617 l 1
 494 556 l 1
 247 556 l 1
247 494 m 1
 247 556 l 1
 494 556 l 1
 494 494 l 1
 247 494 l 1
185 432 m 1
 185 494 l 1
 556 494 l 1
 556 432 l 1
 185 432 l 1
185 370 m 1
 185 432 l 1
 309 432 l 1
 309 370 l 1
 185 370 l 1
432 370 m 1
 432 432 l 1
 556 432 l 1
 556 370 l 1
 432 370 l 1
185 309 m 1
 185 370 l 1
 309 370 l 1
 309 309 l 1
 185 309 l 1
432 309 m 1
 432 370 l 1
 556 370 l 1
 556 309 l 1
 432 309 l 1
123 247 m 1
 123 309 l 1
 617 309 l 1
 617 247 l 1
 123 247 l 1
123 185 m 1
 123 247 l 1
 617 247 l 1
 617 185 l 1
 123 185 l 1
123 123 m 1
 123 185 l 1
 247 185 l 1
 247 123 l 1
 123 123 l 1
494 123 m 1
 494 185 l 1
 617 185 l 1
 617 123 l 1
 494 123 l 1
62 62 m 1
 62 123 l 1
 309 123 l 1
 309 62 l 1
 62 62 l 1
432 62 m 1
 432 123 l 1
 679 123 l 1
 679 62 l 1
 432 62 l 1
62 0 m 1
 62 62 l 1
 309 62 l 1
 309 0 l 1
 62 0 l 1
432 0 m 1
 432 62 l 1
 679 62 l 1
 679 0 l 1
 432 0 l 1
EndSplineSet
EndChar

StartChar: Aacute
Encoding: 193 193 132
Width: 679
Flags: HW
LayerCount: 2
Back
Fore
SplineSet
370 864 m 1
 370 926 l 1
 556 926 l 1
 556 864 l 1
 370 864 l 1
309 802 m 1
 309 864 l 1
 494 864 l 1
 494 802 l 1
 309 802 l 1
247 741 m 1
 247 802 l 1
 370 802 l 1
 370 741 l 1
 247 741 l 1
247 617 m 1
 247 679 l 1
 494 679 l 1
 494 617 l 1
 247 617 l 1
247 556 m 1
 247 617 l 1
 494 617 l 1
 494 556 l 1
 247 556 l 1
247 494 m 1
 247 556 l 1
 494 556 l 1
 494 494 l 1
 247 494 l 1
185 432 m 1
 185 494 l 1
 556 494 l 1
 556 432 l 1
 185 432 l 1
185 370 m 1
 185 432 l 1
 309 432 l 1
 309 370 l 1
 185 370 l 1
432 370 m 1
 432 432 l 1
 556 432 l 1
 556 370 l 1
 432 370 l 1
185 309 m 1
 185 370 l 1
 309 370 l 1
 309 309 l 1
 185 309 l 1
432 309 m 1
 432 370 l 1
 556 370 l 1
 556 309 l 1
 432 309 l 1
123 247 m 1
 123 309 l 1
 617 309 l 1
 617 247 l 1
 123 247 l 1
123 185 m 1
 123 247 l 1
 617 247 l 1
 617 185 l 1
 123 185 l 1
123 123 m 1
 123 185 l 1
 247 185 l 1
 247 123 l 1
 123 123 l 1
494 123 m 1
 494 185 l 1
 617 185 l 1
 617 123 l 1
 494 123 l 1
62 62 m 1
 62 123 l 1
 309 123 l 1
 309 62 l 1
 62 62 l 1
432 62 m 1
 432 123 l 1
 679 123 l 1
 679 62 l 1
 432 62 l 1
62 0 m 1
 62 62 l 1
 309 62 l 1
 309 0 l 1
 62 0 l 1
432 0 m 1
 432 62 l 1
 679 62 l 1
 679 0 l 1
 432 0 l 1
EndSplineSet
EndChar

StartChar: Acircumflex
Encoding: 194 194 133
Width: 679
Flags: HW
LayerCount: 2
Back
Fore
SplineSet
309 864 m 1
 309 926 l 1
 432 926 l 1
 432 864 l 1
 309 864 l 1
185 802 m 1
 185 864 l 1
 556 864 l 1
 556 802 l 1
 185 802 l 1
123 741 m 1
 123 802 l 1
 309 802 l 1
 309 741 l 1
 123 741 l 1
432 741 m 1
 432 802 l 1
 617 802 l 1
 617 741 l 1
 432 741 l 1
247 617 m 1
 247 679 l 1
 494 679 l 1
 494 617 l 1
 247 617 l 1
247 556 m 1
 247 617 l 1
 494 617 l 1
 494 556 l 1
 247 556 l 1
247 494 m 1
 247 556 l 1
 494 556 l 1
 494 494 l 1
 247 494 l 1
185 432 m 1
 185 494 l 1
 556 494 l 1
 556 432 l 1
 185 432 l 1
185 370 m 1
 185 432 l 1
 309 432 l 1
 309 370 l 1
 185 370 l 1
432 370 m 1
 432 432 l 1
 556 432 l 1
 556 370 l 1
 432 370 l 1
185 309 m 1
 185 370 l 1
 309 370 l 1
 309 309 l 1
 185 309 l 1
432 309 m 1
 432 370 l 1
 556 370 l 1
 556 309 l 1
 432 309 l 1
123 247 m 1
 123 309 l 1
 617 309 l 1
 617 247 l 1
 123 247 l 1
123 185 m 1
 123 247 l 1
 617 247 l 1
 617 185 l 1
 123 185 l 1
123 123 m 1
 123 185 l 1
 247 185 l 1
 247 123 l 1
 123 123 l 1
494 123 m 1
 494 185 l 1
 617 185 l 1
 617 123 l 1
 494 123 l 1
62 62 m 1
 62 123 l 1
 309 123 l 1
 309 62 l 1
 62 62 l 1
432 62 m 1
 432 123 l 1
 679 123 l 1
 679 62 l 1
 432 62 l 1
62 0 m 1
 62 62 l 1
 309 62 l 1
 309 0 l 1
 62 0 l 1
432 0 m 1
 432 62 l 1
 679 62 l 1
 679 0 l 1
 432 0 l 1
EndSplineSet
EndChar

StartChar: Atilde
Encoding: 195 195 134
Width: 679
Flags: HW
LayerCount: 2
Back
Fore
SplineSet
185 864 m 1
 185 926 l 1
 370 926 l 1
 370 864 l 1
 185 864 l 1
556 864 m 1
 556 926 l 1
 617 926 l 1
 617 864 l 1
 556 864 l 1
123 802 m 1
 123 864 l 1
 617 864 l 1
 617 802 l 1
 123 802 l 1
123 741 m 1
 123 802 l 1
 185 802 l 1
 185 741 l 1
 123 741 l 1
370 741 m 1
 370 802 l 1
 556 802 l 1
 556 741 l 1
 370 741 l 1
247 617 m 1
 247 679 l 1
 494 679 l 1
 494 617 l 1
 247 617 l 1
247 556 m 1
 247 617 l 1
 494 617 l 1
 494 556 l 1
 247 556 l 1
247 494 m 1
 247 556 l 1
 494 556 l 1
 494 494 l 1
 247 494 l 1
185 432 m 1
 185 494 l 1
 556 494 l 1
 556 432 l 1
 185 432 l 1
185 370 m 1
 185 432 l 1
 309 432 l 1
 309 370 l 1
 185 370 l 1
432 370 m 1
 432 432 l 1
 556 432 l 1
 556 370 l 1
 432 370 l 1
185 309 m 1
 185 370 l 1
 309 370 l 1
 309 309 l 1
 185 309 l 1
432 309 m 1
 432 370 l 1
 556 370 l 1
 556 309 l 1
 432 309 l 1
123 247 m 1
 123 309 l 1
 617 309 l 1
 617 247 l 1
 123 247 l 1
123 185 m 1
 123 247 l 1
 617 247 l 1
 617 185 l 1
 123 185 l 1
123 123 m 1
 123 185 l 1
 247 185 l 1
 247 123 l 1
 123 123 l 1
494 123 m 1
 494 185 l 1
 617 185 l 1
 617 123 l 1
 494 123 l 1
62 62 m 1
 62 123 l 1
 309 123 l 1
 309 62 l 1
 62 62 l 1
432 62 m 1
 432 123 l 1
 679 123 l 1
 679 62 l 1
 432 62 l 1
62 0 m 1
 62 62 l 1
 309 62 l 1
 309 0 l 1
 62 0 l 1
432 0 m 1
 432 62 l 1
 679 62 l 1
 679 0 l 1
 432 0 l 1
EndSplineSet
EndChar

StartChar: Adieresis
Encoding: 196 196 135
Width: 679
Flags: HW
LayerCount: 2
Back
Fore
SplineSet
123 864 m 1
 123 926 l 1
 309 926 l 1
 309 864 l 1
 123 864 l 1
432 864 m 1
 432 926 l 1
 617 926 l 1
 617 864 l 1
 432 864 l 1
123 802 m 1
 123 864 l 1
 309 864 l 1
 309 802 l 1
 123 802 l 1
432 802 m 1
 432 864 l 1
 617 864 l 1
 617 802 l 1
 432 802 l 1
247 617 m 1
 247 679 l 1
 494 679 l 1
 494 617 l 1
 247 617 l 1
247 556 m 1
 247 617 l 1
 494 617 l 1
 494 556 l 1
 247 556 l 1
247 494 m 1
 247 556 l 1
 494 556 l 1
 494 494 l 1
 247 494 l 1
185 432 m 1
 185 494 l 1
 556 494 l 1
 556 432 l 1
 185 432 l 1
185 370 m 1
 185 432 l 1
 309 432 l 1
 309 370 l 1
 185 370 l 1
432 370 m 1
 432 432 l 1
 556 432 l 1
 556 370 l 1
 432 370 l 1
185 309 m 1
 185 370 l 1
 309 370 l 1
 309 309 l 1
 185 309 l 1
432 309 m 1
 432 370 l 1
 556 370 l 1
 556 309 l 1
 432 309 l 1
123 247 m 1
 123 309 l 1
 617 309 l 1
 617 247 l 1
 123 247 l 1
123 185 m 1
 123 247 l 1
 617 247 l 1
 617 185 l 1
 123 185 l 1
123 123 m 1
 123 185 l 1
 247 185 l 1
 247 123 l 1
 123 123 l 1
494 123 m 1
 494 185 l 1
 617 185 l 1
 617 123 l 1
 494 123 l 1
62 62 m 1
 62 123 l 1
 309 123 l 1
 309 62 l 1
 62 62 l 1
432 62 m 1
 432 123 l 1
 679 123 l 1
 679 62 l 1
 432 62 l 1
62 0 m 1
 62 62 l 1
 309 62 l 1
 309 0 l 1
 62 0 l 1
432 0 m 1
 432 62 l 1
 679 62 l 1
 679 0 l 1
 432 0 l 1
EndSplineSet
EndChar

StartChar: Aring
Encoding: 197 197 136
Width: 679
Flags: HW
LayerCount: 2
Back
Fore
SplineSet
247 864 m 1
 247 926 l 1
 494 926 l 1
 494 864 l 1
 247 864 l 1
185 802 m 1
 185 864 l 1
 556 864 l 1
 556 802 l 1
 185 802 l 1
185 741 m 1
 185 802 l 1
 309 802 l 1
 309 741 l 1
 185 741 l 1
432 741 m 1
 432 802 l 1
 556 802 l 1
 556 741 l 1
 432 741 l 1
185 679 m 1
 185 741 l 1
 309 741 l 1
 309 679 l 1
 185 679 l 1
432 679 m 1
 432 741 l 1
 556 741 l 1
 556 679 l 1
 432 679 l 1
247 617 m 1
 247 679 l 1
 494 679 l 1
 494 617 l 1
 247 617 l 1
247 556 m 1
 247 617 l 1
 494 617 l 1
 494 556 l 1
 247 556 l 1
247 494 m 1
 247 556 l 1
 494 556 l 1
 494 494 l 1
 247 494 l 1
185 432 m 1
 185 494 l 1
 556 494 l 1
 556 432 l 1
 185 432 l 1
185 370 m 1
 185 432 l 1
 309 432 l 1
 309 370 l 1
 185 370 l 1
432 370 m 1
 432 432 l 1
 556 432 l 1
 556 370 l 1
 432 370 l 1
185 309 m 1
 185 370 l 1
 309 370 l 1
 309 309 l 1
 185 309 l 1
432 309 m 1
 432 370 l 1
 556 370 l 1
 556 309 l 1
 432 309 l 1
123 247 m 1
 123 309 l 1
 617 309 l 1
 617 247 l 1
 123 247 l 1
123 185 m 1
 123 247 l 1
 617 247 l 1
 617 185 l 1
 123 185 l 1
123 123 m 1
 123 185 l 1
 247 185 l 1
 247 123 l 1
 123 123 l 1
494 123 m 1
 494 185 l 1
 617 185 l 1
 617 123 l 1
 494 123 l 1
62 62 m 1
 62 123 l 1
 309 123 l 1
 309 62 l 1
 62 62 l 1
432 62 m 1
 432 123 l 1
 679 123 l 1
 679 62 l 1
 432 62 l 1
62 0 m 1
 62 62 l 1
 309 62 l 1
 309 0 l 1
 62 0 l 1
432 0 m 1
 432 62 l 1
 679 62 l 1
 679 0 l 1
 432 0 l 1
EndSplineSet
EndChar

StartChar: AE
Encoding: 198 198 137
Width: 679
Flags: HW
LayerCount: 2
Back
Fore
SplineSet
123 617 m 1
 123 679 l 1
 679 679 l 1
 679 617 l 1
 123 617 l 1
123 556 m 1
 123 617 l 1
 679 617 l 1
 679 556 l 1
 123 556 l 1
123 494 m 1
 123 556 l 1
 247 556 l 1
 247 494 l 1
 123 494 l 1
309 494 m 1
 309 556 l 1
 494 556 l 1
 494 494 l 1
 309 494 l 1
617 494 m 1
 617 556 l 1
 679 556 l 1
 679 494 l 1
 617 494 l 1
123 432 m 1
 123 494 l 1
 247 494 l 1
 247 432 l 1
 123 432 l 1
309 432 m 1
 309 494 l 1
 494 494 l 1
 494 432 l 1
 309 432 l 1
123 370 m 1
 123 432 l 1
 247 432 l 1
 247 370 l 1
 123 370 l 1
309 370 m 1
 309 432 l 1
 617 432 l 1
 617 370 l 1
 309 370 l 1
123 309 m 1
 123 370 l 1
 247 370 l 1
 247 309 l 1
 123 309 l 1
309 309 m 1
 309 370 l 1
 617 370 l 1
 617 309 l 1
 309 309 l 1
123 247 m 1
 123 309 l 1
 494 309 l 1
 494 247 l 1
 123 247 l 1
62 185 m 1
 62 247 l 1
 494 247 l 1
 494 185 l 1
 62 185 l 1
62 123 m 1
 62 185 l 1
 247 185 l 1
 247 123 l 1
 62 123 l 1
309 123 m 1
 309 185 l 1
 494 185 l 1
 494 123 l 1
 309 123 l 1
617 123 m 1
 617 185 l 1
 679 185 l 1
 679 123 l 1
 617 123 l 1
62 62 m 1
 62 123 l 1
 247 123 l 1
 247 62 l 1
 62 62 l 1
309 62 m 1
 309 123 l 1
 679 123 l 1
 679 62 l 1
 309 62 l 1
62 0 m 1
 62 62 l 1
 247 62 l 1
 247 0 l 1
 62 0 l 1
309 0 m 1
 309 62 l 1
 679 62 l 1
 679 0 l 1
 309 0 l 1
EndSplineSet
EndChar

StartChar: Ccedilla
Encoding: 199 199 138
Width: 679
Flags: HW
LayerCount: 2
Back
Fore
SplineSet
247 617 m 1
 247 679 l 1
 494 679 l 1
 494 617 l 1
 247 617 l 1
556 617 m 1
 556 679 l 1
 679 679 l 1
 679 617 l 1
 556 617 l 1
123 556 m 1
 123 617 l 1
 679 617 l 1
 679 556 l 1
 123 556 l 1
123 494 m 1
 123 556 l 1
 309 556 l 1
 309 494 l 1
 123 494 l 1
494 494 m 1
 494 556 l 1
 679 556 l 1
 679 494 l 1
 494 494 l 1
62 432 m 1
 62 494 l 1
 247 494 l 1
 247 432 l 1
 62 432 l 1
556 432 m 1
 556 494 l 1
 679 494 l 1
 679 432 l 1
 556 432 l 1
62 370 m 1
 62 432 l 1
 247 432 l 1
 247 370 l 1
 62 370 l 1
62 309 m 1
 62 370 l 1
 247 370 l 1
 247 309 l 1
 62 309 l 1
62 247 m 1
 62 309 l 1
 247 309 l 1
 247 247 l 1
 62 247 l 1
62 185 m 1
 62 247 l 1
 247 247 l 1
 247 185 l 1
 62 185 l 1
123 123 m 1
 123 185 l 1
 309 185 l 1
 309 123 l 1
 123 123 l 1
494 123 m 1
 494 185 l 1
 679 185 l 1
 679 123 l 1
 494 123 l 1
123 62 m 1
 123 123 l 1
 679 123 l 1
 679 62 l 1
 123 62 l 1
247 0 m 1
 247 62 l 1
 556 62 l 1
 556 0 l 1
 247 0 l 1
309 -62 m 1
 309 0 l 1
 432 0 l 1
 432 -62 l 1
 309 -62 l 1
309 -123 m 1
 309 -62 l 1
 494 -62 l 1
 494 -123 l 1
 309 -123 l 1
432 -185 m 1
 432 -123 l 1
 556 -123 l 1
 556 -185 l 1
 432 -185 l 1
185 -247 m 1
 185 -185 l 1
 556 -185 l 1
 556 -247 l 1
 185 -247 l 1
247 -309 m 1
 247 -247 l 1
 494 -247 l 1
 494 -309 l 1
 247 -309 l 1
EndSplineSet
EndChar

StartChar: Egrave
Encoding: 200 200 139
Width: 679
Flags: HW
LayerCount: 2
Back
Fore
SplineSet
185 864 m 1
 185 926 l 1
 370 926 l 1
 370 864 l 1
 185 864 l 1
247 802 m 1
 247 864 l 1
 432 864 l 1
 432 802 l 1
 247 802 l 1
370 741 m 1
 370 802 l 1
 494 802 l 1
 494 741 l 1
 370 741 l 1
62 617 m 1
 62 679 l 1
 679 679 l 1
 679 617 l 1
 62 617 l 1
62 556 m 1
 62 617 l 1
 679 617 l 1
 679 556 l 1
 62 556 l 1
123 494 m 1
 123 556 l 1
 309 556 l 1
 309 494 l 1
 123 494 l 1
556 494 m 1
 556 556 l 1
 679 556 l 1
 679 494 l 1
 556 494 l 1
123 432 m 1
 123 494 l 1
 309 494 l 1
 309 432 l 1
 123 432 l 1
370 432 m 1
 370 494 l 1
 494 494 l 1
 494 432 l 1
 370 432 l 1
556 432 m 1
 556 494 l 1
 679 494 l 1
 679 432 l 1
 556 432 l 1
123 370 m 1
 123 432 l 1
 494 432 l 1
 494 370 l 1
 123 370 l 1
123 309 m 1
 123 370 l 1
 494 370 l 1
 494 309 l 1
 123 309 l 1
123 247 m 1
 123 309 l 1
 309 309 l 1
 309 247 l 1
 123 247 l 1
370 247 m 1
 370 309 l 1
 494 309 l 1
 494 247 l 1
 370 247 l 1
123 185 m 1
 123 247 l 1
 309 247 l 1
 309 185 l 1
 123 185 l 1
556 185 m 1
 556 247 l 1
 679 247 l 1
 679 185 l 1
 556 185 l 1
123 123 m 1
 123 185 l 1
 309 185 l 1
 309 123 l 1
 123 123 l 1
556 123 m 1
 556 185 l 1
 679 185 l 1
 679 123 l 1
 556 123 l 1
62 62 m 1
 62 123 l 1
 679 123 l 1
 679 62 l 1
 62 62 l 1
62 0 m 1
 62 62 l 1
 679 62 l 1
 679 0 l 1
 62 0 l 1
EndSplineSet
EndChar

StartChar: Eacute
Encoding: 201 201 140
Width: 679
Flags: HW
LayerCount: 2
Back
Fore
SplineSet
432 864 m 1
 432 926 l 1
 617 926 l 1
 617 864 l 1
 432 864 l 1
370 802 m 1
 370 864 l 1
 556 864 l 1
 556 802 l 1
 370 802 l 1
309 741 m 1
 309 802 l 1
 432 802 l 1
 432 741 l 1
 309 741 l 1
62 617 m 1
 62 679 l 1
 679 679 l 1
 679 617 l 1
 62 617 l 1
62 556 m 1
 62 617 l 1
 679 617 l 1
 679 556 l 1
 62 556 l 1
123 494 m 1
 123 556 l 1
 309 556 l 1
 309 494 l 1
 123 494 l 1
556 494 m 1
 556 556 l 1
 679 556 l 1
 679 494 l 1
 556 494 l 1
123 432 m 1
 123 494 l 1
 309 494 l 1
 309 432 l 1
 123 432 l 1
370 432 m 1
 370 494 l 1
 494 494 l 1
 494 432 l 1
 370 432 l 1
556 432 m 1
 556 494 l 1
 679 494 l 1
 679 432 l 1
 556 432 l 1
123 370 m 1
 123 432 l 1
 494 432 l 1
 494 370 l 1
 123 370 l 1
123 309 m 1
 123 370 l 1
 494 370 l 1
 494 309 l 1
 123 309 l 1
123 247 m 1
 123 309 l 1
 309 309 l 1
 309 247 l 1
 123 247 l 1
370 247 m 1
 370 309 l 1
 494 309 l 1
 494 247 l 1
 370 247 l 1
123 185 m 1
 123 247 l 1
 309 247 l 1
 309 185 l 1
 123 185 l 1
556 185 m 1
 556 247 l 1
 679 247 l 1
 679 185 l 1
 556 185 l 1
123 123 m 1
 123 185 l 1
 309 185 l 1
 309 123 l 1
 123 123 l 1
556 123 m 1
 556 185 l 1
 679 185 l 1
 679 123 l 1
 556 123 l 1
62 62 m 1
 62 123 l 1
 679 123 l 1
 679 62 l 1
 62 62 l 1
62 0 m 1
 62 62 l 1
 679 62 l 1
 679 0 l 1
 62 0 l 1
EndSplineSet
EndChar

StartChar: Ecircumflex
Encoding: 202 202 141
Width: 679
Flags: HW
LayerCount: 2
Back
Fore
SplineSet
309 864 m 1
 309 926 l 1
 432 926 l 1
 432 864 l 1
 309 864 l 1
185 802 m 1
 185 864 l 1
 556 864 l 1
 556 802 l 1
 185 802 l 1
123 741 m 1
 123 802 l 1
 309 802 l 1
 309 741 l 1
 123 741 l 1
432 741 m 1
 432 802 l 1
 617 802 l 1
 617 741 l 1
 432 741 l 1
62 617 m 1
 62 679 l 1
 679 679 l 1
 679 617 l 1
 62 617 l 1
62 556 m 1
 62 617 l 1
 679 617 l 1
 679 556 l 1
 62 556 l 1
123 494 m 1
 123 556 l 1
 309 556 l 1
 309 494 l 1
 123 494 l 1
556 494 m 1
 556 556 l 1
 679 556 l 1
 679 494 l 1
 556 494 l 1
123 432 m 1
 123 494 l 1
 309 494 l 1
 309 432 l 1
 123 432 l 1
370 432 m 1
 370 494 l 1
 494 494 l 1
 494 432 l 1
 370 432 l 1
556 432 m 1
 556 494 l 1
 679 494 l 1
 679 432 l 1
 556 432 l 1
123 370 m 1
 123 432 l 1
 494 432 l 1
 494 370 l 1
 123 370 l 1
123 309 m 1
 123 370 l 1
 494 370 l 1
 494 309 l 1
 123 309 l 1
123 247 m 1
 123 309 l 1
 309 309 l 1
 309 247 l 1
 123 247 l 1
370 247 m 1
 370 309 l 1
 494 309 l 1
 494 247 l 1
 370 247 l 1
123 185 m 1
 123 247 l 1
 309 247 l 1
 309 185 l 1
 123 185 l 1
556 185 m 1
 556 247 l 1
 679 247 l 1
 679 185 l 1
 556 185 l 1
123 123 m 1
 123 185 l 1
 309 185 l 1
 309 123 l 1
 123 123 l 1
556 123 m 1
 556 185 l 1
 679 185 l 1
 679 123 l 1
 556 123 l 1
62 62 m 1
 62 123 l 1
 679 123 l 1
 679 62 l 1
 62 62 l 1
62 0 m 1
 62 62 l 1
 679 62 l 1
 679 0 l 1
 62 0 l 1
EndSplineSet
EndChar

StartChar: Edieresis
Encoding: 203 203 142
Width: 679
Flags: HW
LayerCount: 2
Back
Fore
SplineSet
123 864 m 1
 123 926 l 1
 309 926 l 1
 309 864 l 1
 123 864 l 1
432 864 m 1
 432 926 l 1
 617 926 l 1
 617 864 l 1
 432 864 l 1
123 802 m 1
 123 864 l 1
 309 864 l 1
 309 802 l 1
 123 802 l 1
432 802 m 1
 432 864 l 1
 617 864 l 1
 617 802 l 1
 432 802 l 1
62 617 m 1
 62 679 l 1
 679 679 l 1
 679 617 l 1
 62 617 l 1
62 556 m 1
 62 617 l 1
 679 617 l 1
 679 556 l 1
 62 556 l 1
123 494 m 1
 123 556 l 1
 309 556 l 1
 309 494 l 1
 123 494 l 1
556 494 m 1
 556 556 l 1
 679 556 l 1
 679 494 l 1
 556 494 l 1
123 432 m 1
 123 494 l 1
 309 494 l 1
 309 432 l 1
 123 432 l 1
370 432 m 1
 370 494 l 1
 494 494 l 1
 494 432 l 1
 370 432 l 1
556 432 m 1
 556 494 l 1
 679 494 l 1
 679 432 l 1
 556 432 l 1
123 370 m 1
 123 432 l 1
 494 432 l 1
 494 370 l 1
 123 370 l 1
123 309 m 1
 123 370 l 1
 494 370 l 1
 494 309 l 1
 123 309 l 1
123 247 m 1
 123 309 l 1
 309 309 l 1
 309 247 l 1
 123 247 l 1
370 247 m 1
 370 309 l 1
 494 309 l 1
 494 247 l 1
 370 247 l 1
123 185 m 1
 123 247 l 1
 309 247 l 1
 309 185 l 1
 123 185 l 1
556 185 m 1
 556 247 l 1
 679 247 l 1
 679 185 l 1
 556 185 l 1
123 123 m 1
 123 185 l 1
 309 185 l 1
 309 123 l 1
 123 123 l 1
556 123 m 1
 556 185 l 1
 679 185 l 1
 679 123 l 1
 556 123 l 1
62 62 m 1
 62 123 l 1
 679 123 l 1
 679 62 l 1
 62 62 l 1
62 0 m 1
 62 62 l 1
 679 62 l 1
 679 0 l 1
 62 0 l 1
EndSplineSet
EndChar

StartChar: Igrave
Encoding: 204 204 143
Width: 679
Flags: HW
LayerCount: 2
Back
Fore
SplineSet
123 864 m 1
 123 926 l 1
 309 926 l 1
 309 864 l 1
 123 864 l 1
185 802 m 1
 185 864 l 1
 370 864 l 1
 370 802 l 1
 185 802 l 1
309 741 m 1
 309 802 l 1
 432 802 l 1
 432 741 l 1
 309 741 l 1
62 617 m 1
 62 679 l 1
 617 679 l 1
 617 617 l 1
 62 617 l 1
62 556 m 1
 62 617 l 1
 617 617 l 1
 617 556 l 1
 62 556 l 1
247 494 m 1
 247 556 l 1
 432 556 l 1
 432 494 l 1
 247 494 l 1
247 432 m 1
 247 494 l 1
 432 494 l 1
 432 432 l 1
 247 432 l 1
247 370 m 1
 247 432 l 1
 432 432 l 1
 432 370 l 1
 247 370 l 1
247 309 m 1
 247 370 l 1
 432 370 l 1
 432 309 l 1
 247 309 l 1
247 247 m 1
 247 309 l 1
 432 309 l 1
 432 247 l 1
 247 247 l 1
247 185 m 1
 247 247 l 1
 432 247 l 1
 432 185 l 1
 247 185 l 1
247 123 m 1
 247 185 l 1
 432 185 l 1
 432 123 l 1
 247 123 l 1
62 62 m 1
 62 123 l 1
 617 123 l 1
 617 62 l 1
 62 62 l 1
62 0 m 1
 62 62 l 1
 617 62 l 1
 617 0 l 1
 62 0 l 1
EndSplineSet
EndChar

StartChar: Iacute
Encoding: 205 205 144
Width: 679
Flags: HW
LayerCount: 2
Back
Fore
SplineSet
370 864 m 1
 370 926 l 1
 556 926 l 1
 556 864 l 1
 370 864 l 1
309 802 m 1
 309 864 l 1
 494 864 l 1
 494 802 l 1
 309 802 l 1
247 741 m 1
 247 802 l 1
 370 802 l 1
 370 741 l 1
 247 741 l 1
62 617 m 1
 62 679 l 1
 617 679 l 1
 617 617 l 1
 62 617 l 1
62 556 m 1
 62 617 l 1
 617 617 l 1
 617 556 l 1
 62 556 l 1
247 494 m 1
 247 556 l 1
 432 556 l 1
 432 494 l 1
 247 494 l 1
247 432 m 1
 247 494 l 1
 432 494 l 1
 432 432 l 1
 247 432 l 1
247 370 m 1
 247 432 l 1
 432 432 l 1
 432 370 l 1
 247 370 l 1
247 309 m 1
 247 370 l 1
 432 370 l 1
 432 309 l 1
 247 309 l 1
247 247 m 1
 247 309 l 1
 432 309 l 1
 432 247 l 1
 247 247 l 1
247 185 m 1
 247 247 l 1
 432 247 l 1
 432 185 l 1
 247 185 l 1
247 123 m 1
 247 185 l 1
 432 185 l 1
 432 123 l 1
 247 123 l 1
62 62 m 1
 62 123 l 1
 617 123 l 1
 617 62 l 1
 62 62 l 1
62 0 m 1
 62 62 l 1
 617 62 l 1
 617 0 l 1
 62 0 l 1
EndSplineSet
EndChar

StartChar: Icircumflex
Encoding: 206 206 145
Width: 679
Flags: HW
LayerCount: 2
Back
Fore
SplineSet
309 864 m 1
 309 926 l 1
 370 926 l 1
 370 864 l 1
 309 864 l 1
185 802 m 1
 185 864 l 1
 494 864 l 1
 494 802 l 1
 185 802 l 1
123 741 m 1
 123 802 l 1
 309 802 l 1
 309 741 l 1
 123 741 l 1
370 741 m 1
 370 802 l 1
 556 802 l 1
 556 741 l 1
 370 741 l 1
62 617 m 1
 62 679 l 1
 617 679 l 1
 617 617 l 1
 62 617 l 1
62 556 m 1
 62 617 l 1
 617 617 l 1
 617 556 l 1
 62 556 l 1
247 494 m 1
 247 556 l 1
 432 556 l 1
 432 494 l 1
 247 494 l 1
247 432 m 1
 247 494 l 1
 432 494 l 1
 432 432 l 1
 247 432 l 1
247 370 m 1
 247 432 l 1
 432 432 l 1
 432 370 l 1
 247 370 l 1
247 309 m 1
 247 370 l 1
 432 370 l 1
 432 309 l 1
 247 309 l 1
247 247 m 1
 247 309 l 1
 432 309 l 1
 432 247 l 1
 247 247 l 1
247 185 m 1
 247 247 l 1
 432 247 l 1
 432 185 l 1
 247 185 l 1
247 123 m 1
 247 185 l 1
 432 185 l 1
 432 123 l 1
 247 123 l 1
62 62 m 1
 62 123 l 1
 617 123 l 1
 617 62 l 1
 62 62 l 1
62 0 m 1
 62 62 l 1
 617 62 l 1
 617 0 l 1
 62 0 l 1
EndSplineSet
EndChar

StartChar: Idieresis
Encoding: 207 207 146
Width: 679
Flags: HW
LayerCount: 2
Back
Fore
SplineSet
62 864 m 1
 62 926 l 1
 247 926 l 1
 247 864 l 1
 62 864 l 1
432 864 m 1
 432 926 l 1
 617 926 l 1
 617 864 l 1
 432 864 l 1
62 802 m 1
 62 864 l 1
 247 864 l 1
 247 802 l 1
 62 802 l 1
432 802 m 1
 432 864 l 1
 617 864 l 1
 617 802 l 1
 432 802 l 1
62 617 m 1
 62 679 l 1
 617 679 l 1
 617 617 l 1
 62 617 l 1
62 556 m 1
 62 617 l 1
 617 617 l 1
 617 556 l 1
 62 556 l 1
247 494 m 1
 247 556 l 1
 432 556 l 1
 432 494 l 1
 247 494 l 1
247 432 m 1
 247 494 l 1
 432 494 l 1
 432 432 l 1
 247 432 l 1
247 370 m 1
 247 432 l 1
 432 432 l 1
 432 370 l 1
 247 370 l 1
247 309 m 1
 247 370 l 1
 432 370 l 1
 432 309 l 1
 247 309 l 1
247 247 m 1
 247 309 l 1
 432 309 l 1
 432 247 l 1
 247 247 l 1
247 185 m 1
 247 247 l 1
 432 247 l 1
 432 185 l 1
 247 185 l 1
247 123 m 1
 247 185 l 1
 432 185 l 1
 432 123 l 1
 247 123 l 1
62 62 m 1
 62 123 l 1
 617 123 l 1
 617 62 l 1
 62 62 l 1
62 0 m 1
 62 62 l 1
 617 62 l 1
 617 0 l 1
 62 0 l 1
EndSplineSet
EndChar

StartChar: Eth
Encoding: 208 208 147
Width: 679
Flags: HW
LayerCount: 2
Back
Fore
SplineSet
62 617 m 1
 62 679 l 1
 494 679 l 1
 494 617 l 1
 62 617 l 1
62 556 m 1
 62 617 l 1
 617 617 l 1
 617 556 l 1
 62 556 l 1
123 494 m 1
 123 556 l 1
 309 556 l 1
 309 494 l 1
 123 494 l 1
432 494 m 1
 432 556 l 1
 617 556 l 1
 617 494 l 1
 432 494 l 1
123 432 m 1
 123 494 l 1
 309 494 l 1
 309 432 l 1
 123 432 l 1
494 432 m 1
 494 494 l 1
 679 494 l 1
 679 432 l 1
 494 432 l 1
62 370 m 1
 62 432 l 1
 432 432 l 1
 432 370 l 1
 62 370 l 1
494 370 m 1
 494 432 l 1
 679 432 l 1
 679 370 l 1
 494 370 l 1
62 309 m 1
 62 370 l 1
 432 370 l 1
 432 309 l 1
 62 309 l 1
494 309 m 1
 494 370 l 1
 679 370 l 1
 679 309 l 1
 494 309 l 1
123 247 m 1
 123 309 l 1
 309 309 l 1
 309 247 l 1
 123 247 l 1
494 247 m 1
 494 309 l 1
 679 309 l 1
 679 247 l 1
 494 247 l 1
123 185 m 1
 123 247 l 1
 309 247 l 1
 309 185 l 1
 123 185 l 1
494 185 m 1
 494 247 l 1
 679 247 l 1
 679 185 l 1
 494 185 l 1
123 123 m 1
 123 185 l 1
 309 185 l 1
 309 123 l 1
 123 123 l 1
432 123 m 1
 432 185 l 1
 617 185 l 1
 617 123 l 1
 432 123 l 1
62 62 m 1
 62 123 l 1
 617 123 l 1
 617 62 l 1
 62 62 l 1
62 0 m 1
 62 62 l 1
 494 62 l 1
 494 0 l 1
 62 0 l 1
EndSplineSet
EndChar

StartChar: Ntilde
Encoding: 209 209 148
Width: 679
Flags: HW
LayerCount: 2
Back
Fore
SplineSet
185 864 m 1
 185 926 l 1
 370 926 l 1
 370 864 l 1
 185 864 l 1
556 864 m 1
 556 926 l 1
 617 926 l 1
 617 864 l 1
 556 864 l 1
123 802 m 1
 123 864 l 1
 617 864 l 1
 617 802 l 1
 123 802 l 1
123 741 m 1
 123 802 l 1
 185 802 l 1
 185 741 l 1
 123 741 l 1
370 741 m 1
 370 802 l 1
 556 802 l 1
 556 741 l 1
 370 741 l 1
62 617 m 1
 62 679 l 1
 309 679 l 1
 309 617 l 1
 62 617 l 1
432 617 m 1
 432 679 l 1
 679 679 l 1
 679 617 l 1
 432 617 l 1
62 556 m 1
 62 617 l 1
 309 617 l 1
 309 556 l 1
 62 556 l 1
432 556 m 1
 432 617 l 1
 679 617 l 1
 679 556 l 1
 432 556 l 1
123 494 m 1
 123 556 l 1
 309 556 l 1
 309 494 l 1
 123 494 l 1
432 494 m 1
 432 556 l 1
 617 556 l 1
 617 494 l 1
 432 494 l 1
123 432 m 1
 123 494 l 1
 370 494 l 1
 370 432 l 1
 123 432 l 1
432 432 m 1
 432 494 l 1
 617 494 l 1
 617 432 l 1
 432 432 l 1
123 370 m 1
 123 432 l 1
 370 432 l 1
 370 370 l 1
 123 370 l 1
432 370 m 1
 432 432 l 1
 617 432 l 1
 617 370 l 1
 432 370 l 1
123 309 m 1
 123 370 l 1
 617 370 l 1
 617 309 l 1
 123 309 l 1
123 247 m 1
 123 309 l 1
 309 309 l 1
 309 247 l 1
 123 247 l 1
370 247 m 1
 370 309 l 1
 617 309 l 1
 617 247 l 1
 370 247 l 1
123 185 m 1
 123 247 l 1
 309 247 l 1
 309 185 l 1
 123 185 l 1
370 185 m 1
 370 247 l 1
 617 247 l 1
 617 185 l 1
 370 185 l 1
123 123 m 1
 123 185 l 1
 309 185 l 1
 309 123 l 1
 123 123 l 1
432 123 m 1
 432 185 l 1
 617 185 l 1
 617 123 l 1
 432 123 l 1
62 62 m 1
 62 123 l 1
 309 123 l 1
 309 62 l 1
 62 62 l 1
432 62 m 1
 432 123 l 1
 617 123 l 1
 617 62 l 1
 432 62 l 1
62 0 m 1
 62 62 l 1
 309 62 l 1
 309 0 l 1
 62 0 l 1
432 0 m 1
 432 62 l 1
 617 62 l 1
 617 0 l 1
 432 0 l 1
EndSplineSet
EndChar

StartChar: Ograve
Encoding: 210 210 149
Width: 679
Flags: HW
LayerCount: 2
Back
Fore
SplineSet
185 864 m 1
 185 926 l 1
 370 926 l 1
 370 864 l 1
 185 864 l 1
247 802 m 1
 247 864 l 1
 432 864 l 1
 432 802 l 1
 247 802 l 1
370 741 m 1
 370 802 l 1
 494 802 l 1
 494 741 l 1
 370 741 l 1
247 617 m 1
 247 679 l 1
 494 679 l 1
 494 617 l 1
 247 617 l 1
123 556 m 1
 123 617 l 1
 617 617 l 1
 617 556 l 1
 123 556 l 1
123 494 m 1
 123 556 l 1
 309 556 l 1
 309 494 l 1
 123 494 l 1
432 494 m 1
 432 556 l 1
 617 556 l 1
 617 494 l 1
 432 494 l 1
62 432 m 1
 62 494 l 1
 247 494 l 1
 247 432 l 1
 62 432 l 1
494 432 m 1
 494 494 l 1
 679 494 l 1
 679 432 l 1
 494 432 l 1
62 370 m 1
 62 432 l 1
 247 432 l 1
 247 370 l 1
 62 370 l 1
494 370 m 1
 494 432 l 1
 679 432 l 1
 679 370 l 1
 494 370 l 1
62 309 m 1
 62 370 l 1
 247 370 l 1
 247 309 l 1
 62 309 l 1
494 309 m 1
 494 370 l 1
 679 370 l 1
 679 309 l 1
 494 309 l 1
62 247 m 1
 62 309 l 1
 247 309 l 1
 247 247 l 1
 62 247 l 1
494 247 m 1
 494 309 l 1
 679 309 l 1
 679 247 l 1
 494 247 l 1
62 185 m 1
 62 247 l 1
 247 247 l 1
 247 185 l 1
 62 185 l 1
494 185 m 1
 494 247 l 1
 679 247 l 1
 679 185 l 1
 494 185 l 1
123 123 m 1
 123 185 l 1
 309 185 l 1
 309 123 l 1
 123 123 l 1
432 123 m 1
 432 185 l 1
 617 185 l 1
 617 123 l 1
 432 123 l 1
123 62 m 1
 123 123 l 1
 617 123 l 1
 617 62 l 1
 123 62 l 1
247 0 m 1
 247 62 l 1
 494 62 l 1
 494 0 l 1
 247 0 l 1
EndSplineSet
EndChar

StartChar: Oacute
Encoding: 211 211 150
Width: 679
Flags: HW
LayerCount: 2
Back
Fore
SplineSet
370 864 m 1
 370 926 l 1
 556 926 l 1
 556 864 l 1
 370 864 l 1
309 802 m 1
 309 864 l 1
 494 864 l 1
 494 802 l 1
 309 802 l 1
247 741 m 1
 247 802 l 1
 370 802 l 1
 370 741 l 1
 247 741 l 1
247 617 m 1
 247 679 l 1
 494 679 l 1
 494 617 l 1
 247 617 l 1
123 556 m 1
 123 617 l 1
 617 617 l 1
 617 556 l 1
 123 556 l 1
123 494 m 1
 123 556 l 1
 309 556 l 1
 309 494 l 1
 123 494 l 1
432 494 m 1
 432 556 l 1
 617 556 l 1
 617 494 l 1
 432 494 l 1
62 432 m 1
 62 494 l 1
 247 494 l 1
 247 432 l 1
 62 432 l 1
494 432 m 1
 494 494 l 1
 679 494 l 1
 679 432 l 1
 494 432 l 1
62 370 m 1
 62 432 l 1
 247 432 l 1
 247 370 l 1
 62 370 l 1
494 370 m 1
 494 432 l 1
 679 432 l 1
 679 370 l 1
 494 370 l 1
62 309 m 1
 62 370 l 1
 247 370 l 1
 247 309 l 1
 62 309 l 1
494 309 m 1
 494 370 l 1
 679 370 l 1
 679 309 l 1
 494 309 l 1
62 247 m 1
 62 309 l 1
 247 309 l 1
 247 247 l 1
 62 247 l 1
494 247 m 1
 494 309 l 1
 679 309 l 1
 679 247 l 1
 494 247 l 1
62 185 m 1
 62 247 l 1
 247 247 l 1
 247 185 l 1
 62 185 l 1
494 185 m 1
 494 247 l 1
 679 247 l 1
 679 185 l 1
 494 185 l 1
123 123 m 1
 123 185 l 1
 309 185 l 1
 309 123 l 1
 123 123 l 1
432 123 m 1
 432 185 l 1
 617 185 l 1
 617 123 l 1
 432 123 l 1
123 62 m 1
 123 123 l 1
 617 123 l 1
 617 62 l 1
 123 62 l 1
247 0 m 1
 247 62 l 1
 494 62 l 1
 494 0 l 1
 247 0 l 1
EndSplineSet
EndChar

StartChar: Ocircumflex
Encoding: 212 212 151
Width: 679
Flags: HW
LayerCount: 2
Back
Fore
SplineSet
309 864 m 1
 309 926 l 1
 432 926 l 1
 432 864 l 1
 309 864 l 1
185 802 m 1
 185 864 l 1
 556 864 l 1
 556 802 l 1
 185 802 l 1
123 741 m 1
 123 802 l 1
 309 802 l 1
 309 741 l 1
 123 741 l 1
432 741 m 1
 432 802 l 1
 617 802 l 1
 617 741 l 1
 432 741 l 1
247 617 m 1
 247 679 l 1
 494 679 l 1
 494 617 l 1
 247 617 l 1
123 556 m 1
 123 617 l 1
 617 617 l 1
 617 556 l 1
 123 556 l 1
123 494 m 1
 123 556 l 1
 309 556 l 1
 309 494 l 1
 123 494 l 1
432 494 m 1
 432 556 l 1
 617 556 l 1
 617 494 l 1
 432 494 l 1
62 432 m 1
 62 494 l 1
 247 494 l 1
 247 432 l 1
 62 432 l 1
494 432 m 1
 494 494 l 1
 679 494 l 1
 679 432 l 1
 494 432 l 1
62 370 m 1
 62 432 l 1
 247 432 l 1
 247 370 l 1
 62 370 l 1
494 370 m 1
 494 432 l 1
 679 432 l 1
 679 370 l 1
 494 370 l 1
62 309 m 1
 62 370 l 1
 247 370 l 1
 247 309 l 1
 62 309 l 1
494 309 m 1
 494 370 l 1
 679 370 l 1
 679 309 l 1
 494 309 l 1
62 247 m 1
 62 309 l 1
 247 309 l 1
 247 247 l 1
 62 247 l 1
494 247 m 1
 494 309 l 1
 679 309 l 1
 679 247 l 1
 494 247 l 1
62 185 m 1
 62 247 l 1
 247 247 l 1
 247 185 l 1
 62 185 l 1
494 185 m 1
 494 247 l 1
 679 247 l 1
 679 185 l 1
 494 185 l 1
123 123 m 1
 123 185 l 1
 309 185 l 1
 309 123 l 1
 123 123 l 1
432 123 m 1
 432 185 l 1
 617 185 l 1
 617 123 l 1
 432 123 l 1
123 62 m 1
 123 123 l 1
 617 123 l 1
 617 62 l 1
 123 62 l 1
247 0 m 1
 247 62 l 1
 494 62 l 1
 494 0 l 1
 247 0 l 1
EndSplineSet
EndChar

StartChar: Otilde
Encoding: 213 213 152
Width: 679
Flags: HW
LayerCount: 2
Back
Fore
SplineSet
185 864 m 1
 185 926 l 1
 370 926 l 1
 370 864 l 1
 185 864 l 1
556 864 m 1
 556 926 l 1
 617 926 l 1
 617 864 l 1
 556 864 l 1
123 802 m 1
 123 864 l 1
 617 864 l 1
 617 802 l 1
 123 802 l 1
123 741 m 1
 123 802 l 1
 185 802 l 1
 185 741 l 1
 123 741 l 1
370 741 m 1
 370 802 l 1
 556 802 l 1
 556 741 l 1
 370 741 l 1
247 617 m 1
 247 679 l 1
 494 679 l 1
 494 617 l 1
 247 617 l 1
123 556 m 1
 123 617 l 1
 617 617 l 1
 617 556 l 1
 123 556 l 1
123 494 m 1
 123 556 l 1
 309 556 l 1
 309 494 l 1
 123 494 l 1
432 494 m 1
 432 556 l 1
 617 556 l 1
 617 494 l 1
 432 494 l 1
62 432 m 1
 62 494 l 1
 247 494 l 1
 247 432 l 1
 62 432 l 1
494 432 m 1
 494 494 l 1
 679 494 l 1
 679 432 l 1
 494 432 l 1
62 370 m 1
 62 432 l 1
 247 432 l 1
 247 370 l 1
 62 370 l 1
494 370 m 1
 494 432 l 1
 679 432 l 1
 679 370 l 1
 494 370 l 1
62 309 m 1
 62 370 l 1
 247 370 l 1
 247 309 l 1
 62 309 l 1
494 309 m 1
 494 370 l 1
 679 370 l 1
 679 309 l 1
 494 309 l 1
62 247 m 1
 62 309 l 1
 247 309 l 1
 247 247 l 1
 62 247 l 1
494 247 m 1
 494 309 l 1
 679 309 l 1
 679 247 l 1
 494 247 l 1
62 185 m 1
 62 247 l 1
 247 247 l 1
 247 185 l 1
 62 185 l 1
494 185 m 1
 494 247 l 1
 679 247 l 1
 679 185 l 1
 494 185 l 1
123 123 m 1
 123 185 l 1
 309 185 l 1
 309 123 l 1
 123 123 l 1
432 123 m 1
 432 185 l 1
 617 185 l 1
 617 123 l 1
 432 123 l 1
123 62 m 1
 123 123 l 1
 617 123 l 1
 617 62 l 1
 123 62 l 1
247 0 m 1
 247 62 l 1
 494 62 l 1
 494 0 l 1
 247 0 l 1
EndSplineSet
EndChar

StartChar: Odieresis
Encoding: 214 214 153
Width: 679
Flags: HW
LayerCount: 2
Back
Fore
SplineSet
123 864 m 1
 123 926 l 1
 309 926 l 1
 309 864 l 1
 123 864 l 1
432 864 m 1
 432 926 l 1
 617 926 l 1
 617 864 l 1
 432 864 l 1
123 802 m 1
 123 864 l 1
 309 864 l 1
 309 802 l 1
 123 802 l 1
432 802 m 1
 432 864 l 1
 617 864 l 1
 617 802 l 1
 432 802 l 1
247 617 m 1
 247 679 l 1
 494 679 l 1
 494 617 l 1
 247 617 l 1
123 556 m 1
 123 617 l 1
 617 617 l 1
 617 556 l 1
 123 556 l 1
123 494 m 1
 123 556 l 1
 309 556 l 1
 309 494 l 1
 123 494 l 1
432 494 m 1
 432 556 l 1
 617 556 l 1
 617 494 l 1
 432 494 l 1
62 432 m 1
 62 494 l 1
 247 494 l 1
 247 432 l 1
 62 432 l 1
494 432 m 1
 494 494 l 1
 679 494 l 1
 679 432 l 1
 494 432 l 1
62 370 m 1
 62 432 l 1
 247 432 l 1
 247 370 l 1
 62 370 l 1
494 370 m 1
 494 432 l 1
 679 432 l 1
 679 370 l 1
 494 370 l 1
62 309 m 1
 62 370 l 1
 247 370 l 1
 247 309 l 1
 62 309 l 1
494 309 m 1
 494 370 l 1
 679 370 l 1
 679 309 l 1
 494 309 l 1
62 247 m 1
 62 309 l 1
 247 309 l 1
 247 247 l 1
 62 247 l 1
494 247 m 1
 494 309 l 1
 679 309 l 1
 679 247 l 1
 494 247 l 1
62 185 m 1
 62 247 l 1
 247 247 l 1
 247 185 l 1
 62 185 l 1
494 185 m 1
 494 247 l 1
 679 247 l 1
 679 185 l 1
 494 185 l 1
123 123 m 1
 123 185 l 1
 309 185 l 1
 309 123 l 1
 123 123 l 1
432 123 m 1
 432 185 l 1
 617 185 l 1
 617 123 l 1
 432 123 l 1
123 62 m 1
 123 123 l 1
 617 123 l 1
 617 62 l 1
 123 62 l 1
247 0 m 1
 247 62 l 1
 494 62 l 1
 494 0 l 1
 247 0 l 1
EndSplineSet
EndChar

StartChar: multiply
Encoding: 215 215 154
Width: 679
Flags: HW
LayerCount: 2
Back
Fore
SplineSet
185 494 m 1
 185 556 l 1
 247 556 l 1
 247 494 l 1
 185 494 l 1
494 494 m 1
 494 556 l 1
 556 556 l 1
 556 494 l 1
 494 494 l 1
123 432 m 1
 123 494 l 1
 309 494 l 1
 309 432 l 1
 123 432 l 1
432 432 m 1
 432 494 l 1
 617 494 l 1
 617 432 l 1
 432 432 l 1
185 370 m 1
 185 432 l 1
 556 432 l 1
 556 370 l 1
 185 370 l 1
247 309 m 1
 247 370 l 1
 494 370 l 1
 494 309 l 1
 247 309 l 1
247 247 m 1
 247 309 l 1
 494 309 l 1
 494 247 l 1
 247 247 l 1
185 185 m 1
 185 247 l 1
 556 247 l 1
 556 185 l 1
 185 185 l 1
123 123 m 1
 123 185 l 1
 309 185 l 1
 309 123 l 1
 123 123 l 1
432 123 m 1
 432 185 l 1
 617 185 l 1
 617 123 l 1
 432 123 l 1
185 62 m 1
 185 123 l 1
 247 123 l 1
 247 62 l 1
 185 62 l 1
494 62 m 1
 494 123 l 1
 556 123 l 1
 556 62 l 1
 494 62 l 1
EndSplineSet
EndChar

StartChar: Oslash
Encoding: 216 216 155
Width: 679
Flags: HW
LayerCount: 2
Back
Fore
SplineSet
247 617 m 1
 247 679 l 1
 494 679 l 1
 494 617 l 1
 247 617 l 1
556 617 m 1
 556 679 l 1
 679 679 l 1
 679 617 l 1
 556 617 l 1
123 556 m 1
 123 617 l 1
 679 617 l 1
 679 556 l 1
 123 556 l 1
123 494 m 1
 123 556 l 1
 309 556 l 1
 309 494 l 1
 123 494 l 1
432 494 m 1
 432 556 l 1
 617 556 l 1
 617 494 l 1
 432 494 l 1
62 432 m 1
 62 494 l 1
 247 494 l 1
 247 432 l 1
 62 432 l 1
370 432 m 1
 370 494 l 1
 679 494 l 1
 679 432 l 1
 370 432 l 1
62 370 m 1
 62 432 l 1
 247 432 l 1
 247 370 l 1
 62 370 l 1
370 370 m 1
 370 432 l 1
 679 432 l 1
 679 370 l 1
 370 370 l 1
62 309 m 1
 62 370 l 1
 247 370 l 1
 247 309 l 1
 62 309 l 1
309 309 m 1
 309 370 l 1
 432 370 l 1
 432 309 l 1
 309 309 l 1
494 309 m 1
 494 370 l 1
 679 370 l 1
 679 309 l 1
 494 309 l 1
62 247 m 1
 62 309 l 1
 247 309 l 1
 247 247 l 1
 62 247 l 1
309 247 m 1
 309 309 l 1
 432 309 l 1
 432 247 l 1
 309 247 l 1
494 247 m 1
 494 309 l 1
 679 309 l 1
 679 247 l 1
 494 247 l 1
62 185 m 1
 62 247 l 1
 370 247 l 1
 370 185 l 1
 62 185 l 1
494 185 m 1
 494 247 l 1
 679 247 l 1
 679 185 l 1
 494 185 l 1
123 123 m 1
 123 185 l 1
 309 185 l 1
 309 123 l 1
 123 123 l 1
432 123 m 1
 432 185 l 1
 617 185 l 1
 617 123 l 1
 432 123 l 1
62 62 m 1
 62 123 l 1
 617 123 l 1
 617 62 l 1
 62 62 l 1
62 0 m 1
 62 62 l 1
 185 62 l 1
 185 0 l 1
 62 0 l 1
247 0 m 1
 247 62 l 1
 494 62 l 1
 494 0 l 1
 247 0 l 1
EndSplineSet
EndChar

StartChar: Ugrave
Encoding: 217 217 156
Width: 679
Flags: HW
LayerCount: 2
Back
Fore
SplineSet
185 864 m 1
 185 926 l 1
 370 926 l 1
 370 864 l 1
 185 864 l 1
247 802 m 1
 247 864 l 1
 432 864 l 1
 432 802 l 1
 247 802 l 1
370 741 m 1
 370 802 l 1
 494 802 l 1
 494 741 l 1
 370 741 l 1
62 617 m 1
 62 679 l 1
 309 679 l 1
 309 617 l 1
 62 617 l 1
432 617 m 1
 432 679 l 1
 679 679 l 1
 679 617 l 1
 432 617 l 1
62 556 m 1
 62 617 l 1
 309 617 l 1
 309 556 l 1
 62 556 l 1
432 556 m 1
 432 617 l 1
 679 617 l 1
 679 556 l 1
 432 556 l 1
123 494 m 1
 123 556 l 1
 309 556 l 1
 309 494 l 1
 123 494 l 1
432 494 m 1
 432 556 l 1
 617 556 l 1
 617 494 l 1
 432 494 l 1
123 432 m 1
 123 494 l 1
 309 494 l 1
 309 432 l 1
 123 432 l 1
432 432 m 1
 432 494 l 1
 617 494 l 1
 617 432 l 1
 432 432 l 1
123 370 m 1
 123 432 l 1
 309 432 l 1
 309 370 l 1
 123 370 l 1
432 370 m 1
 432 432 l 1
 617 432 l 1
 617 370 l 1
 432 370 l 1
123 309 m 1
 123 370 l 1
 309 370 l 1
 309 309 l 1
 123 309 l 1
432 309 m 1
 432 370 l 1
 617 370 l 1
 617 309 l 1
 432 309 l 1
123 247 m 1
 123 309 l 1
 309 309 l 1
 309 247 l 1
 123 247 l 1
432 247 m 1
 432 309 l 1
 617 309 l 1
 617 247 l 1
 432 247 l 1
123 185 m 1
 123 247 l 1
 309 247 l 1
 309 185 l 1
 123 185 l 1
432 185 m 1
 432 247 l 1
 617 247 l 1
 617 185 l 1
 432 185 l 1
123 123 m 1
 123 185 l 1
 309 185 l 1
 309 123 l 1
 123 123 l 1
432 123 m 1
 432 185 l 1
 617 185 l 1
 617 123 l 1
 432 123 l 1
123 62 m 1
 123 123 l 1
 617 123 l 1
 617 62 l 1
 123 62 l 1
185 0 m 1
 185 62 l 1
 556 62 l 1
 556 0 l 1
 185 0 l 1
EndSplineSet
EndChar

StartChar: Uacute
Encoding: 218 218 157
Width: 679
Flags: HW
LayerCount: 2
Back
Fore
SplineSet
370 864 m 1
 370 926 l 1
 556 926 l 1
 556 864 l 1
 370 864 l 1
309 802 m 1
 309 864 l 1
 494 864 l 1
 494 802 l 1
 309 802 l 1
247 741 m 1
 247 802 l 1
 370 802 l 1
 370 741 l 1
 247 741 l 1
62 617 m 1
 62 679 l 1
 309 679 l 1
 309 617 l 1
 62 617 l 1
432 617 m 1
 432 679 l 1
 679 679 l 1
 679 617 l 1
 432 617 l 1
62 556 m 1
 62 617 l 1
 309 617 l 1
 309 556 l 1
 62 556 l 1
432 556 m 1
 432 617 l 1
 679 617 l 1
 679 556 l 1
 432 556 l 1
123 494 m 1
 123 556 l 1
 309 556 l 1
 309 494 l 1
 123 494 l 1
432 494 m 1
 432 556 l 1
 617 556 l 1
 617 494 l 1
 432 494 l 1
123 432 m 1
 123 494 l 1
 309 494 l 1
 309 432 l 1
 123 432 l 1
432 432 m 1
 432 494 l 1
 617 494 l 1
 617 432 l 1
 432 432 l 1
123 370 m 1
 123 432 l 1
 309 432 l 1
 309 370 l 1
 123 370 l 1
432 370 m 1
 432 432 l 1
 617 432 l 1
 617 370 l 1
 432 370 l 1
123 309 m 1
 123 370 l 1
 309 370 l 1
 309 309 l 1
 123 309 l 1
432 309 m 1
 432 370 l 1
 617 370 l 1
 617 309 l 1
 432 309 l 1
123 247 m 1
 123 309 l 1
 309 309 l 1
 309 247 l 1
 123 247 l 1
432 247 m 1
 432 309 l 1
 617 309 l 1
 617 247 l 1
 432 247 l 1
123 185 m 1
 123 247 l 1
 309 247 l 1
 309 185 l 1
 123 185 l 1
432 185 m 1
 432 247 l 1
 617 247 l 1
 617 185 l 1
 432 185 l 1
123 123 m 1
 123 185 l 1
 309 185 l 1
 309 123 l 1
 123 123 l 1
432 123 m 1
 432 185 l 1
 617 185 l 1
 617 123 l 1
 432 123 l 1
123 62 m 1
 123 123 l 1
 617 123 l 1
 617 62 l 1
 123 62 l 1
185 0 m 1
 185 62 l 1
 556 62 l 1
 556 0 l 1
 185 0 l 1
EndSplineSet
EndChar

StartChar: Ucircumflex
Encoding: 219 219 158
Width: 679
Flags: HW
LayerCount: 2
Back
Fore
SplineSet
309 864 m 1
 309 926 l 1
 432 926 l 1
 432 864 l 1
 309 864 l 1
185 802 m 1
 185 864 l 1
 556 864 l 1
 556 802 l 1
 185 802 l 1
123 741 m 1
 123 802 l 1
 309 802 l 1
 309 741 l 1
 123 741 l 1
432 741 m 1
 432 802 l 1
 617 802 l 1
 617 741 l 1
 432 741 l 1
62 617 m 1
 62 679 l 1
 309 679 l 1
 309 617 l 1
 62 617 l 1
432 617 m 1
 432 679 l 1
 679 679 l 1
 679 617 l 1
 432 617 l 1
62 556 m 1
 62 617 l 1
 309 617 l 1
 309 556 l 1
 62 556 l 1
432 556 m 1
 432 617 l 1
 679 617 l 1
 679 556 l 1
 432 556 l 1
123 494 m 1
 123 556 l 1
 309 556 l 1
 309 494 l 1
 123 494 l 1
432 494 m 1
 432 556 l 1
 617 556 l 1
 617 494 l 1
 432 494 l 1
123 432 m 1
 123 494 l 1
 309 494 l 1
 309 432 l 1
 123 432 l 1
432 432 m 1
 432 494 l 1
 617 494 l 1
 617 432 l 1
 432 432 l 1
123 370 m 1
 123 432 l 1
 309 432 l 1
 309 370 l 1
 123 370 l 1
432 370 m 1
 432 432 l 1
 617 432 l 1
 617 370 l 1
 432 370 l 1
123 309 m 1
 123 370 l 1
 309 370 l 1
 309 309 l 1
 123 309 l 1
432 309 m 1
 432 370 l 1
 617 370 l 1
 617 309 l 1
 432 309 l 1
123 247 m 1
 123 309 l 1
 309 309 l 1
 309 247 l 1
 123 247 l 1
432 247 m 1
 432 309 l 1
 617 309 l 1
 617 247 l 1
 432 247 l 1
123 185 m 1
 123 247 l 1
 309 247 l 1
 309 185 l 1
 123 185 l 1
432 185 m 1
 432 247 l 1
 617 247 l 1
 617 185 l 1
 432 185 l 1
123 123 m 1
 123 185 l 1
 309 185 l 1
 309 123 l 1
 123 123 l 1
432 123 m 1
 432 185 l 1
 617 185 l 1
 617 123 l 1
 432 123 l 1
123 62 m 1
 123 123 l 1
 617 123 l 1
 617 62 l 1
 123 62 l 1
185 0 m 1
 185 62 l 1
 556 62 l 1
 556 0 l 1
 185 0 l 1
EndSplineSet
EndChar

StartChar: Udieresis
Encoding: 220 220 159
Width: 679
Flags: HW
LayerCount: 2
Back
Fore
SplineSet
123 864 m 1
 123 926 l 1
 309 926 l 1
 309 864 l 1
 123 864 l 1
432 864 m 1
 432 926 l 1
 617 926 l 1
 617 864 l 1
 432 864 l 1
123 802 m 1
 123 864 l 1
 309 864 l 1
 309 802 l 1
 123 802 l 1
432 802 m 1
 432 864 l 1
 617 864 l 1
 617 802 l 1
 432 802 l 1
62 617 m 1
 62 679 l 1
 309 679 l 1
 309 617 l 1
 62 617 l 1
432 617 m 1
 432 679 l 1
 679 679 l 1
 679 617 l 1
 432 617 l 1
62 556 m 1
 62 617 l 1
 309 617 l 1
 309 556 l 1
 62 556 l 1
432 556 m 1
 432 617 l 1
 679 617 l 1
 679 556 l 1
 432 556 l 1
123 494 m 1
 123 556 l 1
 309 556 l 1
 309 494 l 1
 123 494 l 1
432 494 m 1
 432 556 l 1
 617 556 l 1
 617 494 l 1
 432 494 l 1
123 432 m 1
 123 494 l 1
 309 494 l 1
 309 432 l 1
 123 432 l 1
432 432 m 1
 432 494 l 1
 617 494 l 1
 617 432 l 1
 432 432 l 1
123 370 m 1
 123 432 l 1
 309 432 l 1
 309 370 l 1
 123 370 l 1
432 370 m 1
 432 432 l 1
 617 432 l 1
 617 370 l 1
 432 370 l 1
123 309 m 1
 123 370 l 1
 309 370 l 1
 309 309 l 1
 123 309 l 1
432 309 m 1
 432 370 l 1
 617 370 l 1
 617 309 l 1
 432 309 l 1
123 247 m 1
 123 309 l 1
 309 309 l 1
 309 247 l 1
 123 247 l 1
432 247 m 1
 432 309 l 1
 617 309 l 1
 617 247 l 1
 432 247 l 1
123 185 m 1
 123 247 l 1
 309 247 l 1
 309 185 l 1
 123 185 l 1
432 185 m 1
 432 247 l 1
 617 247 l 1
 617 185 l 1
 432 185 l 1
123 123 m 1
 123 185 l 1
 309 185 l 1
 309 123 l 1
 123 123 l 1
432 123 m 1
 432 185 l 1
 617 185 l 1
 617 123 l 1
 432 123 l 1
123 62 m 1
 123 123 l 1
 617 123 l 1
 617 62 l 1
 123 62 l 1
185 0 m 1
 185 62 l 1
 556 62 l 1
 556 0 l 1
 185 0 l 1
EndSplineSet
EndChar

StartChar: Yacute
Encoding: 221 221 160
Width: 679
Flags: HW
LayerCount: 2
Back
Fore
SplineSet
370 864 m 1
 370 926 l 1
 556 926 l 1
 556 864 l 1
 370 864 l 1
309 802 m 1
 309 864 l 1
 494 864 l 1
 494 802 l 1
 309 802 l 1
247 741 m 1
 247 802 l 1
 370 802 l 1
 370 741 l 1
 247 741 l 1
62 617 m 1
 62 679 l 1
 309 679 l 1
 309 617 l 1
 62 617 l 1
370 617 m 1
 370 679 l 1
 617 679 l 1
 617 617 l 1
 370 617 l 1
62 556 m 1
 62 617 l 1
 309 617 l 1
 309 556 l 1
 62 556 l 1
370 556 m 1
 370 617 l 1
 617 617 l 1
 617 556 l 1
 370 556 l 1
123 494 m 1
 123 556 l 1
 309 556 l 1
 309 494 l 1
 123 494 l 1
370 494 m 1
 370 556 l 1
 556 556 l 1
 556 494 l 1
 370 494 l 1
123 432 m 1
 123 494 l 1
 309 494 l 1
 309 432 l 1
 123 432 l 1
370 432 m 1
 370 494 l 1
 556 494 l 1
 556 432 l 1
 370 432 l 1
185 370 m 1
 185 432 l 1
 494 432 l 1
 494 370 l 1
 185 370 l 1
185 309 m 1
 185 370 l 1
 494 370 l 1
 494 309 l 1
 185 309 l 1
247 247 m 1
 247 309 l 1
 432 309 l 1
 432 247 l 1
 247 247 l 1
247 185 m 1
 247 247 l 1
 432 247 l 1
 432 185 l 1
 247 185 l 1
247 123 m 1
 247 185 l 1
 432 185 l 1
 432 123 l 1
 247 123 l 1
185 62 m 1
 185 123 l 1
 494 123 l 1
 494 62 l 1
 185 62 l 1
185 0 m 1
 185 62 l 1
 494 62 l 1
 494 0 l 1
 185 0 l 1
EndSplineSet
EndChar

StartChar: Thorn
Encoding: 222 222 161
Width: 679
Flags: HW
LayerCount: 2
Back
Fore
SplineSet
62 617 m 1
 62 679 l 1
 309 679 l 1
 309 617 l 1
 62 617 l 1
62 556 m 1
 62 617 l 1
 309 617 l 1
 309 556 l 1
 62 556 l 1
123 494 m 1
 123 556 l 1
 556 556 l 1
 556 494 l 1
 123 494 l 1
123 432 m 1
 123 494 l 1
 617 494 l 1
 617 432 l 1
 123 432 l 1
123 370 m 1
 123 432 l 1
 309 432 l 1
 309 370 l 1
 123 370 l 1
432 370 m 1
 432 432 l 1
 617 432 l 1
 617 370 l 1
 432 370 l 1
123 309 m 1
 123 370 l 1
 309 370 l 1
 309 309 l 1
 123 309 l 1
432 309 m 1
 432 370 l 1
 617 370 l 1
 617 309 l 1
 432 309 l 1
123 247 m 1
 123 309 l 1
 617 309 l 1
 617 247 l 1
 123 247 l 1
123 185 m 1
 123 247 l 1
 556 247 l 1
 556 185 l 1
 123 185 l 1
123 123 m 1
 123 185 l 1
 309 185 l 1
 309 123 l 1
 123 123 l 1
62 62 m 1
 62 123 l 1
 370 123 l 1
 370 62 l 1
 62 62 l 1
62 0 m 1
 62 62 l 1
 370 62 l 1
 370 0 l 1
 62 0 l 1
EndSplineSet
EndChar

StartChar: germandbls
Encoding: 223 223 162
Width: 679
Flags: HW
LayerCount: 2
Back
Fore
SplineSet
185 679 m 1
 185 741 l 1
 556 741 l 1
 556 679 l 1
 185 679 l 1
123 617 m 1
 123 679 l 1
 617 679 l 1
 617 617 l 1
 123 617 l 1
123 556 m 1
 123 617 l 1
 309 617 l 1
 309 556 l 1
 123 556 l 1
432 556 m 1
 432 617 l 1
 617 617 l 1
 617 556 l 1
 432 556 l 1
123 494 m 1
 123 556 l 1
 309 556 l 1
 309 494 l 1
 123 494 l 1
432 494 m 1
 432 556 l 1
 617 556 l 1
 617 494 l 1
 432 494 l 1
123 432 m 1
 123 494 l 1
 309 494 l 1
 309 432 l 1
 123 432 l 1
370 432 m 1
 370 494 l 1
 556 494 l 1
 556 432 l 1
 370 432 l 1
123 370 m 1
 123 432 l 1
 309 432 l 1
 309 370 l 1
 123 370 l 1
370 370 m 1
 370 432 l 1
 617 432 l 1
 617 370 l 1
 370 370 l 1
123 309 m 1
 123 370 l 1
 309 370 l 1
 309 309 l 1
 123 309 l 1
494 309 m 1
 494 370 l 1
 679 370 l 1
 679 309 l 1
 494 309 l 1
123 247 m 1
 123 309 l 1
 309 309 l 1
 309 247 l 1
 123 247 l 1
494 247 m 1
 494 309 l 1
 679 309 l 1
 679 247 l 1
 494 247 l 1
123 185 m 1
 123 247 l 1
 309 247 l 1
 309 185 l 1
 123 185 l 1
494 185 m 1
 494 247 l 1
 679 247 l 1
 679 185 l 1
 494 185 l 1
123 123 m 1
 123 185 l 1
 309 185 l 1
 309 123 l 1
 123 123 l 1
494 123 m 1
 494 185 l 1
 679 185 l 1
 679 123 l 1
 494 123 l 1
62 62 m 1
 62 123 l 1
 309 123 l 1
 309 62 l 1
 62 62 l 1
370 62 m 1
 370 123 l 1
 679 123 l 1
 679 62 l 1
 370 62 l 1
62 0 m 1
 62 62 l 1
 309 62 l 1
 309 0 l 1
 62 0 l 1
370 0 m 1
 370 62 l 1
 617 62 l 1
 617 0 l 1
 370 0 l 1
EndSplineSet
EndChar

StartChar: agrave
Encoding: 224 224 163
Width: 679
Flags: HW
LayerCount: 2
Back
Fore
SplineSet
185 802 m 1
 185 864 l 1
 370 864 l 1
 370 802 l 1
 185 802 l 1
247 741 m 1
 247 802 l 1
 432 802 l 1
 432 741 l 1
 247 741 l 1
370 679 m 1
 370 741 l 1
 494 741 l 1
 494 679 l 1
 370 679 l 1
185 494 m 1
 185 556 l 1
 556 556 l 1
 556 494 l 1
 185 494 l 1
123 432 m 1
 123 494 l 1
 617 494 l 1
 617 432 l 1
 123 432 l 1
432 370 m 1
 432 432 l 1
 617 432 l 1
 617 370 l 1
 432 370 l 1
185 309 m 1
 185 370 l 1
 617 370 l 1
 617 309 l 1
 185 309 l 1
123 247 m 1
 123 309 l 1
 617 309 l 1
 617 247 l 1
 123 247 l 1
62 185 m 1
 62 247 l 1
 247 247 l 1
 247 185 l 1
 62 185 l 1
432 185 m 1
 432 247 l 1
 617 247 l 1
 617 185 l 1
 432 185 l 1
62 123 m 1
 62 185 l 1
 247 185 l 1
 247 123 l 1
 62 123 l 1
370 123 m 1
 370 185 l 1
 617 185 l 1
 617 123 l 1
 370 123 l 1
62 62 m 1
 62 123 l 1
 679 123 l 1
 679 62 l 1
 62 62 l 1
123 0 m 1
 123 62 l 1
 370 62 l 1
 370 0 l 1
 123 0 l 1
432 0 m 1
 432 62 l 1
 679 62 l 1
 679 0 l 1
 432 0 l 1
EndSplineSet
EndChar

StartChar: aacute
Encoding: 225 225 164
Width: 679
Flags: HW
LayerCount: 2
Back
Fore
SplineSet
370 802 m 1
 370 864 l 1
 556 864 l 1
 556 802 l 1
 370 802 l 1
309 741 m 1
 309 802 l 1
 494 802 l 1
 494 741 l 1
 309 741 l 1
247 679 m 1
 247 741 l 1
 370 741 l 1
 370 679 l 1
 247 679 l 1
185 494 m 1
 185 556 l 1
 556 556 l 1
 556 494 l 1
 185 494 l 1
123 432 m 1
 123 494 l 1
 617 494 l 1
 617 432 l 1
 123 432 l 1
432 370 m 1
 432 432 l 1
 617 432 l 1
 617 370 l 1
 432 370 l 1
185 309 m 1
 185 370 l 1
 617 370 l 1
 617 309 l 1
 185 309 l 1
123 247 m 1
 123 309 l 1
 617 309 l 1
 617 247 l 1
 123 247 l 1
62 185 m 1
 62 247 l 1
 247 247 l 1
 247 185 l 1
 62 185 l 1
432 185 m 1
 432 247 l 1
 617 247 l 1
 617 185 l 1
 432 185 l 1
62 123 m 1
 62 185 l 1
 247 185 l 1
 247 123 l 1
 62 123 l 1
370 123 m 1
 370 185 l 1
 617 185 l 1
 617 123 l 1
 370 123 l 1
62 62 m 1
 62 123 l 1
 679 123 l 1
 679 62 l 1
 62 62 l 1
123 0 m 1
 123 62 l 1
 370 62 l 1
 370 0 l 1
 123 0 l 1
432 0 m 1
 432 62 l 1
 679 62 l 1
 679 0 l 1
 432 0 l 1
EndSplineSet
EndChar

StartChar: acircumflex
Encoding: 226 226 165
Width: 679
Flags: HW
LayerCount: 2
Back
Fore
SplineSet
247 802 m 1
 247 864 l 1
 494 864 l 1
 494 802 l 1
 247 802 l 1
185 741 m 1
 185 802 l 1
 556 802 l 1
 556 741 l 1
 185 741 l 1
123 679 m 1
 123 741 l 1
 309 741 l 1
 309 679 l 1
 123 679 l 1
432 679 m 1
 432 741 l 1
 617 741 l 1
 617 679 l 1
 432 679 l 1
185 494 m 1
 185 556 l 1
 556 556 l 1
 556 494 l 1
 185 494 l 1
123 432 m 1
 123 494 l 1
 617 494 l 1
 617 432 l 1
 123 432 l 1
432 370 m 1
 432 432 l 1
 617 432 l 1
 617 370 l 1
 432 370 l 1
185 309 m 1
 185 370 l 1
 617 370 l 1
 617 309 l 1
 185 309 l 1
123 247 m 1
 123 309 l 1
 617 309 l 1
 617 247 l 1
 123 247 l 1
62 185 m 1
 62 247 l 1
 247 247 l 1
 247 185 l 1
 62 185 l 1
432 185 m 1
 432 247 l 1
 617 247 l 1
 617 185 l 1
 432 185 l 1
62 123 m 1
 62 185 l 1
 247 185 l 1
 247 123 l 1
 62 123 l 1
370 123 m 1
 370 185 l 1
 617 185 l 1
 617 123 l 1
 370 123 l 1
62 62 m 1
 62 123 l 1
 679 123 l 1
 679 62 l 1
 62 62 l 1
123 0 m 1
 123 62 l 1
 370 62 l 1
 370 0 l 1
 123 0 l 1
432 0 m 1
 432 62 l 1
 679 62 l 1
 679 0 l 1
 432 0 l 1
EndSplineSet
EndChar

StartChar: atilde
Encoding: 227 227 166
Width: 679
Flags: HW
LayerCount: 2
Back
Fore
SplineSet
185 802 m 1
 185 864 l 1
 370 864 l 1
 370 802 l 1
 185 802 l 1
556 802 m 1
 556 864 l 1
 617 864 l 1
 617 802 l 1
 556 802 l 1
123 741 m 1
 123 802 l 1
 617 802 l 1
 617 741 l 1
 123 741 l 1
123 679 m 1
 123 741 l 1
 185 741 l 1
 185 679 l 1
 123 679 l 1
370 679 m 1
 370 741 l 1
 556 741 l 1
 556 679 l 1
 370 679 l 1
185 494 m 1
 185 556 l 1
 556 556 l 1
 556 494 l 1
 185 494 l 1
123 432 m 1
 123 494 l 1
 617 494 l 1
 617 432 l 1
 123 432 l 1
432 370 m 1
 432 432 l 1
 617 432 l 1
 617 370 l 1
 432 370 l 1
185 309 m 1
 185 370 l 1
 617 370 l 1
 617 309 l 1
 185 309 l 1
123 247 m 1
 123 309 l 1
 617 309 l 1
 617 247 l 1
 123 247 l 1
62 185 m 1
 62 247 l 1
 247 247 l 1
 247 185 l 1
 62 185 l 1
432 185 m 1
 432 247 l 1
 617 247 l 1
 617 185 l 1
 432 185 l 1
62 123 m 1
 62 185 l 1
 247 185 l 1
 247 123 l 1
 62 123 l 1
370 123 m 1
 370 185 l 1
 617 185 l 1
 617 123 l 1
 370 123 l 1
62 62 m 1
 62 123 l 1
 679 123 l 1
 679 62 l 1
 62 62 l 1
123 0 m 1
 123 62 l 1
 370 62 l 1
 370 0 l 1
 123 0 l 1
432 0 m 1
 432 62 l 1
 679 62 l 1
 679 0 l 1
 432 0 l 1
EndSplineSet
EndChar

StartChar: adieresis
Encoding: 228 228 167
Width: 679
Flags: HW
LayerCount: 2
Back
Fore
SplineSet
123 802 m 1
 123 864 l 1
 247 864 l 1
 247 802 l 1
 123 802 l 1
494 802 m 1
 494 864 l 1
 617 864 l 1
 617 802 l 1
 494 802 l 1
62 741 m 1
 62 802 l 1
 309 802 l 1
 309 741 l 1
 62 741 l 1
432 741 m 1
 432 802 l 1
 679 802 l 1
 679 741 l 1
 432 741 l 1
123 679 m 1
 123 741 l 1
 247 741 l 1
 247 679 l 1
 123 679 l 1
494 679 m 1
 494 741 l 1
 617 741 l 1
 617 679 l 1
 494 679 l 1
185 494 m 1
 185 556 l 1
 556 556 l 1
 556 494 l 1
 185 494 l 1
123 432 m 1
 123 494 l 1
 617 494 l 1
 617 432 l 1
 123 432 l 1
432 370 m 1
 432 432 l 1
 617 432 l 1
 617 370 l 1
 432 370 l 1
185 309 m 1
 185 370 l 1
 617 370 l 1
 617 309 l 1
 185 309 l 1
123 247 m 1
 123 309 l 1
 617 309 l 1
 617 247 l 1
 123 247 l 1
62 185 m 1
 62 247 l 1
 247 247 l 1
 247 185 l 1
 62 185 l 1
432 185 m 1
 432 247 l 1
 617 247 l 1
 617 185 l 1
 432 185 l 1
62 123 m 1
 62 185 l 1
 247 185 l 1
 247 123 l 1
 62 123 l 1
370 123 m 1
 370 185 l 1
 617 185 l 1
 617 123 l 1
 370 123 l 1
62 62 m 1
 62 123 l 1
 679 123 l 1
 679 62 l 1
 62 62 l 1
123 0 m 1
 123 62 l 1
 370 62 l 1
 370 0 l 1
 123 0 l 1
432 0 m 1
 432 62 l 1
 679 62 l 1
 679 0 l 1
 432 0 l 1
EndSplineSet
EndChar

StartChar: aring
Encoding: 229 229 168
Width: 679
Flags: HW
LayerCount: 2
Back
Fore
SplineSet
185 802 m 1
 185 864 l 1
 494 864 l 1
 494 802 l 1
 185 802 l 1
123 741 m 1
 123 802 l 1
 309 802 l 1
 309 741 l 1
 123 741 l 1
370 741 m 1
 370 802 l 1
 556 802 l 1
 556 741 l 1
 370 741 l 1
123 679 m 1
 123 741 l 1
 309 741 l 1
 309 679 l 1
 123 679 l 1
370 679 m 1
 370 741 l 1
 556 741 l 1
 556 679 l 1
 370 679 l 1
185 617 m 1
 185 679 l 1
 494 679 l 1
 494 617 l 1
 185 617 l 1
185 494 m 1
 185 556 l 1
 556 556 l 1
 556 494 l 1
 185 494 l 1
123 432 m 1
 123 494 l 1
 617 494 l 1
 617 432 l 1
 123 432 l 1
432 370 m 1
 432 432 l 1
 617 432 l 1
 617 370 l 1
 432 370 l 1
185 309 m 1
 185 370 l 1
 617 370 l 1
 617 309 l 1
 185 309 l 1
123 247 m 1
 123 309 l 1
 617 309 l 1
 617 247 l 1
 123 247 l 1
62 185 m 1
 62 247 l 1
 247 247 l 1
 247 185 l 1
 62 185 l 1
432 185 m 1
 432 247 l 1
 617 247 l 1
 617 185 l 1
 432 185 l 1
62 123 m 1
 62 185 l 1
 247 185 l 1
 247 123 l 1
 62 123 l 1
370 123 m 1
 370 185 l 1
 617 185 l 1
 617 123 l 1
 370 123 l 1
62 62 m 1
 62 123 l 1
 679 123 l 1
 679 62 l 1
 62 62 l 1
123 0 m 1
 123 62 l 1
 370 62 l 1
 370 0 l 1
 123 0 l 1
432 0 m 1
 432 62 l 1
 679 62 l 1
 679 0 l 1
 432 0 l 1
EndSplineSet
EndChar

StartChar: ae
Encoding: 230 230 169
Width: 679
Flags: HW
LayerCount: 2
Back
Fore
SplineSet
123 494 m 1
 123 556 l 1
 370 556 l 1
 370 494 l 1
 123 494 l 1
432 494 m 1
 432 556 l 1
 617 556 l 1
 617 494 l 1
 432 494 l 1
123 432 m 1
 123 494 l 1
 679 494 l 1
 679 432 l 1
 123 432 l 1
309 370 m 1
 309 432 l 1
 494 432 l 1
 494 370 l 1
 309 370 l 1
556 370 m 1
 556 432 l 1
 679 432 l 1
 679 370 l 1
 556 370 l 1
123 309 m 1
 123 370 l 1
 679 370 l 1
 679 309 l 1
 123 309 l 1
62 247 m 1
 62 309 l 1
 679 309 l 1
 679 247 l 1
 62 247 l 1
62 185 m 1
 62 247 l 1
 185 247 l 1
 185 185 l 1
 62 185 l 1
309 185 m 1
 309 247 l 1
 494 247 l 1
 494 185 l 1
 309 185 l 1
62 123 m 1
 62 185 l 1
 185 185 l 1
 185 123 l 1
 62 123 l 1
309 123 m 1
 309 185 l 1
 494 185 l 1
 494 123 l 1
 309 123 l 1
556 123 m 1
 556 185 l 1
 679 185 l 1
 679 123 l 1
 556 123 l 1
62 62 m 1
 62 123 l 1
 679 123 l 1
 679 62 l 1
 62 62 l 1
123 0 m 1
 123 62 l 1
 309 62 l 1
 309 0 l 1
 123 0 l 1
432 0 m 1
 432 62 l 1
 617 62 l 1
 617 0 l 1
 432 0 l 1
EndSplineSet
EndChar

StartChar: ccedilla
Encoding: 231 231 170
Width: 679
Flags: HW
LayerCount: 2
Back
Fore
SplineSet
185 494 m 1
 185 556 l 1
 494 556 l 1
 494 494 l 1
 185 494 l 1
556 494 m 1
 556 556 l 1
 679 556 l 1
 679 494 l 1
 556 494 l 1
123 432 m 1
 123 494 l 1
 679 494 l 1
 679 432 l 1
 123 432 l 1
62 370 m 1
 62 432 l 1
 309 432 l 1
 309 370 l 1
 62 370 l 1
432 370 m 1
 432 432 l 1
 679 432 l 1
 679 370 l 1
 432 370 l 1
62 309 m 1
 62 370 l 1
 247 370 l 1
 247 309 l 1
 62 309 l 1
494 309 m 1
 494 370 l 1
 679 370 l 1
 679 309 l 1
 494 309 l 1
62 247 m 1
 62 309 l 1
 247 309 l 1
 247 247 l 1
 62 247 l 1
62 185 m 1
 62 247 l 1
 247 247 l 1
 247 185 l 1
 62 185 l 1
62 123 m 1
 62 185 l 1
 309 185 l 1
 309 123 l 1
 62 123 l 1
494 123 m 1
 494 185 l 1
 679 185 l 1
 679 123 l 1
 494 123 l 1
123 62 m 1
 123 123 l 1
 679 123 l 1
 679 62 l 1
 123 62 l 1
185 0 m 1
 185 62 l 1
 556 62 l 1
 556 0 l 1
 185 0 l 1
309 -62 m 1
 309 0 l 1
 432 0 l 1
 432 -62 l 1
 309 -62 l 1
309 -123 m 1
 309 -62 l 1
 494 -62 l 1
 494 -123 l 1
 309 -123 l 1
432 -185 m 1
 432 -123 l 1
 556 -123 l 1
 556 -185 l 1
 432 -185 l 1
185 -247 m 1
 185 -185 l 1
 556 -185 l 1
 556 -247 l 1
 185 -247 l 1
247 -309 m 1
 247 -247 l 1
 494 -247 l 1
 494 -309 l 1
 247 -309 l 1
EndSplineSet
EndChar

StartChar: egrave
Encoding: 232 232 171
Width: 679
Flags: HW
LayerCount: 2
Back
Fore
SplineSet
185 802 m 1
 185 864 l 1
 370 864 l 1
 370 802 l 1
 185 802 l 1
247 741 m 1
 247 802 l 1
 432 802 l 1
 432 741 l 1
 247 741 l 1
370 679 m 1
 370 741 l 1
 494 741 l 1
 494 679 l 1
 370 679 l 1
185 494 m 1
 185 556 l 1
 556 556 l 1
 556 494 l 1
 185 494 l 1
123 432 m 1
 123 494 l 1
 617 494 l 1
 617 432 l 1
 123 432 l 1
62 370 m 1
 62 432 l 1
 247 432 l 1
 247 370 l 1
 62 370 l 1
494 370 m 1
 494 432 l 1
 679 432 l 1
 679 370 l 1
 494 370 l 1
62 309 m 1
 62 370 l 1
 679 370 l 1
 679 309 l 1
 62 309 l 1
62 247 m 1
 62 309 l 1
 679 309 l 1
 679 247 l 1
 62 247 l 1
62 185 m 1
 62 247 l 1
 247 247 l 1
 247 185 l 1
 62 185 l 1
62 123 m 1
 62 185 l 1
 309 185 l 1
 309 123 l 1
 62 123 l 1
494 123 m 1
 494 185 l 1
 679 185 l 1
 679 123 l 1
 494 123 l 1
123 62 m 1
 123 123 l 1
 679 123 l 1
 679 62 l 1
 123 62 l 1
185 0 m 1
 185 62 l 1
 556 62 l 1
 556 0 l 1
 185 0 l 1
EndSplineSet
EndChar

StartChar: eacute
Encoding: 233 233 172
Width: 679
Flags: HW
LayerCount: 2
Back
Fore
SplineSet
370 802 m 1
 370 864 l 1
 556 864 l 1
 556 802 l 1
 370 802 l 1
309 741 m 1
 309 802 l 1
 494 802 l 1
 494 741 l 1
 309 741 l 1
247 679 m 1
 247 741 l 1
 370 741 l 1
 370 679 l 1
 247 679 l 1
185 494 m 1
 185 556 l 1
 556 556 l 1
 556 494 l 1
 185 494 l 1
123 432 m 1
 123 494 l 1
 617 494 l 1
 617 432 l 1
 123 432 l 1
62 370 m 1
 62 432 l 1
 247 432 l 1
 247 370 l 1
 62 370 l 1
494 370 m 1
 494 432 l 1
 679 432 l 1
 679 370 l 1
 494 370 l 1
62 309 m 1
 62 370 l 1
 679 370 l 1
 679 309 l 1
 62 309 l 1
62 247 m 1
 62 309 l 1
 679 309 l 1
 679 247 l 1
 62 247 l 1
62 185 m 1
 62 247 l 1
 247 247 l 1
 247 185 l 1
 62 185 l 1
62 123 m 1
 62 185 l 1
 309 185 l 1
 309 123 l 1
 62 123 l 1
494 123 m 1
 494 185 l 1
 679 185 l 1
 679 123 l 1
 494 123 l 1
123 62 m 1
 123 123 l 1
 679 123 l 1
 679 62 l 1
 123 62 l 1
185 0 m 1
 185 62 l 1
 556 62 l 1
 556 0 l 1
 185 0 l 1
EndSplineSet
EndChar

StartChar: ecircumflex
Encoding: 234 234 173
Width: 679
Flags: HW
LayerCount: 2
Back
Fore
SplineSet
247 802 m 1
 247 864 l 1
 494 864 l 1
 494 802 l 1
 247 802 l 1
185 741 m 1
 185 802 l 1
 556 802 l 1
 556 741 l 1
 185 741 l 1
123 679 m 1
 123 741 l 1
 309 741 l 1
 309 679 l 1
 123 679 l 1
432 679 m 1
 432 741 l 1
 617 741 l 1
 617 679 l 1
 432 679 l 1
185 494 m 1
 185 556 l 1
 556 556 l 1
 556 494 l 1
 185 494 l 1
123 432 m 1
 123 494 l 1
 617 494 l 1
 617 432 l 1
 123 432 l 1
62 370 m 1
 62 432 l 1
 247 432 l 1
 247 370 l 1
 62 370 l 1
494 370 m 1
 494 432 l 1
 679 432 l 1
 679 370 l 1
 494 370 l 1
62 309 m 1
 62 370 l 1
 679 370 l 1
 679 309 l 1
 62 309 l 1
62 247 m 1
 62 309 l 1
 679 309 l 1
 679 247 l 1
 62 247 l 1
62 185 m 1
 62 247 l 1
 247 247 l 1
 247 185 l 1
 62 185 l 1
62 123 m 1
 62 185 l 1
 309 185 l 1
 309 123 l 1
 62 123 l 1
494 123 m 1
 494 185 l 1
 679 185 l 1
 679 123 l 1
 494 123 l 1
123 62 m 1
 123 123 l 1
 679 123 l 1
 679 62 l 1
 123 62 l 1
185 0 m 1
 185 62 l 1
 556 62 l 1
 556 0 l 1
 185 0 l 1
EndSplineSet
EndChar

StartChar: edieresis
Encoding: 235 235 174
Width: 679
Flags: HW
LayerCount: 2
Back
Fore
SplineSet
123 802 m 1
 123 864 l 1
 247 864 l 1
 247 802 l 1
 123 802 l 1
494 802 m 1
 494 864 l 1
 617 864 l 1
 617 802 l 1
 494 802 l 1
62 741 m 1
 62 802 l 1
 309 802 l 1
 309 741 l 1
 62 741 l 1
432 741 m 1
 432 802 l 1
 679 802 l 1
 679 741 l 1
 432 741 l 1
123 679 m 1
 123 741 l 1
 247 741 l 1
 247 679 l 1
 123 679 l 1
494 679 m 1
 494 741 l 1
 617 741 l 1
 617 679 l 1
 494 679 l 1
185 494 m 1
 185 556 l 1
 556 556 l 1
 556 494 l 1
 185 494 l 1
123 432 m 1
 123 494 l 1
 617 494 l 1
 617 432 l 1
 123 432 l 1
62 370 m 1
 62 432 l 1
 247 432 l 1
 247 370 l 1
 62 370 l 1
494 370 m 1
 494 432 l 1
 679 432 l 1
 679 370 l 1
 494 370 l 1
62 309 m 1
 62 370 l 1
 679 370 l 1
 679 309 l 1
 62 309 l 1
62 247 m 1
 62 309 l 1
 679 309 l 1
 679 247 l 1
 62 247 l 1
62 185 m 1
 62 247 l 1
 247 247 l 1
 247 185 l 1
 62 185 l 1
62 123 m 1
 62 185 l 1
 309 185 l 1
 309 123 l 1
 62 123 l 1
494 123 m 1
 494 185 l 1
 679 185 l 1
 679 123 l 1
 494 123 l 1
123 62 m 1
 123 123 l 1
 679 123 l 1
 679 62 l 1
 123 62 l 1
185 0 m 1
 185 62 l 1
 556 62 l 1
 556 0 l 1
 185 0 l 1
EndSplineSet
EndChar

StartChar: igrave
Encoding: 236 236 175
Width: 679
Flags: HW
LayerCount: 2
Back
Fore
SplineSet
123 802 m 1
 123 864 l 1
 309 864 l 1
 309 802 l 1
 123 802 l 1
185 741 m 1
 185 802 l 1
 370 802 l 1
 370 741 l 1
 185 741 l 1
309 679 m 1
 309 741 l 1
 432 741 l 1
 432 679 l 1
 309 679 l 1
123 494 m 1
 123 556 l 1
 432 556 l 1
 432 494 l 1
 123 494 l 1
123 432 m 1
 123 494 l 1
 432 494 l 1
 432 432 l 1
 123 432 l 1
247 370 m 1
 247 432 l 1
 432 432 l 1
 432 370 l 1
 247 370 l 1
247 309 m 1
 247 370 l 1
 432 370 l 1
 432 309 l 1
 247 309 l 1
247 247 m 1
 247 309 l 1
 432 309 l 1
 432 247 l 1
 247 247 l 1
247 185 m 1
 247 247 l 1
 432 247 l 1
 432 185 l 1
 247 185 l 1
247 123 m 1
 247 185 l 1
 432 185 l 1
 432 123 l 1
 247 123 l 1
62 62 m 1
 62 123 l 1
 617 123 l 1
 617 62 l 1
 62 62 l 1
62 0 m 1
 62 62 l 1
 617 62 l 1
 617 0 l 1
 62 0 l 1
EndSplineSet
EndChar

StartChar: iacute
Encoding: 237 237 176
Width: 679
Flags: HW
LayerCount: 2
Back
Fore
SplineSet
309 802 m 1
 309 864 l 1
 494 864 l 1
 494 802 l 1
 309 802 l 1
247 741 m 1
 247 802 l 1
 432 802 l 1
 432 741 l 1
 247 741 l 1
185 679 m 1
 185 741 l 1
 309 741 l 1
 309 679 l 1
 185 679 l 1
123 494 m 1
 123 556 l 1
 432 556 l 1
 432 494 l 1
 123 494 l 1
123 432 m 1
 123 494 l 1
 432 494 l 1
 432 432 l 1
 123 432 l 1
247 370 m 1
 247 432 l 1
 432 432 l 1
 432 370 l 1
 247 370 l 1
247 309 m 1
 247 370 l 1
 432 370 l 1
 432 309 l 1
 247 309 l 1
247 247 m 1
 247 309 l 1
 432 309 l 1
 432 247 l 1
 247 247 l 1
247 185 m 1
 247 247 l 1
 432 247 l 1
 432 185 l 1
 247 185 l 1
247 123 m 1
 247 185 l 1
 432 185 l 1
 432 123 l 1
 247 123 l 1
62 62 m 1
 62 123 l 1
 617 123 l 1
 617 62 l 1
 62 62 l 1
62 0 m 1
 62 62 l 1
 617 62 l 1
 617 0 l 1
 62 0 l 1
EndSplineSet
EndChar

StartChar: icircumflex
Encoding: 238 238 177
Width: 679
Flags: HW
LayerCount: 2
Back
Fore
SplineSet
185 802 m 1
 185 864 l 1
 432 864 l 1
 432 802 l 1
 185 802 l 1
123 741 m 1
 123 802 l 1
 494 802 l 1
 494 741 l 1
 123 741 l 1
62 679 m 1
 62 741 l 1
 247 741 l 1
 247 679 l 1
 62 679 l 1
370 679 m 1
 370 741 l 1
 556 741 l 1
 556 679 l 1
 370 679 l 1
123 494 m 1
 123 556 l 1
 432 556 l 1
 432 494 l 1
 123 494 l 1
123 432 m 1
 123 494 l 1
 432 494 l 1
 432 432 l 1
 123 432 l 1
247 370 m 1
 247 432 l 1
 432 432 l 1
 432 370 l 1
 247 370 l 1
247 309 m 1
 247 370 l 1
 432 370 l 1
 432 309 l 1
 247 309 l 1
247 247 m 1
 247 309 l 1
 432 309 l 1
 432 247 l 1
 247 247 l 1
247 185 m 1
 247 247 l 1
 432 247 l 1
 432 185 l 1
 247 185 l 1
247 123 m 1
 247 185 l 1
 432 185 l 1
 432 123 l 1
 247 123 l 1
62 62 m 1
 62 123 l 1
 617 123 l 1
 617 62 l 1
 62 62 l 1
62 0 m 1
 62 62 l 1
 617 62 l 1
 617 0 l 1
 62 0 l 1
EndSplineSet
EndChar

StartChar: idieresis
Encoding: 239 239 178
Width: 679
Flags: HW
LayerCount: 2
Back
Fore
SplineSet
123 802 m 1
 123 864 l 1
 247 864 l 1
 247 802 l 1
 123 802 l 1
494 802 m 1
 494 864 l 1
 617 864 l 1
 617 802 l 1
 494 802 l 1
62 741 m 1
 62 802 l 1
 309 802 l 1
 309 741 l 1
 62 741 l 1
432 741 m 1
 432 802 l 1
 679 802 l 1
 679 741 l 1
 432 741 l 1
123 679 m 1
 123 741 l 1
 247 741 l 1
 247 679 l 1
 123 679 l 1
494 679 m 1
 494 741 l 1
 617 741 l 1
 617 679 l 1
 494 679 l 1
185 494 m 1
 185 556 l 1
 494 556 l 1
 494 494 l 1
 185 494 l 1
185 432 m 1
 185 494 l 1
 494 494 l 1
 494 432 l 1
 185 432 l 1
309 370 m 1
 309 432 l 1
 494 432 l 1
 494 370 l 1
 309 370 l 1
309 309 m 1
 309 370 l 1
 494 370 l 1
 494 309 l 1
 309 309 l 1
309 247 m 1
 309 309 l 1
 494 309 l 1
 494 247 l 1
 309 247 l 1
309 185 m 1
 309 247 l 1
 494 247 l 1
 494 185 l 1
 309 185 l 1
309 123 m 1
 309 185 l 1
 494 185 l 1
 494 123 l 1
 309 123 l 1
123 62 m 1
 123 123 l 1
 679 123 l 1
 679 62 l 1
 123 62 l 1
123 0 m 1
 123 62 l 1
 679 62 l 1
 679 0 l 1
 123 0 l 1
EndSplineSet
EndChar

StartChar: eth
Encoding: 240 240 179
Width: 679
Flags: HW
LayerCount: 2
Back
Fore
SplineSet
185 679 m 1
 185 741 l 1
 370 741 l 1
 370 679 l 1
 185 679 l 1
432 679 m 1
 432 741 l 1
 556 741 l 1
 556 679 l 1
 432 679 l 1
247 617 m 1
 247 679 l 1
 494 679 l 1
 494 617 l 1
 247 617 l 1
185 556 m 1
 185 617 l 1
 309 617 l 1
 309 556 l 1
 185 556 l 1
370 556 m 1
 370 617 l 1
 556 617 l 1
 556 556 l 1
 370 556 l 1
432 494 m 1
 432 556 l 1
 617 556 l 1
 617 494 l 1
 432 494 l 1
185 432 m 1
 185 494 l 1
 617 494 l 1
 617 432 l 1
 185 432 l 1
123 370 m 1
 123 432 l 1
 679 432 l 1
 679 370 l 1
 123 370 l 1
62 309 m 1
 62 370 l 1
 309 370 l 1
 309 309 l 1
 62 309 l 1
432 309 m 1
 432 370 l 1
 679 370 l 1
 679 309 l 1
 432 309 l 1
62 247 m 1
 62 309 l 1
 247 309 l 1
 247 247 l 1
 62 247 l 1
494 247 m 1
 494 309 l 1
 679 309 l 1
 679 247 l 1
 494 247 l 1
62 185 m 1
 62 247 l 1
 247 247 l 1
 247 185 l 1
 62 185 l 1
494 185 m 1
 494 247 l 1
 679 247 l 1
 679 185 l 1
 494 185 l 1
62 123 m 1
 62 185 l 1
 309 185 l 1
 309 123 l 1
 62 123 l 1
432 123 m 1
 432 185 l 1
 679 185 l 1
 679 123 l 1
 432 123 l 1
123 62 m 1
 123 123 l 1
 617 123 l 1
 617 62 l 1
 123 62 l 1
185 0 m 1
 185 62 l 1
 556 62 l 1
 556 0 l 1
 185 0 l 1
EndSplineSet
EndChar

StartChar: ntilde
Encoding: 241 241 180
Width: 679
Flags: HW
LayerCount: 2
Back
Fore
SplineSet
185 802 m 1
 185 864 l 1
 370 864 l 1
 370 802 l 1
 185 802 l 1
556 802 m 1
 556 864 l 1
 617 864 l 1
 617 802 l 1
 556 802 l 1
123 741 m 1
 123 802 l 1
 617 802 l 1
 617 741 l 1
 123 741 l 1
123 679 m 1
 123 741 l 1
 185 741 l 1
 185 679 l 1
 123 679 l 1
370 679 m 1
 370 741 l 1
 556 741 l 1
 556 679 l 1
 370 679 l 1
62 494 m 1
 62 556 l 1
 309 556 l 1
 309 494 l 1
 62 494 l 1
370 494 m 1
 370 556 l 1
 556 556 l 1
 556 494 l 1
 370 494 l 1
62 432 m 1
 62 494 l 1
 617 494 l 1
 617 432 l 1
 62 432 l 1
123 370 m 1
 123 432 l 1
 370 432 l 1
 370 370 l 1
 123 370 l 1
432 370 m 1
 432 432 l 1
 617 432 l 1
 617 370 l 1
 432 370 l 1
123 309 m 1
 123 370 l 1
 309 370 l 1
 309 309 l 1
 123 309 l 1
432 309 m 1
 432 370 l 1
 617 370 l 1
 617 309 l 1
 432 309 l 1
123 247 m 1
 123 309 l 1
 309 309 l 1
 309 247 l 1
 123 247 l 1
432 247 m 1
 432 309 l 1
 617 309 l 1
 617 247 l 1
 432 247 l 1
123 185 m 1
 123 247 l 1
 309 247 l 1
 309 185 l 1
 123 185 l 1
432 185 m 1
 432 247 l 1
 617 247 l 1
 617 185 l 1
 432 185 l 1
123 123 m 1
 123 185 l 1
 309 185 l 1
 309 123 l 1
 123 123 l 1
432 123 m 1
 432 185 l 1
 617 185 l 1
 617 123 l 1
 432 123 l 1
62 62 m 1
 62 123 l 1
 309 123 l 1
 309 62 l 1
 62 62 l 1
432 62 m 1
 432 123 l 1
 679 123 l 1
 679 62 l 1
 432 62 l 1
62 0 m 1
 62 62 l 1
 309 62 l 1
 309 0 l 1
 62 0 l 1
432 0 m 1
 432 62 l 1
 679 62 l 1
 679 0 l 1
 432 0 l 1
EndSplineSet
EndChar

StartChar: ograve
Encoding: 242 242 181
Width: 679
Flags: HW
LayerCount: 2
Back
Fore
SplineSet
185 802 m 1
 185 864 l 1
 370 864 l 1
 370 802 l 1
 185 802 l 1
247 741 m 1
 247 802 l 1
 432 802 l 1
 432 741 l 1
 247 741 l 1
370 679 m 1
 370 741 l 1
 494 741 l 1
 494 679 l 1
 370 679 l 1
185 494 m 1
 185 556 l 1
 556 556 l 1
 556 494 l 1
 185 494 l 1
123 432 m 1
 123 494 l 1
 617 494 l 1
 617 432 l 1
 123 432 l 1
62 370 m 1
 62 432 l 1
 309 432 l 1
 309 370 l 1
 62 370 l 1
432 370 m 1
 432 432 l 1
 679 432 l 1
 679 370 l 1
 432 370 l 1
62 309 m 1
 62 370 l 1
 247 370 l 1
 247 309 l 1
 62 309 l 1
494 309 m 1
 494 370 l 1
 679 370 l 1
 679 309 l 1
 494 309 l 1
62 247 m 1
 62 309 l 1
 247 309 l 1
 247 247 l 1
 62 247 l 1
494 247 m 1
 494 309 l 1
 679 309 l 1
 679 247 l 1
 494 247 l 1
62 185 m 1
 62 247 l 1
 247 247 l 1
 247 185 l 1
 62 185 l 1
494 185 m 1
 494 247 l 1
 679 247 l 1
 679 185 l 1
 494 185 l 1
62 123 m 1
 62 185 l 1
 309 185 l 1
 309 123 l 1
 62 123 l 1
432 123 m 1
 432 185 l 1
 679 185 l 1
 679 123 l 1
 432 123 l 1
123 62 m 1
 123 123 l 1
 617 123 l 1
 617 62 l 1
 123 62 l 1
185 0 m 1
 185 62 l 1
 556 62 l 1
 556 0 l 1
 185 0 l 1
EndSplineSet
EndChar

StartChar: oacute
Encoding: 243 243 182
Width: 679
Flags: HW
LayerCount: 2
Back
Fore
SplineSet
370 802 m 1
 370 864 l 1
 556 864 l 1
 556 802 l 1
 370 802 l 1
309 741 m 1
 309 802 l 1
 494 802 l 1
 494 741 l 1
 309 741 l 1
247 679 m 1
 247 741 l 1
 370 741 l 1
 370 679 l 1
 247 679 l 1
185 494 m 1
 185 556 l 1
 556 556 l 1
 556 494 l 1
 185 494 l 1
123 432 m 1
 123 494 l 1
 617 494 l 1
 617 432 l 1
 123 432 l 1
62 370 m 1
 62 432 l 1
 309 432 l 1
 309 370 l 1
 62 370 l 1
432 370 m 1
 432 432 l 1
 679 432 l 1
 679 370 l 1
 432 370 l 1
62 309 m 1
 62 370 l 1
 247 370 l 1
 247 309 l 1
 62 309 l 1
494 309 m 1
 494 370 l 1
 679 370 l 1
 679 309 l 1
 494 309 l 1
62 247 m 1
 62 309 l 1
 247 309 l 1
 247 247 l 1
 62 247 l 1
494 247 m 1
 494 309 l 1
 679 309 l 1
 679 247 l 1
 494 247 l 1
62 185 m 1
 62 247 l 1
 247 247 l 1
 247 185 l 1
 62 185 l 1
494 185 m 1
 494 247 l 1
 679 247 l 1
 679 185 l 1
 494 185 l 1
62 123 m 1
 62 185 l 1
 309 185 l 1
 309 123 l 1
 62 123 l 1
432 123 m 1
 432 185 l 1
 679 185 l 1
 679 123 l 1
 432 123 l 1
123 62 m 1
 123 123 l 1
 617 123 l 1
 617 62 l 1
 123 62 l 1
185 0 m 1
 185 62 l 1
 556 62 l 1
 556 0 l 1
 185 0 l 1
EndSplineSet
EndChar

StartChar: ocircumflex
Encoding: 244 244 183
Width: 679
Flags: HW
LayerCount: 2
Back
Fore
SplineSet
247 802 m 1
 247 864 l 1
 494 864 l 1
 494 802 l 1
 247 802 l 1
185 741 m 1
 185 802 l 1
 556 802 l 1
 556 741 l 1
 185 741 l 1
123 679 m 1
 123 741 l 1
 309 741 l 1
 309 679 l 1
 123 679 l 1
432 679 m 1
 432 741 l 1
 617 741 l 1
 617 679 l 1
 432 679 l 1
185 494 m 1
 185 556 l 1
 556 556 l 1
 556 494 l 1
 185 494 l 1
123 432 m 1
 123 494 l 1
 617 494 l 1
 617 432 l 1
 123 432 l 1
62 370 m 1
 62 432 l 1
 309 432 l 1
 309 370 l 1
 62 370 l 1
432 370 m 1
 432 432 l 1
 679 432 l 1
 679 370 l 1
 432 370 l 1
62 309 m 1
 62 370 l 1
 247 370 l 1
 247 309 l 1
 62 309 l 1
494 309 m 1
 494 370 l 1
 679 370 l 1
 679 309 l 1
 494 309 l 1
62 247 m 1
 62 309 l 1
 247 309 l 1
 247 247 l 1
 62 247 l 1
494 247 m 1
 494 309 l 1
 679 309 l 1
 679 247 l 1
 494 247 l 1
62 185 m 1
 62 247 l 1
 247 247 l 1
 247 185 l 1
 62 185 l 1
494 185 m 1
 494 247 l 1
 679 247 l 1
 679 185 l 1
 494 185 l 1
62 123 m 1
 62 185 l 1
 309 185 l 1
 309 123 l 1
 62 123 l 1
432 123 m 1
 432 185 l 1
 679 185 l 1
 679 123 l 1
 432 123 l 1
123 62 m 1
 123 123 l 1
 617 123 l 1
 617 62 l 1
 123 62 l 1
185 0 m 1
 185 62 l 1
 556 62 l 1
 556 0 l 1
 185 0 l 1
EndSplineSet
EndChar

StartChar: otilde
Encoding: 245 245 184
Width: 679
Flags: HW
LayerCount: 2
Back
Fore
SplineSet
185 802 m 1
 185 864 l 1
 370 864 l 1
 370 802 l 1
 185 802 l 1
556 802 m 1
 556 864 l 1
 617 864 l 1
 617 802 l 1
 556 802 l 1
123 741 m 1
 123 802 l 1
 617 802 l 1
 617 741 l 1
 123 741 l 1
123 679 m 1
 123 741 l 1
 185 741 l 1
 185 679 l 1
 123 679 l 1
370 679 m 1
 370 741 l 1
 556 741 l 1
 556 679 l 1
 370 679 l 1
185 494 m 1
 185 556 l 1
 556 556 l 1
 556 494 l 1
 185 494 l 1
123 432 m 1
 123 494 l 1
 617 494 l 1
 617 432 l 1
 123 432 l 1
62 370 m 1
 62 432 l 1
 309 432 l 1
 309 370 l 1
 62 370 l 1
432 370 m 1
 432 432 l 1
 679 432 l 1
 679 370 l 1
 432 370 l 1
62 309 m 1
 62 370 l 1
 247 370 l 1
 247 309 l 1
 62 309 l 1
494 309 m 1
 494 370 l 1
 679 370 l 1
 679 309 l 1
 494 309 l 1
62 247 m 1
 62 309 l 1
 247 309 l 1
 247 247 l 1
 62 247 l 1
494 247 m 1
 494 309 l 1
 679 309 l 1
 679 247 l 1
 494 247 l 1
62 185 m 1
 62 247 l 1
 247 247 l 1
 247 185 l 1
 62 185 l 1
494 185 m 1
 494 247 l 1
 679 247 l 1
 679 185 l 1
 494 185 l 1
62 123 m 1
 62 185 l 1
 309 185 l 1
 309 123 l 1
 62 123 l 1
432 123 m 1
 432 185 l 1
 679 185 l 1
 679 123 l 1
 432 123 l 1
123 62 m 1
 123 123 l 1
 617 123 l 1
 617 62 l 1
 123 62 l 1
185 0 m 1
 185 62 l 1
 556 62 l 1
 556 0 l 1
 185 0 l 1
EndSplineSet
EndChar

StartChar: odieresis
Encoding: 246 246 185
Width: 679
Flags: HW
LayerCount: 2
Back
Fore
SplineSet
123 802 m 1
 123 864 l 1
 247 864 l 1
 247 802 l 1
 123 802 l 1
494 802 m 1
 494 864 l 1
 617 864 l 1
 617 802 l 1
 494 802 l 1
62 741 m 1
 62 802 l 1
 309 802 l 1
 309 741 l 1
 62 741 l 1
432 741 m 1
 432 802 l 1
 679 802 l 1
 679 741 l 1
 432 741 l 1
123 679 m 1
 123 741 l 1
 247 741 l 1
 247 679 l 1
 123 679 l 1
494 679 m 1
 494 741 l 1
 617 741 l 1
 617 679 l 1
 494 679 l 1
185 494 m 1
 185 556 l 1
 556 556 l 1
 556 494 l 1
 185 494 l 1
123 432 m 1
 123 494 l 1
 617 494 l 1
 617 432 l 1
 123 432 l 1
62 370 m 1
 62 432 l 1
 309 432 l 1
 309 370 l 1
 62 370 l 1
432 370 m 1
 432 432 l 1
 679 432 l 1
 679 370 l 1
 432 370 l 1
62 309 m 1
 62 370 l 1
 247 370 l 1
 247 309 l 1
 62 309 l 1
494 309 m 1
 494 370 l 1
 679 370 l 1
 679 309 l 1
 494 309 l 1
62 247 m 1
 62 309 l 1
 247 309 l 1
 247 247 l 1
 62 247 l 1
494 247 m 1
 494 309 l 1
 679 309 l 1
 679 247 l 1
 494 247 l 1
62 185 m 1
 62 247 l 1
 247 247 l 1
 247 185 l 1
 62 185 l 1
494 185 m 1
 494 247 l 1
 679 247 l 1
 679 185 l 1
 494 185 l 1
62 123 m 1
 62 185 l 1
 309 185 l 1
 309 123 l 1
 62 123 l 1
432 123 m 1
 432 185 l 1
 679 185 l 1
 679 123 l 1
 432 123 l 1
123 62 m 1
 123 123 l 1
 617 123 l 1
 617 62 l 1
 123 62 l 1
185 0 m 1
 185 62 l 1
 556 62 l 1
 556 0 l 1
 185 0 l 1
EndSplineSet
EndChar

StartChar: divide
Encoding: 247 247 186
Width: 679
Flags: HW
LayerCount: 2
Back
Fore
SplineSet
309 556 m 1
 309 617 l 1
 432 617 l 1
 432 556 l 1
 309 556 l 1
247 494 m 1
 247 556 l 1
 494 556 l 1
 494 494 l 1
 247 494 l 1
309 432 m 1
 309 494 l 1
 432 494 l 1
 432 432 l 1
 309 432 l 1
62 309 m 1
 62 370 l 1
 679 370 l 1
 679 309 l 1
 62 309 l 1
62 247 m 1
 62 309 l 1
 679 309 l 1
 679 247 l 1
 62 247 l 1
309 123 m 1
 309 185 l 1
 432 185 l 1
 432 123 l 1
 309 123 l 1
247 62 m 1
 247 123 l 1
 494 123 l 1
 494 62 l 1
 247 62 l 1
309 0 m 1
 309 62 l 1
 432 62 l 1
 432 0 l 1
 309 0 l 1
EndSplineSet
EndChar

StartChar: oslash
Encoding: 248 248 187
Width: 679
Flags: HW
LayerCount: 2
Back
Fore
SplineSet
185 494 m 1
 185 556 l 1
 494 556 l 1
 494 494 l 1
 185 494 l 1
556 494 m 1
 556 556 l 1
 679 556 l 1
 679 494 l 1
 556 494 l 1
123 432 m 1
 123 494 l 1
 617 494 l 1
 617 432 l 1
 123 432 l 1
62 370 m 1
 62 432 l 1
 309 432 l 1
 309 370 l 1
 62 370 l 1
432 370 m 1
 432 432 l 1
 679 432 l 1
 679 370 l 1
 432 370 l 1
62 309 m 1
 62 370 l 1
 247 370 l 1
 247 309 l 1
 62 309 l 1
370 309 m 1
 370 370 l 1
 679 370 l 1
 679 309 l 1
 370 309 l 1
62 247 m 1
 62 309 l 1
 247 309 l 1
 247 247 l 1
 62 247 l 1
309 247 m 1
 309 309 l 1
 432 309 l 1
 432 247 l 1
 309 247 l 1
494 247 m 1
 494 309 l 1
 679 309 l 1
 679 247 l 1
 494 247 l 1
62 185 m 1
 62 247 l 1
 370 247 l 1
 370 185 l 1
 62 185 l 1
494 185 m 1
 494 247 l 1
 679 247 l 1
 679 185 l 1
 494 185 l 1
62 123 m 1
 62 185 l 1
 309 185 l 1
 309 123 l 1
 62 123 l 1
432 123 m 1
 432 185 l 1
 679 185 l 1
 679 123 l 1
 432 123 l 1
123 62 m 1
 123 123 l 1
 617 123 l 1
 617 62 l 1
 123 62 l 1
62 0 m 1
 62 62 l 1
 185 62 l 1
 185 0 l 1
 62 0 l 1
247 0 m 1
 247 62 l 1
 556 62 l 1
 556 0 l 1
 247 0 l 1
EndSplineSet
EndChar

